<svg xmlns="http://www.w3.org/2000/svg" viewBox="0 0 188.22 97.23"><defs><style>.cls-1{fill:#ebf3fa;}.cls-2{fill:#a8d29f;}.cls-3{fill:#82b378;}.cls-4{fill:#2e3552;}.cls-5{fill:#ececec;}.cls-6{fill:#dcdcdc;}.cls-7{fill:#c8c8c8;}.cls-8{fill:#a8a8a8;}.cls-9{fill:#1a2e35;}.cls-10{fill:#2b454e;}.cls-11{fill:#fff;}.cls-12{fill:#fb6a55;}.cls-13{fill:#ffc800;}.cls-14{fill:#ff99bc;}.cls-15{opacity:0.1;}.cls-16{fill:#c36358;}.cls-17{fill:#375a64;}.cls-18{fill:none;stroke:#ff99bc;stroke-linecap:round;stroke-linejoin:round;stroke-width:0;}.cls-19,.cls-21{font-size:8px;fill:#009245;font-family:MyriadPro-Bold, Myriad Pro;font-weight:700;}.cls-20,.cls-21{letter-spacing:0.01em;}.cls-22{letter-spacing:0.01em;}.cls-23{letter-spacing:0em;}</style></defs><title>Asset 21</title><g id="Layer_2" data-name="Layer 2"><g id="Layer_2-2" data-name="Layer 2"><path class="cls-1" d="M14.35,97.18S-7.22,74,10.7,49c15.9-22.24,34.43-20.72,48-11.69,5.79,3.84,22.49.47,36.71-22.16C114.82-15.76,182,3,169.76,50.45c-5.93,23,18,23.81,5.83,46.78Z"/><path class="cls-2" d="M55.76,52.27S45.09,37.08,40.92,39.05,55.76,52.27,55.76,52.27Z"/><path class="cls-2" d="M55.08,48.19s-1.63-11.42-4.2-11S55.08,48.19,55.08,48.19Z"/><path class="cls-3" d="M168.11,96.62h-6.32c-.34-.29.23-.94.83-1a3.75,3.75,0,0,1,1,.12c.08-1.16.58-6.35,2.45-6.14,2.11.23,0,2.28-.59,3.5a28.44,28.44,0,0,0-1.12,2.8l.53.11c.28-.86,1.32-3.74,2.64-3.57,1.55.19.92,1.35-.18,2-.8.5-1.79,1.22-2.26,1.56a6.25,6.25,0,0,0,1.23.1A2.69,2.69,0,0,1,168.11,96.62Z"/><path class="cls-3" d="M23.81,96.32c-.33-.53-1.34-1.9-2.68-1.71s1.61,1.16,2.55,1.71a1.55,1.55,0,0,1-.52-.06,3.54,3.54,0,0,0-2.05.36h6a.93.93,0,0,0-.43-.55,1.07,1.07,0,0,0-.55,0c.35-.42.6-1.76-.39-1.42-.73.25-.73,1.07-.65,1.56l-.47.07c-.3-1.52-1.36-6-3.5-6.1S23,94.76,24.3,96.27Z"/><rect class="cls-4" y="96.55" width="188.22" height="0.5" rx="0.15"/><path class="cls-3" d="M156.5,49.39s-2.89-3.83.18-6a8.3,8.3,0,0,1,3.94-.95s-2.72,4-2,4.44,2.72-4.65,2.72-4.65,4.88-.17,6.39.68c0,0-4.36,3.14-3.5,3.39s5.56-2.79,5.56-2.79,4.47,1,4,3.79-2,3.49-2.7,3.38-4.59-1.9-4.71-1.34,2.17,2.54,3.86,2.73c0,0-3.41,3.31-5.46,2.17s-2.14-2.77-3.42-3.45-2.41-.76-1.9-.11,2.86,1.4,3.53,2.78,1.29,2.32-.88,1.86-5.63-2.29-5.67-4.14Z"/><path class="cls-3" d="M171.67,47.28s-12.24-1.23-15.17,2.11a8.88,8.88,0,0,1-2.66,3.27l-.34.77s2.27-2.11,3-2.2C156.54,51.23,155.62,46.81,171.67,47.28Z"/><path class="cls-3" d="M153.84,52.66a7.74,7.74,0,0,0-3.16,5.26l.48.07s1.06-3.55,2.67-4.86S153.84,52.66,153.84,52.66Z"/><path class="cls-2" d="M142.34,40.24s-6.4-3.58-3.41-8.45c0,0,2.39-3,4.94-3.75,0,0-1.36,7.25,0,7.42s.94-8.19.94-8.19,6.74-3.24,9.39-3c0,0-4.18,7.08-2.82,6.91s6.06-7.34,6.06-7.34,6.91-1.28,8,2.82-.68,6.14-1.71,6.39-7.59.18-7.42,1,4.61,2.22,7.08,1.45c0,0-2.73,6.74-6.31,6.4s-4.69-2.56-6.91-2.73-3.84.42-2.73,1,4.86.2,6.65,1.72,3.24,2.46-.08,3.14-9.3.26-10.5-2.3Z"/><path class="cls-3" d="M162.3,28s-17.91,5.8-20,12.28a13.68,13.68,0,0,1-1.71,6.23v1.28s1.88-4.35,2.9-5C143.53,42.8,139.52,37.17,162.3,28Z"/><path class="cls-3" d="M140.63,46.47a11.82,11.82,0,0,0-1.19,9.3l.72-.19s-.69-5.63.75-8.45S140.63,46.47,140.63,46.47Z"/><path class="cls-2" d="M38.26,72.08s7.45-3.15,4.76-8.84c0,0-2.25-3.57-5-4.72,0,0,.61,8.11-.9,8.14s0-9.09,0-9.09-7-4.37-9.92-4.41c0,0,3.72,8.26,2.25,7.91S23.7,52.3,23.7,52.3s-7.42-2.24-9.13,2.11,0,6.81,1.09,7.22,8.3,1.11,8,2-5.31,1.87-7.93.73c0,0,2.17,7.72,6.14,7.78s5.45-2.24,7.9-2.16,4.16.94,2.87,1.46-5.35-.38-7.5,1.07S21.3,74.84,24.86,76,35,77.4,36.64,74.74Z"/><path class="cls-3" d="M17.87,56.2S36.8,64.72,38.26,72.08a15,15,0,0,0,1.12,7l-.16,1.4s-1.53-5-2.58-5.77C36.64,74.74,41.72,69.05,17.87,56.2Z"/><path class="cls-3" d="M39.38,79.11a13,13,0,0,1,.17,10.34l-.76-.3s1.44-6.08.2-9.36S39.38,79.11,39.38,79.11Z"/><path class="cls-3" d="M23,90.36a8.19,8.19,0,0,1-1.46-3.66s3.64-2.62,1.49-5.37a7.72,7.72,0,0,0-3.26-1.94s1.32,4.31.51,4.51S19.14,79,19.14,79s-4.32-1.51-5.91-1.17c0,0,3,4,2.19,4s-4.19-4-4.19-4S7,77.48,6.56,80,7.39,83.73,8,83.81s4.62-.41,4.58.11S10,85.59,8.41,85.29c0,0,2.12,3.91,4.27,3.45s2.67-1.87,4-2.13,2.36,0,1.73.44-2.94.45-3.93,1.5-1.8,1.71.27,1.9S20.43,90,21,88.33l.07-.2a.8.8,0,0,1-.07.2,6.72,6.72,0,0,1,1.55,1.91l.33.54h0L23,91a12.66,12.66,0,0,1,.88,4.83l.45.06A7.25,7.25,0,0,0,23,90.36Z"/><polygon class="cls-5" points="52.33 25.85 54.54 28.02 66.93 28.02 66.93 23.68 54.54 23.68 52.33 25.85"/><polygon class="cls-5" points="52.35 32.09 54.66 34.15 67.04 33.53 66.82 29.2 54.44 29.81 52.35 32.09"/><polygon class="cls-5" points="82.14 29.18 79.77 31.17 67.41 30.18 67.76 25.85 80.12 26.84 82.14 29.18"/><polygon class="cls-6" points="65.53 77.75 68.88 77.75 68.1 21.81 66.31 21.81 65.53 77.75"/><path class="cls-5" d="M142.2,58.14a8.06,8.06,0,0,1-.39,3,7.77,7.77,0,0,1-.58,1.32,3.62,3.62,0,0,0-.57,1.69c.06,0-.14,0-.15,0-1.56-1.06-3.65-1.39-4.8-3a5.25,5.25,0,0,1-.84-2.64,7.8,7.8,0,0,1,.29-3.08,3.14,3.14,0,0,1,1.65-1.93,3.71,3.71,0,0,1,2.72.09C141.32,54.3,142.08,56.35,142.2,58.14Z"/><path class="cls-6" d="M142.11,70.35l-.51-2.29c-.34-1.49-.69-3-1.1-4.46-.24-.88-.51-1.76-.79-2.63.1-.52.17-1,.32-1.57s.44-1.22.67-1.83c0,0,0-.06-.07,0a8.43,8.43,0,0,0-1.09,2.91c-.32-1-.68-2-1.07-2.93a12.33,12.33,0,0,1,.26-2.34s0,0-.06,0a8.94,8.94,0,0,0-.32,2.07c-.3-.73-.62-1.44-1-2.15,0-.06-.12,0-.09.05.52,1.24,1,2.49,1.44,3.76a7.93,7.93,0,0,0-2.45-1.68,0,0,0,0,0,0,.06,9.39,9.39,0,0,1,2.64,2c.32.93.61,1.87.89,2.81a8.55,8.55,0,0,0-3.63-2.32c-.05,0-.06,0,0,.07a10.41,10.41,0,0,1,3.8,2.75l.33,1.14c.39,1.44.76,2.89,1.12,4.35.16.7.33,1.4.49,2.1s.29,1.54.53,2.28c0,.07.15.06.14,0A21.7,21.7,0,0,0,142.11,70.35Z"/><path class="cls-6" d="M140.43,56.56a4.06,4.06,0,0,0-.7,1.43s0,0,0,0a11.73,11.73,0,0,1,.75-1.4C140.53,56.55,140.46,56.52,140.43,56.56Z"/><path class="cls-6" d="M137.24,59.75a4.33,4.33,0,0,0-1.43-.61s0,0,0,0c.23.12.47.21.7.32s.46.24.7.34A0,0,0,1,0,137.24,59.75Z"/><path class="cls-6" d="M136.73,55.58a2.89,2.89,0,0,0-.45-.33s-.05,0,0,0a3.12,3.12,0,0,0,.45.34S136.76,55.6,136.73,55.58Z"/><path class="cls-5" d="M147.6,60.77c-1.16.43-2.33.83-3.49,1.25-.1,0-2.34-3.67-1.74-5.69a6.49,6.49,0,0,1,3.79-4.07,5.44,5.44,0,0,1,2.75-.5,2.33,2.33,0,0,1,1.71,1.47,6.66,6.66,0,0,1,.24,3.26,5.59,5.59,0,0,1-1,2.73A4.64,4.64,0,0,1,147.6,60.77Z"/><path class="cls-6" d="M149.09,57a17.15,17.15,0,0,1-2.26,1,10.74,10.74,0,0,0-1.52.66c.43-1.15.91-2.27,1.43-3.39a5.15,5.15,0,0,0,2.07-1.24,0,0,0,1,0,0,0,11.26,11.26,0,0,1-2,1.14l.42-.9c0-.09-.07-.16-.12-.08a23.82,23.82,0,0,0-1.51,2.93,13.15,13.15,0,0,1-.28-2.58,0,0,0,1,0,0,0,8.49,8.49,0,0,0,.2,2.84c-.36.85-.69,1.72-1,2.6-.17-.5-.38-1-.53-1.51a7.28,7.28,0,0,1-.31-2.27,0,0,0,1,0,0,0,8.07,8.07,0,0,0,.75,4.15c-.16.53-.32,1.06-.46,1.59a31,31,0,0,0-1.06,8.3c0,.07.09.07.1,0a40.75,40.75,0,0,1,1.26-8.22c.28-1.05.61-2.07,1-3.08.69-.25,1.37-.58,2-.86a6.49,6.49,0,0,0,1.86-1.06S149.11,57,149.09,57Z"/><path class="cls-6" d="M150.12,55.84c-.7.31-1.37.71-2.07,1,0,0,0,.06,0,0a4.8,4.8,0,0,0,2.08-1S150.15,55.83,150.12,55.84Z"/><path class="cls-6" d="M144.12,54.65s-.05-.06-.06,0a3.74,3.74,0,0,0,0,2.07s.06,0,.06,0A11.58,11.58,0,0,1,144.12,54.65Z"/><path class="cls-6" d="M147,52.92a1.8,1.8,0,0,0-.24,1.16,0,0,0,0,0,0,0c.06-.38.19-.74.28-1.12C147.12,52.91,147,52.88,147,52.92Z"/><path class="cls-5" d="M151,62.93c-.14,1.15-.69,2.8-2,3-.84.16-1.69.21-2.53.35s-1.8.3-2.68.52a5.12,5.12,0,0,1,1.55-4.4,6.54,6.54,0,0,1,1.91-1,9.65,9.65,0,0,1,2.34-.68c.5-.06.93,0,1.2.44A2.82,2.82,0,0,1,151,62.93Z"/><path class="cls-6" d="M149.83,61.74c-.5.23-1,.48-1.5.74.12-.17.23-.34.36-.5s.41-.42.62-.63c0,0,0-.05,0,0a3,3,0,0,0-1.09,1.24c-.62.33-1.22.67-1.8,1a7.44,7.44,0,0,0-1.12.87,5.08,5.08,0,0,1,.31-.85,4.42,4.42,0,0,1,.9-1,0,0,0,0,0-.05,0,3.12,3.12,0,0,0-1.35,2.12,6.79,6.79,0,0,0-1,1.33,9.54,9.54,0,0,0-1.48,6.42s.09,0,.09,0a12.53,12.53,0,0,1,1.67-6.32l.26-.39a9,9,0,0,1,1.16-.3c.46-.08.92-.1,1.38-.14a4.09,4.09,0,0,0,2.21-.71s0-.07,0-.06c-1.41.82-3.12.41-4.57,1a7.07,7.07,0,0,1,2-1.84l.13-.08a7,7,0,0,0,3-.47,0,0,0,0,0,0-.05,8.58,8.58,0,0,1-2.71.38c.91-.56,1.86-1,2.78-1.59C149.92,61.78,149.91,61.7,149.83,61.74Z"/><path class="cls-6" d="M150.42,62.62A13.51,13.51,0,0,1,149,63s0,0,0,0a2.89,2.89,0,0,0,1.41-.35S150.45,62.61,150.42,62.62Z"/><path class="cls-6" d="M147.07,62.26a2.36,2.36,0,0,0-.61.61s0,.06,0,0,.21-.21.32-.31a2,2,0,0,0,.3-.28S147.11,62.24,147.07,62.26Z"/><path class="cls-5" d="M139.58,66.24s0,.07-.06,0h0a.05.05,0,0,1,0,0,24,24,0,0,1-2.67.47,3.45,3.45,0,0,1-2.19-.32,2.73,2.73,0,0,1-1-3c.54-1.15,2.2-.53,3-.12A6.07,6.07,0,0,1,139.58,66.24Z"/><path class="cls-6" d="M140.22,66.77a8.91,8.91,0,0,0-1.6-1.22A5.63,5.63,0,0,0,137,63.9s-.06,0,0,.06a7.08,7.08,0,0,1,1.36,1.43,14.43,14.43,0,0,0-2-.91,2.67,2.67,0,0,0-1.08-1.08s0,0,0,0a4.27,4.27,0,0,1,1,1c-.4-.16-.81-.3-1.22-.43a0,0,0,1,0,0,0c.73.29,1.48.59,2.2.94a8.48,8.48,0,0,1-2.66,0s0,0,0,0a5.33,5.33,0,0,0,2.83,0,12.46,12.46,0,0,1,1.34.75,3.32,3.32,0,0,0-1.08.09,8.15,8.15,0,0,1-1.9.22s0,0,0,0c1.1.19,2.15-.31,3.25-.18a9.09,9.09,0,0,1,1.14.93,8.28,8.28,0,0,1,1.66,2.35c.46.94.71,1.93,1.08,2.9,0,0,.08,0,.07,0A10.21,10.21,0,0,0,140.22,66.77Z"/><path class="cls-6" d="M136.88,64.14a1.13,1.13,0,0,0-.28-.34.88.88,0,0,0-.33-.24s0,0,0,0,.22.17.32.27.18.22.28.31S136.89,64.16,136.88,64.14Z"/><path class="cls-6" d="M135.06,64.74c-.16,0-.34,0-.5-.07s-.33-.1-.49-.15,0,0,0,0a1.64,1.64,0,0,0,1,.23S135.09,64.74,135.06,64.74Z"/><polygon class="cls-7" points="145.47 68.79 145.29 70.84 144.68 77.75 139.27 77.75 138.5 70.84 138.28 68.79 145.47 68.79"/><polygon class="cls-8" points="145.47 68.79 145.29 70.84 138.5 70.84 138.28 68.79 145.47 68.79"/><rect class="cls-7" x="137.74" y="68.23" width="8.27" height="1.66"/><path class="cls-5" d="M145.28,16.67H119.89s2.52-6.88,6.39-6.88,5.09,4.75,5.09,4.75S134,12,136.13,12s4,3.41,4,3.41A3.73,3.73,0,0,1,145.28,16.67Z"/><path class="cls-5" d="M100.73,7.11H88.86s2.65-3.84,4.74-3.84,2.71,2.56,2.71,2.56a4.37,4.37,0,0,1,2.84-1C100.51,5.06,100.73,7.11,100.73,7.11Z"/><path class="cls-5" d="M88.37,11.59H65.25s3.17-7.07,6.55-7.51,5,5.25,5,5.25,2.18-2,3.9-2S83.76,10,83.76,10,87.19,8.16,88.37,11.59Z"/><path class="cls-9" d="M49.3,77.75c8.41-.21,16.82-.31,25.22-.39l25.23-.11,25.22.11,12.62.14,12.61.25L137.59,78,125,78.13l-25.22.11-25.23-.11C66.12,78.05,57.71,78,49.3,77.75Z"/><ellipse class="cls-5" cx="68.27" cy="93.02" rx="19.49" ry="2.89"/><ellipse class="cls-5" cx="133.2" cy="93.02" rx="19.49" ry="2.89"/><ellipse class="cls-5" cx="101.4" cy="88.32" rx="25.73" ry="1.89"/><polygon class="cls-10" points="116.21 22.93 130.84 21.02 130.84 80.16 116.21 82.07 116.21 22.93"/><polygon class="cls-9" points="86.95 22.93 101.58 21.02 101.58 80.16 86.95 82.07 86.95 22.93"/><polygon class="cls-9" points="116.21 22.93 101.58 21.02 101.58 80.16 116.21 82.07 116.21 22.93"/><polygon class="cls-10" points="86.96 22.93 72.33 21.02 72.33 80.16 86.96 82.07 86.96 22.93"/><polygon class="cls-6" points="116.21 24.19 129.44 22.48 129.44 78.8 116.21 80.51 116.21 24.19"/><polygon class="cls-6" points="86.96 24.3 101.58 22.48 101.58 78.8 86.96 80.62 86.96 24.3"/><polygon class="cls-5" points="116.21 24.24 101.58 22.53 101.58 78.85 116.21 80.56 116.21 24.24"/><polygon class="cls-5" points="86.96 24.3 73.72 22.48 73.72 78.8 86.96 80.62 86.96 24.3"/><polygon class="cls-11" points="85.41 24.09 84.23 28.13 83.95 29.08 81.03 39.04 80.86 39.44 80.01 39.11 73.72 36.74 73.72 35.68 80.35 38.18 84.51 23.96 85.41 24.09"/><polygon class="cls-11" points="99.08 22.79 98.55 23.11 97.61 23.68 91.78 27.2 90.98 27.68 87.01 30.08 86.95 30.06 83.95 29.08 83.54 28.95 83.79 27.98 84.23 28.13 86.91 29 86.95 28.97 96.7 23.09 96.7 23.08 96.71 23.08 97.69 22.96 98.2 22.9 98.2 22.9 99.08 22.79"/><polygon class="cls-11" points="113.41 23.92 112.65 27.09 112.39 28.16 108.18 45.67 107.95 46.65 107.95 46.66 104.82 45.44 103.74 45 101.57 44.1 101.3 43.99 100.86 43.29 90.98 27.68 90.76 27.32 91.48 26.73 91.78 27.2 96.14 34.1 96.73 35.02 101.87 43.15 107.34 45.34 110.16 33.61 110.41 32.56 112.51 23.81 113.41 23.92"/><polygon class="cls-11" points="110.84 32.93 110.29 33.73 110.16 33.61 101.58 26.23 101.33 26.01 100.8 25.68 100.02 25.18 97.61 23.68 97.4 23.54 97.69 22.96 98.2 22.9 98.2 22.9 98.55 23.11 101.58 25.02 101.85 25.19 110.41 32.56 110.84 32.93"/><polygon class="cls-11" points="129.44 36.82 129.44 37.91 127.12 36.82 126.28 36.43 115.97 31.59 112.39 28.16 111.81 27.6 112.39 26.84 112.65 27.09 116.45 30.73 129.44 36.82"/><polygon class="cls-11" points="120.85 64.56 119.99 64.32 126.38 36.01 127.24 36.25 120.85 64.56"/><polygon class="cls-11" points="129.44 60.85 129.44 61.9 118.55 65.71 117.68 66.02 117.68 66.02 116.43 66.46 103 79.02 101.76 78.87 106.39 74.54 107.32 73.67 111.4 69.85 112.14 69.16 115.99 65.56 120.03 64.14 121.03 63.79 129.44 60.85"/><polygon class="cls-11" points="116.16 49.84 107.49 46.49 107.78 45.53 116.26 48.82 123.97 48.01 124.06 49.01 116.16 49.84"/><polygon class="cls-11" points="96.61 35.3 95.81 34.85 100.2 24.76 101.01 25.2 96.61 35.3"/><polygon class="cls-11" points="107.52 73.69 107.4 74.69 106.39 74.54 101.4 73.79 86.91 68.73 73.72 70.2 73.72 69.19 82.65 68.2 83.82 68.07 87 67.72 87.09 67.75 95.37 70.63 96.3 70.96 101.6 72.81 107.32 73.67 107.52 73.69"/><polygon class="cls-11" points="76.9 48.56 73.72 55.86 73.72 53.57 80.01 39.11 80.23 38.6 81.03 39.04 80.86 39.44 77.33 47.57 76.9 48.56"/><polygon class="cls-11" points="83.97 68.22 83.35 68.95 82.65 68.2 73.72 58.67 73.72 57.28 80.67 64.7 81.38 65.46 83.82 68.07 83.97 68.22"/><polygon class="cls-11" points="87.01 49.08 76.6 48.54 76.64 47.54 86.9 48.07 101.45 43.09 101.71 44.05 87.01 49.08"/><polygon class="cls-11" points="81.28 65.76 80.44 65.44 85.64 48.29 86.49 48.61 81.28 65.76"/><polygon class="cls-11" points="129.44 53.35 129.44 54.37 123.33 53.6 122.94 53.55 123.04 52.56 123.55 52.62 129.44 53.35"/><polygon class="cls-11" points="111.51 70.17 103.67 44.77 104.51 44.44 112.35 69.85 111.51 70.17"/><polygon class="cls-11" points="95.84 71.54 95.18 70.87 101.3 63.15 108.39 58.78 108.81 59.66 101.86 63.95 95.84 71.54"/><polygon class="cls-11" points="113.41 23.92 112.65 27.09 112.39 28.16 108.18 45.67 107.95 46.65 107.95 46.66 104.82 45.44 103.74 45 101.57 44.1 101.3 43.99 100.86 43.29 90.98 27.68 90.76 27.32 91.48 26.73 91.78 27.2 96.14 34.1 96.73 35.02 101.87 43.15 107.34 45.34 110.16 33.61 110.41 32.56 112.51 23.81 113.41 23.92"/><polygon class="cls-11" points="116.16 49.84 107.49 46.49 107.78 45.53 116.26 48.82 123.97 48.01 124.06 49.01 116.16 49.84"/><polygon class="cls-11" points="107.52 73.7 107.4 74.69 106.39 74.54 101.4 73.79 95.67 71.79 95.66 71.79 89.82 69.75 86.91 68.73 73.72 70.2 73.72 69.19 82.65 68.2 83.82 68.07 87 67.72 87.09 67.75 89.82 68.7 95.37 70.64 96.3 70.96 96.3 70.96 96.32 70.97 101.6 72.81 107.32 73.67 107.52 73.7"/><polygon class="cls-11" points="112.35 69.85 111.51 70.17 108.35 59.95 108.35 59.95 108.05 58.98 103.74 45 103.74 45 103.67 44.77 103.77 44.73 104.51 44.44 104.82 45.44 109.14 59.46 112.35 69.85"/><polygon class="cls-11" points="108.81 59.66 108.81 59.66 108.35 59.95 101.86 63.95 96.3 70.96 95.84 71.54 95.18 70.88 95.37 70.64 101.3 63.15 108.05 58.98 108.38 58.78 108.81 59.66"/><polygon class="cls-11" points="124.82 79.4 123.87 79.52 117.68 66.02 117.68 66.02 117.51 65.64 118.3 65.18 118.55 65.71 124.82 79.4"/><polygon class="cls-5" points="90.7 45.16 98.3 42.56 93.33 34.71 89.16 36.11 90.7 45.16"/><polygon class="cls-5" points="118.33 46.41 122.67 45.96 124.66 37.32 119.98 35.12 118.33 46.41"/><polygon class="cls-5" points="129.44 34.32 119.67 29.97 119.67 23.74 129.44 22.48 129.44 34.32"/><polygon class="cls-5" points="88.1 30.91 90.54 29.45 92.71 32.9 88.83 34.23 88.1 30.91"/><polygon class="cls-6" points="103.98 64.73 107.95 62.28 110.07 69.17 107.23 71.82 103.98 71.33 103.98 64.73"/><polygon class="cls-6" points="103.73 24.62 103.73 22.77 111.61 23.7 110.08 30.08 103.73 24.62"/><polygon class="cls-6" points="75.2 56.19 80.26 61.59 83.53 50.78 77.67 50.48 75.2 56.19"/><polygon class="cls-6" points="75.12 34.49 75.12 25.7 82.26 26.72 79.5 36.14 75.12 34.49"/><polygon class="cls-6" points="75.12 24.62 82.26 25.64 82.83 23.73 75.12 22.67 75.12 24.62"/><polygon class="cls-5" points="88.45 79.13 88.45 70.89 93.69 72.73 93.69 78.47 88.45 79.13"/><polygon class="cls-6" points="74.84 71.53 78.91 71.08 78.91 78.3 74.84 77.74 74.84 71.53"/><polygon class="cls-5" points="126.09 77.57 121.55 67.65 129.44 64.89 129.44 77.13 126.09 77.57"/><polygon class="cls-6" points="115.02 46.38 115.02 41.38 110.49 39.8 109.42 44.26 115.02 46.38"/><path class="cls-9" d="M125.86,45.17a3.18,3.18,0,0,0,.16.32,3.23,3.23,0,0,0,.57.72A6,6,0,0,0,130.93,48a5.65,5.65,0,0,0,1.42-.19,6.26,6.26,0,0,0,2.81-1.57,5.48,5.48,0,0,0,.93-1.22,12.47,12.47,0,0,0,1.45-7.49s0-.1,0-.15a.43.43,0,0,1,0,0v0l0-.19a12.21,12.21,0,0,0-.74-2.78h0c-.13-.33-.27-.64-.42-.94a9.53,9.53,0,0,0-.58-1,3.32,3.32,0,0,0-4.46-.85,4.29,4.29,0,0,0-1.54,2.77c-.06.25-.1.5-.14.75l-.15.92c0,.18-.07.36-.11.53v0a5.09,5.09,0,0,1-1.21,2.74,11.52,11.52,0,0,0-1.91,2.1A4.29,4.29,0,0,0,125.86,45.17Z"/><path class="cls-9" d="M125.23,42.91a4.47,4.47,0,0,1,1.45-2.49A10.81,10.81,0,0,0,128,39.11a6.31,6.31,0,0,0,.84-1.58c.5-1.33.69-2.76,1.21-4.09,0,0,0,0,0,0-.71,2-.77,4.41-2.26,6.09a11.17,11.17,0,0,0-2.08,2.37,3.15,3.15,0,0,0,0,3,4.25,4.25,0,0,0,2.6,1.79s0,.07,0,.06C126.48,46.36,124.91,44.88,125.23,42.91Z"/><path class="cls-9" d="M129.85,47.84c.33.06.67.11,1,.14a6.45,6.45,0,0,0,3.21-.53,5.13,5.13,0,0,0,.87-.55,6.23,6.23,0,0,0,1.77-2.35,11.81,11.81,0,0,0,.93-3.67,14.72,14.72,0,0,0-.12-3.75c-.08-.46-.18-.91-.3-1.36a13.22,13.22,0,0,0-1-2.58s0,0,0,0a1.11,1.11,0,0,1,.07.16l.21.45a14.26,14.26,0,0,1,.95,3.27l0,.19v.07a2.34,2.34,0,0,1,0,.26,12.55,12.55,0,0,1-1.13,7.3l-.11.2a5.32,5.32,0,0,1-2.65,2.37,4.83,4.83,0,0,1-1.33.3,15.05,15.05,0,0,1-2.42,0A0,0,0,0,0,129.85,47.84Z"/><path class="cls-9" d="M126.88,39.92a14.68,14.68,0,0,0,1.23-1,3.86,3.86,0,0,0,.88-1.55c.4-1.16.75-2.34,1.08-3.52a0,0,0,0,1,0,0c-.3,1.1-.58,2.21-.94,3.31a5.58,5.58,0,0,1-.6,1.4,4.46,4.46,0,0,1-1,1,7.31,7.31,0,0,0-2.1,2.19,3.52,3.52,0,0,0-.24,3.17s0,0,0,0C124.29,43.06,125.42,41.1,126.88,39.92Z"/><path class="cls-12" d="M135.68,38.52c1.33.78,6.25,5.7,6.56,8.67.34,3.31-1.52,8.27-1.91,8.8-.52.69-4.74-.85-4.64-1.92.11-1.33,1.8-5.77,1.66-6.56a63.1,63.1,0,0,0-3.1-7.85C133.59,38.18,134.66,37.91,135.68,38.52Z"/><path class="cls-12" d="M140.33,56a36.43,36.43,0,0,1-1.21,3.76c-.35.66-1.51,2.5-2.05,2.28s-.24-.78-.24-.78-.61.7-1.13.43,0-1.13,0-1.13-.68.67-1.18.36.13-1.09.13-1.09-.59.64-.89.22.85-1.58,1.19-2.34c.07-.18,1.29-3.63,1.29-3.63Z"/><path class="cls-9" d="M134.68,59.91a4.13,4.13,0,0,0,1.49-2.41s0,0,0,0a3.1,3.1,0,0,1-1.5,2.45C134.66,60,134.63,60,134.68,59.91Z"/><path class="cls-9" d="M135.7,60.63A6.28,6.28,0,0,0,137.29,58s0,0,0,0a4.32,4.32,0,0,1-1.57,2.62S135.66,60.67,135.7,60.63Z"/><path class="cls-9" d="M137,61.21a5.63,5.63,0,0,0,1.39-2.68,0,0,0,0,1,.05,0A4,4,0,0,1,137,61.23C136.93,61.28,136.91,61.27,137,61.21Z"/><path class="cls-12" d="M135.87,53.17a14,14,0,0,0-1.31,1.71c-.33.59-.73,3.24-.16,3.36.73.15,1.26-1.33,1.43-2.09,0,0,1.69.36,2.3-.62S135.87,53.17,135.87,53.17Z"/><path class="cls-9" d="M134.61,58.21c.77-.34.92-1.35,1.14-2.07a.07.07,0,0,1,.11,0,2.76,2.76,0,0,0,2.28-.53,0,0,0,0,1,0,0,2.3,2.3,0,0,1-2.28.66c-.21.75-.41,1.75-1.27,2Z"/><path class="cls-13" d="M142.41,49.15a30.39,30.39,0,0,1-.9,5.09l-5.82-2.06a43.21,43.21,0,0,0,1.52-4.39c0-.9-1.19-3.78-2.48-6.53-1-2.24-1.07-3.53.29-3.08a5.16,5.16,0,0,1,1.19.61c2.51,1.6,5.45,5.58,6.07,8A7.87,7.87,0,0,1,142.41,49.15Z"/><path class="cls-11" d="M135.52,40.14a.1.1,0,0,1-.1.11.11.11,0,0,1-.11-.11.1.1,0,0,1,.11-.1A.09.09,0,0,1,135.52,40.14Z"/><path class="cls-11" d="M137.34,40.14a.1.1,0,0,1-.1.11.11.11,0,0,1-.11-.11.1.1,0,0,1,.11-.1A.09.09,0,0,1,137.34,40.14Z"/><path class="cls-11" d="M134.62,38.79a.11.11,0,0,1-.11.11.1.1,0,0,1-.1-.11.1.1,0,0,1,.1-.1A.11.11,0,0,1,134.62,38.79Z"/><path class="cls-11" d="M137.34,42.87a.09.09,0,0,1-.1.1.1.1,0,0,1-.11-.1.11.11,0,0,1,.11-.11A.1.1,0,0,1,137.34,42.87Z"/><path class="cls-11" d="M139.16,42.87a.1.1,0,0,1-.11.1.1.1,0,0,1-.1-.1.11.11,0,0,1,.1-.11A.11.11,0,0,1,139.16,42.87Z"/><path class="cls-11" d="M136.43,41.52a.1.1,0,0,1-.1.11.11.11,0,0,1-.11-.11.1.1,0,0,1,.11-.1A.09.09,0,0,1,136.43,41.52Z"/><path class="cls-11" d="M138.25,41.52a.11.11,0,0,1-.1.11.11.11,0,0,1-.11-.11.1.1,0,0,1,.11-.1A.1.1,0,0,1,138.25,41.52Z"/><circle class="cls-11" cx="137.24" cy="45.6" r="0.11"/><path class="cls-11" d="M139.16,45.6a.11.11,0,0,1-.11.1.11.11,0,0,1-.1-.1.11.11,0,0,1,.1-.11A.11.11,0,0,1,139.16,45.6Z"/><path class="cls-11" d="M141,45.6a.11.11,0,0,1-.11.1.1.1,0,0,1-.1-.1.1.1,0,0,1,.1-.11A.11.11,0,0,1,141,45.6Z"/><path class="cls-11" d="M136.43,44.25a.1.1,0,0,1-.1.1.11.11,0,0,1-.11-.1.11.11,0,0,1,.11-.11A.1.1,0,0,1,136.43,44.25Z"/><path class="cls-11" d="M138.25,44.25a.11.11,0,0,1-.1.1.11.11,0,0,1-.11-.1.11.11,0,0,1,.11-.11A.11.11,0,0,1,138.25,44.25Z"/><path class="cls-11" d="M140.07,44.25a.11.11,0,0,1-.11.1.11.11,0,0,1-.1-.1.11.11,0,0,1,.1-.11A.11.11,0,0,1,140.07,44.25Z"/><circle class="cls-11" cx="137.24" cy="48.32" r="0.11"/><path class="cls-11" d="M139.16,48.32a.11.11,0,0,1-.11.11.11.11,0,0,1-.1-.11.1.1,0,0,1,.1-.1A.1.1,0,0,1,139.16,48.32Z"/><path class="cls-11" d="M141,48.32a.11.11,0,0,1-.11.11.1.1,0,0,1-.1-.11.09.09,0,0,1,.1-.1A.1.1,0,0,1,141,48.32Z"/><path class="cls-11" d="M138.25,47a.11.11,0,0,1-.1.11A.11.11,0,0,1,138,47a.11.11,0,0,1,.11-.1A.11.11,0,0,1,138.25,47Z"/><path class="cls-11" d="M140.07,47a.11.11,0,0,1-.11.11.11.11,0,0,1-.1-.11.11.11,0,0,1,.1-.1A.11.11,0,0,1,140.07,47Z"/><path class="cls-11" d="M141.89,47a.11.11,0,0,1-.11.11.1.1,0,0,1-.1-.11.1.1,0,0,1,.1-.1A.11.11,0,0,1,141.89,47Z"/><path class="cls-11" d="M137.34,51.05a.09.09,0,0,1-.1.1.1.1,0,0,1-.11-.1.11.11,0,0,1,.11-.11A.1.1,0,0,1,137.34,51.05Z"/><path class="cls-11" d="M139.16,51.05a.1.1,0,0,1-.11.1.1.1,0,0,1-.1-.1.11.11,0,0,1,.1-.11A.11.11,0,0,1,139.16,51.05Z"/><path class="cls-11" d="M141,51.05a.1.1,0,0,1-.11.1.09.09,0,0,1-.1-.1.1.1,0,0,1,.1-.11A.11.11,0,0,1,141,51.05Z"/><path class="cls-11" d="M138.25,49.7a.11.11,0,0,1-.1.11.11.11,0,1,1,0-.22A.11.11,0,0,1,138.25,49.7Z"/><path class="cls-11" d="M140.07,49.7a.11.11,0,0,1-.11.11.11.11,0,0,1,0-.22A.11.11,0,0,1,140.07,49.7Z"/><path class="cls-11" d="M141.89,49.7a.11.11,0,0,1-.11.11.11.11,0,0,1,0-.22A.11.11,0,0,1,141.89,49.7Z"/><path class="cls-11" d="M141,53.78a.11.11,0,0,1-.11.1.1.1,0,0,1-.1-.1.1.1,0,0,1,.1-.11A.11.11,0,0,1,141,53.78Z"/><path class="cls-11" d="M138.25,52.43a.11.11,0,0,1-.1.1.11.11,0,0,1-.11-.1.11.11,0,0,1,.11-.11A.11.11,0,0,1,138.25,52.43Z"/><path class="cls-11" d="M140.07,52.43a.11.11,0,0,1-.11.1.11.11,0,0,1-.1-.1.11.11,0,0,1,.1-.11A.11.11,0,0,1,140.07,52.43Z"/><path class="cls-11" d="M141.89,52.43a.11.11,0,0,1-.11.1.1.1,0,0,1-.1-.1.1.1,0,0,1,.1-.11A.11.11,0,0,1,141.89,52.43Z"/><path class="cls-9" d="M142.41,49.15a30.39,30.39,0,0,1-.9,5.09l-5.82-2.06a43.21,43.21,0,0,0,1.52-4.39c0-.9-1.19-3.78-2.48-6.53-1-2.24-1.07-3.53.29-3.08Z"/><path class="cls-12" d="M134.41,38.4c0,.19-.83,1.43-1.67,1.45-.28,0-.36-1.49-.36-1.49l0-.11-.44-1.52,1.74-1.28.25-.17.2,1,0,.07s0,.06,0,.09,0,.16.05.24l0,.18a1.42,1.42,0,0,1,0,.2A10.05,10.05,0,0,1,134.41,38.4Z"/><path class="cls-9" d="M134.1,36.24a3.17,3.17,0,0,1-1.75,2l-.44-1.52,1.74-1.28.25-.17Z"/><path class="cls-12" d="M129.9,34.07c-.65,2.7.89,3.42,1.48,3.53s2.35.49,3.27-2.13-.13-3.78-1.32-4.13S130.54,31.36,129.9,34.07Z"/><path class="cls-9" d="M130.12,33.62l.19,0c.08,0,.14,0,.2-.05a.11.11,0,0,0,0-.12.24.24,0,0,0-.23-.09.35.35,0,0,0-.24.1A.11.11,0,0,0,130.12,33.62Z"/><path class="cls-9" d="M131.9,33.88l-.19-.06a.27.27,0,0,1-.17-.1.09.09,0,0,1,0-.12.27.27,0,0,1,.25,0,.39.39,0,0,1,.21.15A.11.11,0,0,1,131.9,33.88Z"/><path class="cls-9" d="M131.38,34.54s0,0,0,0c0,.18,0,.4.12.49s0,0,0,0C131.31,35,131.32,34.71,131.38,34.54Z"/><path class="cls-9" d="M131.58,34.37c.3,0,.24.63-.05.61S131.32,34.35,131.58,34.37Z"/><path class="cls-9" d="M131.69,34.41c.05,0,.1.11.16.12s.14,0,.19-.1h0c0,.12-.07.23-.19.24s-.19-.11-.21-.23S131.67,34.4,131.69,34.41Z"/><path class="cls-9" d="M130.4,34.35v0c0,.18-.06.4-.24.44,0,0,0,0,0,0C130.36,34.82,130.42,34.53,130.4,34.35Z"/><path class="cls-9" d="M130.25,34.14c-.3-.06-.38.55-.1.6S130.51,34.18,130.25,34.14Z"/><path class="cls-9" d="M130.12,34.16c-.05,0-.11.08-.16.07s-.11-.08-.14-.14,0,0,0,0,0,.24.11.28.18,0,.23-.17S130.14,34.15,130.12,34.16Z"/><path class="cls-9" d="M131.31,36c0,.05-.08.12-.15.13a.45.45,0,0,1-.2,0h0a.26.26,0,0,0,.25.06c.09,0,.12-.1.12-.19Z"/><path class="cls-9" d="M130.54,35.24a3.65,3.65,0,0,0-.08.41s0,0,.07,0h0a.61.61,0,0,0,.64-.16s0,0,0,0a1,1,0,0,1-.6.1s.14-.47.12-.48a1.2,1.2,0,0,0-.31,0c.14-.58.36-1.14.49-1.72a0,0,0,0,0,0,0,10.77,10.77,0,0,0-.6,1.82C130.2,35.33,130.49,35.26,130.54,35.24Z"/><path class="cls-9" d="M130.55,35.61a.77.77,0,0,0,.25.3A.36.36,0,0,0,131,36c.16,0,.19-.14.19-.27a.68.68,0,0,0,0-.19A1,1,0,0,1,130.55,35.61Z"/><path class="cls-14" d="M130.8,35.91A.36.36,0,0,0,131,36c.16,0,.19-.14.19-.27A.37.37,0,0,0,130.8,35.91Z"/><path class="cls-9" d="M134.61,35.38c-.3-.06-1-1-.79-2.46a11,11,0,0,0,0,1.53,2.68,2.68,0,0,1-.24-1.71,4.9,4.9,0,0,1-1.29.46,1.84,1.84,0,0,1-.95,0s.82-.18,1.07-.41a9.75,9.75,0,0,1-2.25.44,2.45,2.45,0,0,1,1.2-2.17c1.15-.54,2.7.43,3.09.93a1.93,1.93,0,0,1,1,1C135.89,33.82,134.93,35.44,134.61,35.38Z"/><path class="cls-10" d="M144.42,84.42l-4.36.87-2.86.57s-2.93-12-3.43-17.16c-.47-4.91-1.16-12.66-.24-19.71h5.53a9.89,9.89,0,0,1,1.55,8.37,70.26,70.26,0,0,0,.83,10.69C142,71.81,144.42,84.42,144.42,84.42Z"/><path class="cls-9" d="M140.06,85.29l-2.86.57s-2.93-12-3.43-17.16c-.47-4.91-1.16-12.66-.24-19.71h1.95C136.41,55.67,139.05,78,140.06,85.29Z"/><path class="cls-5" d="M144.56,85.45c.07.45.14.9.2,1.33,0,.27.08.53.11.79a11.11,11.11,0,0,1,.23,3c-.39.35-11.67,2.33-12.09,2.27s-.27-1.26.11-1.69c.23-.25,1.79-1.35,3-2.17h0l1.38-.94-.27-1.32-1.21-6,7.55-1.3S144.11,82.51,144.56,85.45Z"/><path class="cls-9" d="M136.48,87.7a2.67,2.67,0,0,1,2.26-.49s0,.05,0,.06a10.57,10.57,0,0,0-2.21.51A0,0,0,0,1,136.48,87.7Z"/><path class="cls-9" d="M136.37,87.08a2.69,2.69,0,0,1,2.27-.49s0,.06,0,.06a10.6,10.6,0,0,0-2.21.52A.05.05,0,0,1,136.37,87.08Z"/><path class="cls-9" d="M136.26,86.46a2.69,2.69,0,0,1,2.27-.48s0,0,0,0a10.45,10.45,0,0,0-2.21.52A.05.05,0,0,1,136.26,86.46Z"/><path class="cls-9" d="M136.16,85.85a2.64,2.64,0,0,1,2.26-.49,0,0,0,0,1,0,0,10.6,10.6,0,0,0-2.21.52A0,0,0,0,1,136.16,85.85Z"/><path class="cls-9" d="M136.05,85.23a2.69,2.69,0,0,1,2.27-.49s0,.05,0,.05a11.2,11.2,0,0,0-2.22.52C136,85.33,136,85.26,136.05,85.23Z"/><path class="cls-13" d="M145.2,90.62c-.27.38-6,1.39-9.59,1.95a27.39,27.39,0,0,1-3,.37c-.23-.12-.21-1.31.51-2.19a27,27,0,0,1,3.37-2.51l.48-.32-.81-3.82-.18-.83-.18-.85c.24,0,8.24-1.43,8.24-1.43s0,.34.14.89c0,.24.09.52.14.83C144.77,85.37,145.48,90.22,145.2,90.62Z"/><rect class="cls-9" x="132.4" y="91.69" width="13.09" height="0.73" transform="translate(-13.62 24.95) rotate(-9.78)"/><path class="cls-15" d="M144.36,82.71,136.2,84.1l-.18-.83,8.2-1.39C144.26,82.12,144.31,82.4,144.36,82.71Z"/><path class="cls-9" d="M136.53,88.24l-.92,4.33a27.39,27.39,0,0,1-3,.37c-.23-.12-.21-1.31.51-2.19A27,27,0,0,1,136.53,88.24Z"/><path class="cls-10" d="M136.38,57.11s-1,7.37-1.36,11.08c-.1.92-.2,11.35-.2,13.64v5.28h-7.49a1.66,1.66,0,0,1,0-.21v-.26c0-.1,0-.22,0-.36V86c0-.63,0-1.5,0-2.52,0-.52,0-1.08,0-1.67-.06-4.53,1.53-29,3.08-32.84h8A9,9,0,0,1,136.38,57.11Z"/><path class="cls-9" d="M139,55.4l-1.79,1-.89.48c-.3.16-.62.3-.92.47,0,0,0,0,0,0a6.21,6.21,0,0,0,1-.34,9.72,9.72,0,0,0,.92-.44A7.63,7.63,0,0,0,139,55.43S139,55.39,139,55.4Z"/><path class="cls-9" d="M131.7,49.17a62.94,62.94,0,0,0-1.32,7.1c-.3,2.41-.49,4.84-.71,7.26-.44,4.87-.83,9.76-.94,14.65q-.09,4.11.17,8.22a0,0,0,0,0,0,0c-.14-4.87,0-9.74.32-14.59.16-2.45.36-4.89.57-7.32s.42-4.83.66-7.24a66.32,66.32,0,0,1,1.3-8.06S131.71,49.12,131.7,49.17Z"/><path class="cls-5" d="M134.8,88c0,.46,0,.91,0,1.35l0,.79a10.4,10.4,0,0,1-.29,3c-.43.28-11.89.31-12.3.18s0-1.29.4-1.64A34.39,34.39,0,0,1,125.87,90h0l1.52-.69,0-1.35-.18-6.12h7.67S134.86,85,134.8,88Z"/><path class="cls-9" d="M126.46,88.8a2.68,2.68,0,0,1,2.31-.09s0,.05,0,.05a10.82,10.82,0,0,0-2.27.13S126.41,88.83,126.46,88.8Z"/><path class="cls-9" d="M126.46,88.17a2.68,2.68,0,0,1,2.31-.09s0,0,0,0a10.83,10.83,0,0,0-2.27.14A.05.05,0,0,1,126.46,88.17Z"/><path class="cls-9" d="M126.46,87.55a2.64,2.64,0,0,1,2.31-.1,0,0,0,0,1,0,0,10.83,10.83,0,0,0-2.27.14S126.41,87.57,126.46,87.55Z"/><path class="cls-9" d="M126.46,86.92a2.68,2.68,0,0,1,2.31-.09s0,0,0,0a10.82,10.82,0,0,0-2.27.13S126.41,86.94,126.46,86.92Z"/><path class="cls-9" d="M126.46,86.29a2.68,2.68,0,0,1,2.31-.09s0,0,0,0a10.82,10.82,0,0,0-2.27.13S126.41,86.32,126.46,86.29Z"/><path class="cls-13" d="M135.08,83.49v.84c0,.24,0,.53,0,.85,0,2.67-.16,7.63-.51,8s-12.56.32-12.76.16,0-1.33.86-2.08a37,37,0,0,1,4.28-2.13l-.15-3.93,0-.85,0-.84C127,83.52,135.08,83.49,135.08,83.49Z"/><rect class="cls-9" x="121.61" y="93.15" width="13.09" height="0.73"/><path class="cls-15" d="M135.08,84.33c0,.24,0,.53,0,.85h-8.28l0-.85Z"/><path class="cls-13" d="M129.88,46.08l-.74,4.83,11.52-.08s-2.27-9.19-4.68-12.09a2.5,2.5,0,0,0-3.61.19c-1,1.06-2.83,3.42-3.06,4.74A4,4,0,0,0,129.88,46.08Z"/><path class="cls-11" d="M131.89,40.14a.11.11,0,0,1-.11.11.11.11,0,0,1-.1-.11.1.1,0,0,1,.1-.1A.1.1,0,0,1,131.89,40.14Z"/><path class="cls-11" d="M133.71,40.14a.11.11,0,0,1-.11.11.1.1,0,0,1-.1-.11.09.09,0,0,1,.1-.1A.1.1,0,0,1,133.71,40.14Z"/><path class="cls-11" d="M135.52,40.14a.1.1,0,0,1-.1.11.11.11,0,0,1-.11-.11.1.1,0,0,1,.11-.1A.09.09,0,0,1,135.52,40.14Z"/><path class="cls-11" d="M132.8,38.79a.11.11,0,0,1-.11.11.1.1,0,0,1-.1-.11.1.1,0,0,1,.1-.1A.11.11,0,0,1,132.8,38.79Z"/><path class="cls-11" d="M134.62,38.79a.11.11,0,0,1-.11.11.1.1,0,0,1-.1-.11.1.1,0,0,1,.1-.1A.11.11,0,0,1,134.62,38.79Z"/><path class="cls-11" d="M130.07,42.87a.1.1,0,0,1-.1.1.1.1,0,0,1-.11-.1.11.11,0,0,1,.11-.11A.11.11,0,0,1,130.07,42.87Z"/><path class="cls-11" d="M131.89,42.87a.1.1,0,0,1-.11.1.1.1,0,0,1-.1-.1.11.11,0,0,1,.1-.11A.11.11,0,0,1,131.89,42.87Z"/><path class="cls-11" d="M133.71,42.87a.1.1,0,0,1-.11.1.09.09,0,0,1-.1-.1.1.1,0,0,1,.1-.11A.11.11,0,0,1,133.71,42.87Z"/><path class="cls-11" d="M135.52,42.87a.09.09,0,0,1-.1.1.1.1,0,0,1-.11-.1.11.11,0,0,1,.11-.11A.1.1,0,0,1,135.52,42.87Z"/><path class="cls-11" d="M137.34,42.87a.09.09,0,0,1-.1.1.1.1,0,0,1-.11-.1.11.11,0,0,1,.11-.11A.1.1,0,0,1,137.34,42.87Z"/><path class="cls-11" d="M131,41.52a.11.11,0,0,1-.11.11.11.11,0,0,1-.1-.11.1.1,0,0,1,.1-.1A.1.1,0,0,1,131,41.52Z"/><path class="cls-11" d="M132.8,41.52a.11.11,0,0,1-.11.11.1.1,0,0,1-.1-.11.09.09,0,0,1,.1-.1A.1.1,0,0,1,132.8,41.52Z"/><path class="cls-11" d="M134.62,41.52a.11.11,0,0,1-.11.11.1.1,0,0,1-.1-.11.09.09,0,0,1,.1-.1A.1.1,0,0,1,134.62,41.52Z"/><path class="cls-11" d="M136.43,41.52a.1.1,0,0,1-.1.11.11.11,0,0,1-.11-.11.1.1,0,0,1,.11-.1A.09.09,0,0,1,136.43,41.52Z"/><path class="cls-11" d="M130.07,45.6a.11.11,0,0,1-.1.1.11.11,0,0,1-.11-.1.11.11,0,0,1,.11-.11A.11.11,0,0,1,130.07,45.6Z"/><path class="cls-11" d="M131.89,45.6a.11.11,0,0,1-.11.1.11.11,0,0,1-.1-.1.11.11,0,0,1,.1-.11A.11.11,0,0,1,131.89,45.6Z"/><circle class="cls-11" cx="133.6" cy="45.6" r="0.11"/><path class="cls-11" d="M135.52,45.6a.1.1,0,0,1-.1.1.11.11,0,0,1-.11-.1.11.11,0,0,1,.11-.11A.1.1,0,0,1,135.52,45.6Z"/><circle class="cls-11" cx="137.24" cy="45.6" r="0.11"/><path class="cls-11" d="M139.16,45.6a.11.11,0,0,1-.11.1.11.11,0,0,1-.1-.1.11.11,0,0,1,.1-.11A.11.11,0,0,1,139.16,45.6Z"/><path class="cls-11" d="M131,44.25a.11.11,0,0,1-.11.1.11.11,0,0,1-.1-.1.11.11,0,0,1,.1-.11A.11.11,0,0,1,131,44.25Z"/><path class="cls-11" d="M132.8,44.25a.11.11,0,0,1-.11.1.1.1,0,0,1-.1-.1.1.1,0,0,1,.1-.11A.11.11,0,0,1,132.8,44.25Z"/><path class="cls-11" d="M134.62,44.25a.11.11,0,0,1-.11.1.1.1,0,0,1-.1-.1.1.1,0,0,1,.1-.11A.11.11,0,0,1,134.62,44.25Z"/><path class="cls-11" d="M136.43,44.25a.1.1,0,0,1-.1.1.11.11,0,0,1-.11-.1.11.11,0,0,1,.11-.11A.1.1,0,0,1,136.43,44.25Z"/><path class="cls-11" d="M138.25,44.25a.11.11,0,0,1-.1.1.11.11,0,0,1-.11-.1.11.11,0,0,1,.11-.11A.11.11,0,0,1,138.25,44.25Z"/><path class="cls-11" d="M130.07,48.32a.11.11,0,0,1-.1.11.11.11,0,0,1-.11-.11.1.1,0,0,1,.11-.1A.1.1,0,0,1,130.07,48.32Z"/><path class="cls-11" d="M131.89,48.32a.11.11,0,0,1-.11.11.11.11,0,0,1-.1-.11.1.1,0,0,1,.1-.1A.1.1,0,0,1,131.89,48.32Z"/><circle class="cls-11" cx="133.6" cy="48.32" r="0.11"/><path class="cls-11" d="M135.52,48.32a.1.1,0,0,1-.1.11.11.11,0,0,1-.11-.11.1.1,0,0,1,.11-.1A.09.09,0,0,1,135.52,48.32Z"/><circle class="cls-11" cx="137.24" cy="48.32" r="0.11"/><path class="cls-11" d="M139.16,48.32a.11.11,0,0,1-.11.11.11.11,0,0,1-.1-.11.1.1,0,0,1,.1-.1A.1.1,0,0,1,139.16,48.32Z"/><path class="cls-11" d="M131,47a.11.11,0,0,1-.11.11.11.11,0,0,1-.1-.11.11.11,0,0,1,.1-.1A.11.11,0,0,1,131,47Z"/><path class="cls-11" d="M132.8,47a.11.11,0,0,1-.11.11.1.1,0,0,1-.1-.11.1.1,0,0,1,.1-.1A.11.11,0,0,1,132.8,47Z"/><path class="cls-11" d="M134.62,47a.11.11,0,0,1-.11.11.1.1,0,0,1-.1-.11.1.1,0,0,1,.1-.1A.11.11,0,0,1,134.62,47Z"/><path class="cls-11" d="M136.43,47a.1.1,0,0,1-.1.11.11.11,0,0,1-.11-.11.11.11,0,0,1,.11-.1A.1.1,0,0,1,136.43,47Z"/><path class="cls-11" d="M138.25,47a.11.11,0,0,1-.1.11A.11.11,0,0,1,138,47a.11.11,0,0,1,.11-.1A.11.11,0,0,1,138.25,47Z"/><path class="cls-11" d="M131,49.7a.11.11,0,0,1-.11.11.11.11,0,0,1,0-.22A.11.11,0,0,1,131,49.7Z"/><path class="cls-11" d="M132.8,49.7a.11.11,0,0,1-.11.11.11.11,0,0,1,0-.22A.11.11,0,0,1,132.8,49.7Z"/><path class="cls-11" d="M134.62,49.7a.11.11,0,0,1-.11.11.11.11,0,0,1,0-.22A.11.11,0,0,1,134.62,49.7Z"/><path class="cls-11" d="M136.43,49.7a.1.1,0,0,1-.1.11.11.11,0,1,1,0-.22A.1.1,0,0,1,136.43,49.7Z"/><path class="cls-11" d="M138.25,49.7a.11.11,0,0,1-.1.11.11.11,0,1,1,0-.22A.11.11,0,0,1,138.25,49.7Z"/><path class="cls-11" d="M140.07,49.7a.11.11,0,0,1-.11.11.11.11,0,0,1,0-.22A.11.11,0,0,1,140.07,49.7Z"/><path class="cls-9" d="M140.2,50.17c-.33,0-.67,0-1,0l-1,0-2.06,0c-1.39,0-2.77,0-4.16,0l-1.17,0-1.17.06a0,0,0,1,0,0,0c.36,0,.71,0,1.06,0h3.07l4.13,0H139c.39,0,.78,0,1.17,0A0,0,0,0,0,140.2,50.17Z"/><path class="cls-12" d="M133.9,40.43c-.78,1.27-3.8,4.38-6.07,5-2,.53-6.78-1.48-8.28-2.3-.56-.31,1.08-5.07,1.72-4.83.87.31,5.48,3,6,2.8s4.17-1.81,5-2.22C134.23,37.94,135.07,38.52,133.9,40.43Z"/><path class="cls-12" d="M121.44,38.38s-2.5-1.33-3-1.63a25.62,25.62,0,0,0-5.9-1.68c-.53,0-1.07,1.09,2.49,2.39,0,0-.76,1.56-.3,2.28a9.65,9.65,0,0,0,2.06,2.39c.63.24,2.78,1,2.78,1Z"/><path class="cls-12" d="M117.87,37.8a14.31,14.31,0,0,0-3-.61,1.89,1.89,0,0,0-1.36,1.47c0,.3.46,2.15,1.26,2.09s.21-1.46.22-1.62,0-.38.19-.38S118,39.81,118,39.81Z"/><path class="cls-12" d="M117.65,38.52a14.17,14.17,0,0,0-3-.61,1.87,1.87,0,0,0-1.35,1.47c0,.3.45,2.15,1.25,2.09s.21-1.46.22-1.62,0-.38.19-.38,2.86,1.06,2.86,1.06Z"/><path class="cls-12" d="M117.66,39a14.21,14.21,0,0,0-3.08-.16,1.87,1.87,0,0,0-1.12,1.65c.06.29.76,2.06,1.54,1.88s0-1.47,0-1.64,0-.38.12-.4,3,.63,3,.63Z"/><path class="cls-12" d="M118.09,39.66a7,7,0,0,0-2.37-.23A1.86,1.86,0,0,0,114.48,41c0,.29.62,2.1,1.41,2s.09-1.47.1-1.63,0-.39.15-.39,2.93.83,2.93.83Z"/><path class="cls-9" d="M117.29,37.19a3.31,3.31,0,0,0-1.21-.16,4.88,4.88,0,0,0-.76.07,3.42,3.42,0,0,0-1.08.33s0,0,0,0a5.18,5.18,0,0,1,1.07-.24l.78-.06a9.63,9.63,0,0,1,1.2,0S117.3,37.19,117.29,37.19Z"/><path class="cls-9" d="M117.26,37.9a11.1,11.1,0,0,0-2.08,0,2.46,2.46,0,0,0-1,.29,2.15,2.15,0,0,0-.71.59s0,0,0,0a3.67,3.67,0,0,1,.82-.52,4.05,4.05,0,0,1,1-.25c.79-.07,1.09-.08,1.88-.09C117.26,37.93,117.33,37.91,117.26,37.9Z"/><path class="cls-9" d="M117.13,38.63a13.89,13.89,0,0,0-2.1.19,2,2,0,0,0-1,.44,2.09,2.09,0,0,0-.57.94s0,0,0,0a2.64,2.64,0,0,1,.64-.84,2.27,2.27,0,0,1,1.06-.44,11.91,11.91,0,0,1,2-.24C117.25,38.69,117.23,38.63,117.13,38.63Z"/><path class="cls-9" d="M116.92,39.4c-.26.05-1,.19-1.23.26a1.64,1.64,0,0,0-.67.27,1.87,1.87,0,0,0-.39.52,1.45,1.45,0,0,0-.25.62c-.06.5.37.88.6,1.27,0,0,0,0,0,0-.12-.21-.22-.43-.33-.65a1.08,1.08,0,0,1-.12-.68,2,2,0,0,1,.28-.57,1.3,1.3,0,0,1,.43-.47,3.25,3.25,0,0,1,.67-.21l.89-.22C117.3,39.42,117.44,39.3,116.92,39.4Z"/><path class="cls-9" d="M118.23,41.55A4.73,4.73,0,0,1,117,41.4a2.25,2.25,0,0,1-.51-.2,1.59,1.59,0,0,1-.46-.3s0,0,0,0a2.38,2.38,0,0,0,.36.35,2.69,2.69,0,0,1-.7.3s0,0,0,0a.9.9,0,0,0,.23,0,.65.65,0,0,0,.22-.08,1.21,1.21,0,0,0,.3-.2,1.92,1.92,0,0,0,.51.22,3.61,3.61,0,0,0,1.31,0A0,0,0,1,0,118.23,41.55Z"/><path class="cls-13" d="M120.85,37.68l-1.31,6.65s5.92,1.67,8,1.29,5-2.9,6.32-4.94.87-3.11-1.84-1.93a40.51,40.51,0,0,1-4.77,1.86C126.93,40.66,120.85,37.68,120.85,37.68Z"/><path class="cls-11" d="M121,40.14a.1.1,0,0,1-.1.11.11.11,0,0,1-.11-.11.1.1,0,0,1,.11-.1A.09.09,0,0,1,121,40.14Z"/><path class="cls-11" d="M122.8,40.14a.11.11,0,0,1-.11.11.11.11,0,0,1-.1-.11.1.1,0,0,1,.1-.1A.1.1,0,0,1,122.8,40.14Z"/><path class="cls-11" d="M124.62,40.14a.11.11,0,0,1-.11.11.1.1,0,0,1-.1-.11.09.09,0,0,1,.1-.1A.1.1,0,0,1,124.62,40.14Z"/><path class="cls-11" d="M130.07,40.14a.11.11,0,0,1-.1.11.11.11,0,0,1-.11-.11A.1.1,0,0,1,130,40,.1.1,0,0,1,130.07,40.14Z"/><path class="cls-11" d="M131.89,40.14a.11.11,0,0,1-.11.11.11.11,0,0,1-.1-.11.1.1,0,0,1,.1-.1A.1.1,0,0,1,131.89,40.14Z"/><path class="cls-11" d="M133.71,40.14a.11.11,0,0,1-.11.11.1.1,0,0,1-.1-.11.09.09,0,0,1,.1-.1A.1.1,0,0,1,133.71,40.14Z"/><path class="cls-11" d="M121.89,38.79a.11.11,0,0,1-.1.11.11.11,0,0,1-.11-.11.11.11,0,0,1,.11-.1A.11.11,0,0,1,121.89,38.79Z"/><path class="cls-11" d="M132.8,38.79a.11.11,0,0,1-.11.11.1.1,0,0,1-.1-.11.1.1,0,0,1,.1-.1A.11.11,0,0,1,132.8,38.79Z"/><path class="cls-11" d="M134.62,38.79a.11.11,0,0,1-.11.11.1.1,0,0,1-.1-.11.1.1,0,0,1,.1-.1A.11.11,0,0,1,134.62,38.79Z"/><path class="cls-11" d="M121,42.87a.09.09,0,0,1-.1.1.1.1,0,0,1-.11-.1.11.11,0,0,1,.11-.11A.1.1,0,0,1,121,42.87Z"/><path class="cls-11" d="M122.8,42.87a.1.1,0,0,1-.11.1.1.1,0,0,1-.1-.1.11.11,0,0,1,.1-.11A.11.11,0,0,1,122.8,42.87Z"/><path class="cls-11" d="M124.62,42.87a.1.1,0,0,1-.11.1.09.09,0,0,1-.1-.1.1.1,0,0,1,.1-.11A.11.11,0,0,1,124.62,42.87Z"/><path class="cls-11" d="M126.44,42.87a.1.1,0,0,1-.11.1.09.09,0,0,1-.1-.1.1.1,0,0,1,.1-.11A.11.11,0,0,1,126.44,42.87Z"/><path class="cls-11" d="M128.25,42.87a.09.09,0,0,1-.1.1.1.1,0,0,1-.11-.1.11.11,0,0,1,.11-.11A.1.1,0,0,1,128.25,42.87Z"/><path class="cls-11" d="M130.07,42.87a.1.1,0,0,1-.1.1.1.1,0,0,1-.11-.1.11.11,0,0,1,.11-.11A.11.11,0,0,1,130.07,42.87Z"/><path class="cls-11" d="M131.89,42.87a.1.1,0,0,1-.11.1.1.1,0,0,1-.1-.1.11.11,0,0,1,.1-.11A.11.11,0,0,1,131.89,42.87Z"/><path class="cls-11" d="M121.89,41.52a.11.11,0,0,1-.1.11.11.11,0,0,1-.11-.11.1.1,0,0,1,.11-.1A.1.1,0,0,1,121.89,41.52Z"/><path class="cls-11" d="M123.71,41.52a.11.11,0,0,1-.11.11.11.11,0,0,1-.1-.11.1.1,0,0,1,.1-.1A.1.1,0,0,1,123.71,41.52Z"/><path class="cls-11" d="M125.53,41.52a.11.11,0,0,1-.11.11.1.1,0,0,1-.1-.11.09.09,0,0,1,.1-.1A.1.1,0,0,1,125.53,41.52Z"/><path class="cls-11" d="M127.34,41.52a.1.1,0,0,1-.1.11.11.11,0,0,1-.11-.11.1.1,0,0,1,.11-.1A.09.09,0,0,1,127.34,41.52Z"/><path class="cls-11" d="M129.16,41.52a.1.1,0,0,1-.1.11.11.11,0,0,1-.11-.11.1.1,0,0,1,.11-.1A.09.09,0,0,1,129.16,41.52Z"/><path class="cls-11" d="M131,41.52a.11.11,0,0,1-.11.11.11.11,0,0,1-.1-.11.1.1,0,0,1,.1-.1A.1.1,0,0,1,131,41.52Z"/><path class="cls-11" d="M132.8,41.52a.11.11,0,0,1-.11.11.1.1,0,0,1-.1-.11.09.09,0,0,1,.1-.1A.1.1,0,0,1,132.8,41.52Z"/><path class="cls-11" d="M126.44,45.6a.11.11,0,0,1-.11.1.1.1,0,0,1-.1-.1.1.1,0,0,1,.1-.11A.11.11,0,0,1,126.44,45.6Z"/><path class="cls-11" d="M120.07,44.25a.1.1,0,0,1-.1.1.11.11,0,0,1-.11-.1.11.11,0,0,1,.11-.11A.1.1,0,0,1,120.07,44.25Z"/><path class="cls-11" d="M121.89,44.25a.11.11,0,0,1-.1.1.11.11,0,0,1-.11-.1.11.11,0,0,1,.11-.11A.11.11,0,0,1,121.89,44.25Z"/><path class="cls-11" d="M123.71,44.25a.11.11,0,0,1-.11.1.11.11,0,0,1-.1-.1.11.11,0,0,1,.1-.11A.11.11,0,0,1,123.71,44.25Z"/><path class="cls-11" d="M125.53,44.25a.11.11,0,0,1-.11.1.1.1,0,0,1-.1-.1.1.1,0,0,1,.1-.11A.11.11,0,0,1,125.53,44.25Z"/><path class="cls-11" d="M127.34,44.25a.1.1,0,0,1-.1.1.11.11,0,0,1-.11-.1.11.11,0,0,1,.11-.11A.1.1,0,0,1,127.34,44.25Z"/><path class="cls-11" d="M129.16,44.25a.1.1,0,0,1-.1.1.11.11,0,0,1-.11-.1.11.11,0,0,1,.11-.11A.1.1,0,0,1,129.16,44.25Z"/><path class="cls-9" d="M121.88,38.88l-.66,2.7c-.1.44-.21.88-.31,1.33s-.23.92-.31,1.38h0c.17-.42.31-.86.44-1.29s.24-.9.35-1.35c.22-.91.38-1.83.51-2.76C121.92,38.87,121.88,38.86,121.88,38.88Z"/><path class="cls-9" d="M132.47,43c-.54.29-1.07.6-1.58.92s-1,.72-1.47,1.09c0,0,0,0,0,0,.52-.33,1-.63,1.55-1l.17-.13a3.59,3.59,0,0,0,.39-.12l.3-.11.3-.13s0,0,0,0l-.32.07-.3.09,0,0,1-.72S132.48,43,132.47,43Z"/><path class="cls-12" d="M133.64,35s.73-.77,1.08-.5-.27,1.45-.76,1.56a.47.47,0,0,1-.58-.35Z"/><path class="cls-9" d="M134.53,34.81s0,0,0,0a1.14,1.14,0,0,0-.71.65.26.26,0,0,1,.39,0s0,0,0,0a.29.29,0,0,0-.33.05,2.11,2.11,0,0,0-.19.23s-.07,0-.05,0h0C133.69,35.31,134.09,34.78,134.53,34.81Z"/><path class="cls-16" d="M76.75,91.89c-.41.13-12,.17-12.44-.1A15.32,15.32,0,0,1,64,88c0-.44,0-.9,0-1.36L63,80.41l7.75,0,.73,6.18,0,1.36s4.44,2,4.9,2.33S77.15,91.75,76.75,91.89Z"/><path class="cls-11" d="M76.75,91.89c-.41.13-12,.17-12.44-.1-.21-.13-.32-2.6-.38-5.2l7.54,0,0,1.36s4.44,2,4.9,2.33S77.15,91.75,76.75,91.89Z"/><path class="cls-13" d="M76.75,91.89c-.41.13-12,.17-12.44-.1A15.32,15.32,0,0,1,64,88l7.47,0s4.44,2,4.9,2.33S77.15,91.75,76.75,91.89Z"/><path class="cls-9" d="M76.58,91.42c-1.94,0-9.79,0-11.71.09,0,0,0,0,0,0,1.93.08,9.77,0,11.71-.06C76.62,91.45,76.62,91.42,76.58,91.42Z"/><path class="cls-9" d="M75.59,89.82a1.56,1.56,0,0,0-1.16.47,1.51,1.51,0,0,0-.43,1s0,0,0,0a1.8,1.8,0,0,1,1.57-1.49S75.61,89.82,75.59,89.82Z"/><path class="cls-9" d="M72.19,88.09A2.75,2.75,0,0,0,70,89a0,0,0,0,0,0,0,11,11,0,0,1,2.14-.85A.05.05,0,0,0,72.19,88.09Z"/><path class="cls-9" d="M72.79,88.33a2.71,2.71,0,0,0-2.15.9s0,0,0,0a10.64,10.64,0,0,1,2.13-.85S72.85,88.33,72.79,88.33Z"/><path class="cls-9" d="M73.4,88.56a2.69,2.69,0,0,0-2.16.91s0,0,0,0a11.54,11.54,0,0,1,2.13-.85A0,0,0,0,0,73.4,88.56Z"/><path class="cls-9" d="M74,88.79a2.69,2.69,0,0,0-2.16.91s0,0,0,0A10.29,10.29,0,0,1,74,88.89S74.05,88.79,74,88.79Z"/><path class="cls-9" d="M65.36,89.66a.68.68,0,0,0,0,1.36A.68.68,0,0,0,65.36,89.66Z"/><path class="cls-9" d="M73,86c-.4-.33-.89,0-1.13.33a4,4,0,0,0-.7,2s0,0,0,0,.08.11.14.07A7.11,7.11,0,0,0,73,87.16C73.21,86.84,73.4,86.32,73,86Zm-1,1.65c-.27.2-.54.38-.8.59a10.14,10.14,0,0,1,.43-1.16c.09-.18.18-.36.28-.52s.93-.91,1-.07C73.05,87,72.4,87.44,72.08,87.67Z"/><path class="cls-9" d="M69.26,88.64a7.11,7.11,0,0,0,2-.2.09.09,0,0,0,0-.14s0,0,0,0a4.24,4.24,0,0,0-1.89-1c-.41-.07-1,0-1,.55S68.87,88.58,69.26,88.64Zm-.47-.44c-.52-.67.48-.73.78-.66a5.27,5.27,0,0,1,.56.19,9.53,9.53,0,0,1,1.12.53c-.33,0-.66.09-1,.13S69.09,88.56,68.79,88.2Z"/><path class="cls-17" d="M72.17,86l-9.36.17s-1.28-8.29-2.12-13.44c-.31-1.94-.56-3.43-.66-3.89-.25-1.07-5-18.13-5-18.13h9.13s-.15,2.85-.06,3.15c1.21,4.13,3.7,11.45,4.47,14C69.77,71.79,72.17,86,72.17,86Z"/><path class="cls-9" d="M71.32,84.57c-1.34,0-6.11-.06-7.9.11,0,0,0,0,0,0,.62.09,6.56,0,7.9-.09A0,0,0,1,0,71.32,84.57Z"/><path class="cls-9" d="M63,77.51q-.48-3.21-1.08-6.41c-.2-1-.41-2.09-.68-3.12s-.63-2.07-1-3.09q-1-3-2-6.12t-1.76-6.19q-.09-.39-.21-.78s0,0,0,0c.21,1,.48,2.08.75,3.11s.55,2.06.84,3.09c.6,2.06,1.24,4.11,1.94,6.14.35,1,.71,2,1,3s.55,2.06.76,3.11c.44,2.12.8,4.25,1.15,6.39s.63,4.3.91,6.46c0,.27.08.55.11.82,0,.08.13.08.12,0C63.58,81.81,63.29,79.66,63,77.51Z"/><path class="cls-9" d="M61.85,50.71l-1.16,22c-.31-1.94-.56-3.43-.66-3.89-.25-1.07-5-18.13-5-18.13Z"/><path class="cls-16" d="M64.76,93.86c-.41.12-12.3-.2-12.73-.49,0,0,0,0-.05-.07-.13-.35.12-1.86.11-3.72,0,0,0-.61.07-1.44.1-2.16.28-6,.28-6l7.75.16-.51,6-.12,1.39s4.39,2.09,4.83,2.46S65.17,93.73,64.76,93.86Z"/><path class="cls-11" d="M64.76,93.86c-.41.12-12.3-.2-12.73-.49,0,0,0,0-.05-.07-.13-.35.12-1.86.11-3.72,0,0,0-.61.07-1.44l7.52.2-.12,1.39s4.39,2.09,4.83,2.46S65.17,93.73,64.76,93.86Z"/><path class="cls-13" d="M64.76,93.86c-.41.12-12.3-.2-12.73-.49a9.54,9.54,0,0,1,.06-3.79l7.47.15S64,91.82,64.4,92.19,65.17,93.73,64.76,93.86Z"/><path class="cls-9" d="M64.61,93.39c-2-.09-9.79-.28-11.71-.23,0,0,0,0,0,0,1.92.14,9.76.26,11.7.25C64.65,93.42,64.65,93.39,64.61,93.39Z"/><path class="cls-9" d="M63.66,91.75a1.54,1.54,0,0,0-1.17.45,1.5,1.5,0,0,0-.46,1h0a1.81,1.81,0,0,1,1.61-1.45S63.68,91.76,63.66,91.75Z"/><path class="cls-9" d="M60.31,89.94a2.71,2.71,0,0,0-2.18.85s0,0,0,0A10.86,10.86,0,0,1,60.32,90C60.38,90,60.37,90,60.31,89.94Z"/><path class="cls-9" d="M60.91,90.19a2.73,2.73,0,0,0-2.19.85s0,0,0,0a10.35,10.35,0,0,1,2.16-.79S61,90.19,60.91,90.19Z"/><path class="cls-9" d="M61.5,90.44a2.68,2.68,0,0,0-2.18.85s0,0,0,0a10.89,10.89,0,0,1,2.15-.8A0,0,0,0,0,61.5,90.44Z"/><path class="cls-9" d="M62.09,90.69a2.69,2.69,0,0,0-2.18.85s0,0,0,0a11,11,0,0,1,2.16-.8S62.15,90.69,62.09,90.69Z"/><path class="cls-9" d="M53.44,91.33a.68.68,0,0,0,0,1.35A.68.68,0,0,0,53.44,91.33Z"/><path class="cls-9" d="M61.2,87.89c-.39-.34-.89,0-1.14.3a4.07,4.07,0,0,0-.75,2,0,0,0,0,0,0,0,.1.1,0,0,0,.14.06A6.8,6.8,0,0,0,61.11,89C61.36,88.72,61.56,88.21,61.2,87.89Zm-1,1.63c-.28.19-.56.36-.82.56.15-.38.28-.77.46-1.14a4.4,4.4,0,0,1,.3-.52c.18-.25,1-.88,1,0C61.19,88.85,60.53,89.29,60.21,89.52Z"/><path class="cls-9" d="M57.37,90.41a6.68,6.68,0,0,0,2-.15c.07,0,.09-.08.06-.14a0,0,0,0,0,0,0,4,4,0,0,0-1.86-1c-.41-.09-1,0-1.06.52S57,90.34,57.37,90.41ZM56.91,90c-.51-.68.49-.71.79-.64a5.31,5.31,0,0,1,.56.2c.38.16.74.37,1.1.56-.33,0-.66.08-1,.11S57.19,90.33,56.91,90Z"/><path class="cls-17" d="M60.54,87.74H51.38s2-28.4,1.67-30c-.53-2.61-.18-5.6,1.05-7h8.16a7.39,7.39,0,0,1-.68,3.65l-1.14.7Z"/><path class="cls-9" d="M59.69,86.26c-1.27,0-.91,0-2.18-.06-.62,0-4.7-.06-5.28,0,0,0,0,0,0,0,.58.1,4.66.09,5.28.09,1.27,0,.91,0,2.18,0C59.71,86.3,59.71,86.26,59.69,86.26Z"/><path class="cls-9" d="M62.08,54a17,17,0,0,0-2.29,1.36s0,.06,0,0c.78-.43,1.57-.85,2.32-1.32C62.2,54.05,62.15,54,62.08,54Z"/><path class="cls-9" d="M61.05,53.88a2.57,2.57,0,0,0-.11.48,1,1,0,0,0,0,.39,0,0,0,0,0,.05,0,1.06,1.06,0,0,0,.13-.39l.12-.45C61.23,53.81,61.08,53.78,61.05,53.88Z"/><path class="cls-9" d="M61,53.09c0-.13.05-.27.07-.41s.06-.28.08-.42,0,0,0,0,0,.27,0,.41,0,.28,0,.42-.07.51-.12.77a1,1,0,0,0,.37-.16.64.64,0,0,0,.2-.39l.12-.47a3,3,0,0,0,.12-.52s0,0,0,0a5.08,5.08,0,0,1-.2,1.1c-.05.14-.08.29-.21.37a1.17,1.17,0,0,1-.45.13s0,0,0,0C60.91,53.64,60.93,53.36,61,53.09Z"/><path class="cls-9" d="M54.37,57.64c-.06-.6-.15-1.19-.22-1.79a11.12,11.12,0,0,1,.22-3.59s0,0,0,0A13.29,13.29,0,0,0,54,55.4c.05,1.06.24,2.1.26,3.16s-.07,2.15-.14,3.22L53.92,65q-.41,6.5-.79,13c-.08,1.21-.14,2.41-.21,3.62s-.16,2.46-.21,3.69c0,.11.16.1.17,0,.18-2.17.29-4.35.42-6.53s.27-4.3.4-6.45l.39-6.46.18-3.22c.07-1.07.14-2.15.16-3.22A15,15,0,0,0,54.37,57.64Z"/><path class="cls-9" d="M57.26,52.19s0,0,0,0a1.5,1.5,0,0,0-.07.44,4,4,0,0,1-.11.47,2,2,0,0,1-.49.82,4,4,0,0,1-1.87.82,0,0,0,0,0,0,0,2.88,2.88,0,0,0,1.16-.18,2.46,2.46,0,0,0,.89-.5,1.67,1.67,0,0,0,.48-.87,2.32,2.32,0,0,0,.05-.53,2.09,2.09,0,0,0,0-.25A.74.74,0,0,0,57.26,52.19Z"/><path class="cls-16" d="M60.81,39.33c.84,1,5.15,4.43,8.92,4,1.55-.2,2.5-3.81,2.71-5.14.36-2.37.9-7.36,0-7.14-1.13.26-3.85,8-4.65,8.11-1.29.12-3.43-.81-6.13-1.19C60.27,37.73,60.17,38.53,60.81,39.33Z"/><path class="cls-13" d="M60.83,39.72a24.16,24.16,0,0,0,4.33,3.44l.38-1,1.25-3.3s-3-.73-4.88-1a4.6,4.6,0,0,0-.69-.06C60,37.8,59.94,38.56,60.83,39.72Z"/><path class="cls-9" d="M60.83,39.72a24.16,24.16,0,0,0,4.33,3.44l.38-1c-1.26-1.3-3.2-3.25-4.32-4.38C60,37.8,59.94,38.56,60.83,39.72Z"/><path class="cls-9" d="M64.55,42.55c.21-.6,1.13-3,1.37-3.56,0,0,0,0,0,0a36,36,0,0,1-1.37,3.57S64.55,42.57,64.55,42.55Z"/><path class="cls-16" d="M75.14,31.4c.22.57-.59.5-.59.5s1.13.39,1.13,1.07-1,.53-1.05.52,1.09.41,1,1.09-1,.42-1.09.4.7.54.52,1.05c-.3.87-2-.39-2.74-.24L72.44,37a.45.45,0,0,0,0,.11l-.61.09a8.81,8.81,0,0,0-.62-1.07,3,3,0,0,1-.56-1.17.67.67,0,0,1,.4-.7,1,1,0,0,1-.53-.86c0-.27.49-.48.49-.48a.8.8,0,0,1-.38-.75c.06-.38.51-.53.51-.53a1,1,0,0,1-.12-.84C71.37,30,74.68,30.16,75.14,31.4Z"/><path class="cls-16" d="M72.28,36l.16,1a.45.45,0,0,0,0,.11c-.16,1.33-1.61,2.24-1.78,1.3-.12-.72.78-1.56.55-2.28h0Z"/><path class="cls-9" d="M71.2,31.58s0,0,0,0a5.74,5.74,0,0,1,3.4.34s0,.07,0,.06A12,12,0,0,0,71.2,31.58Z"/><path class="cls-9" d="M71,32.89s0,0,0,0a5.33,5.33,0,0,1,3.69.59s0,.08,0,.06A9.75,9.75,0,0,0,71,32.89Z"/><path class="cls-9" d="M74.61,35.05a7.29,7.29,0,0,0-3.52-.82,0,0,0,1,1,0,0,4.87,4.87,0,0,1,2,.07,3.37,3.37,0,0,1,1.53.74S74.63,35.06,74.61,35.05Z"/><path class="cls-9" d="M72.43,36.37c0-.21-.06-.41-.1-.61,0,0,0,0,0,0,0,.3,0,.59,0,.88a2.52,2.52,0,0,1-.13.9,1.87,1.87,0,0,1-.38.69,1.06,1.06,0,0,1-.7.45.45.45,0,0,1-.45-.51,1.92,1.92,0,0,1,.3-.76,2.53,2.53,0,0,0,.32-.8,1.13,1.13,0,0,0-.14-.72l-.24-.47a1.32,1.32,0,0,1-.18-.4.68.68,0,0,1,.33-.77s0,0,0,0a.93.93,0,0,0-.5.53.91.91,0,0,0,.13.75l.25.47a.89.89,0,0,1,.16.52,2.44,2.44,0,0,1-.4,1,1.34,1.34,0,0,0-.21.83.61.61,0,0,0,.43.54c.59.16,1.11-.48,1.33-.94a2.41,2.41,0,0,0,.23-1A2.29,2.29,0,0,0,72.43,36.37Z"/><path class="cls-9" d="M73.32,36a2,2,0,0,0-.4-.18,1.65,1.65,0,0,0-.43-.09,1.39,1.39,0,0,0-.41,0,.69.69,0,0,0-.32.21s0,0,0,0a2,2,0,0,1,.35-.07,1.55,1.55,0,0,1,.37,0,1.75,1.75,0,0,1,.4.05c.14,0,.27.07.41.09A0,0,0,0,0,73.32,36Z"/><path class="cls-9" d="M71,34.19l-.06,0-.11-.09-.1-.12,0,0,0,0,0,0s0,0,0,0l0,.05s0,0,0,0l0,.07a.71.71,0,0,0,.1.14l.13.1.08,0h.07s0,0,0,0S71,34.21,71,34.19Z"/><path class="cls-13" d="M64.31,52.33a33.57,33.57,0,0,1-5.75.25c-1.07,0-2.14,0-3.08,0a13.35,13.35,0,0,1-2.72-.16,57.68,57.68,0,0,1,3.55-10.57,10.53,10.53,0,0,1,2.23-3.17,3.23,3.23,0,0,1,.75-.61l.41-.19a5.36,5.36,0,0,1,2.79.14,6.79,6.79,0,0,1,1.41,3.29C64.08,42.67,64.49,52.17,64.31,52.33Z"/><path class="cls-15" d="M53,51.39H64.35c0-.29,0-.65,0-1H53.24Z"/><path class="cls-16" d="M58.55,40c-.2,2,2.38,8.44,3.83,9.58,2.16,1.69,6.87,2.85,8.26,3.14.6.13,1.55-5,.91-5.12-1.41-.33-5.86-.93-6.26-1.23a40.5,40.5,0,0,1-4.07-5.25C59.67,38.68,58.65,39,58.55,40Z"/><path class="cls-16" d="M74.14,52.58c.35-.5-.44-.63-.44-.63s1.19-.09,1.36-.75-.81-.76-.88-.77,1.16-.11,1.26-.8-.89-.66-1-.66.82-.35.78-.88c-.07-.92-2.26-.17-2.93-.5V46.37a6.86,6.86,0,0,1-.82.76c-.38.35-.71.57-.82.87a.68.68,0,0,0,.21.78s-.63.16-.73.69c0,.28.35.6.35.6a.82.82,0,0,0-.56.63.78.78,0,0,0,.36.64s-.42.37-.33.77C70.15,52.93,73.37,53.66,74.14,52.58Z"/><path class="cls-9" d="M70.38,51.39s0,0,0,0a5.71,5.71,0,0,0,3.37.55s0-.07,0-.07A11.59,11.59,0,0,1,70.38,51.39Z"/><path class="cls-9" d="M70.5,50.07s0,0,0,0a5.38,5.38,0,0,0,3.71.38s.07-.07,0-.06A9.75,9.75,0,0,1,70.5,50.07Z"/><path class="cls-9" d="M74.56,48.91a7.35,7.35,0,0,1-3.61-.1s0,0,0,0a4.73,4.73,0,0,0,2,.45A3.31,3.31,0,0,0,74.57,49S74.59,48.91,74.56,48.91Z"/><path class="cls-13" d="M60.48,40c-1.73-2.13-2.62-1.23-2.13,1.17a38.12,38.12,0,0,0,1.44,4.9l3.85-2.22Z"/><path class="cls-9" d="M61.06,40.65c.23.28.47.55.71.82-.06-.14-.12-.28-.17-.43h0l.16.33.07.16,0,0c.18.21.37.42.55.64L63,43c.22.27.43.6.65.86a2.41,2.41,0,0,1-.37.22s-.06,0,0,0l.32-.22c-.21-.27-.45-.51-.67-.77s-.44-.51-.65-.78c-.43-.53-.82-1.08-1.25-1.62C61,40.65,61.06,40.65,61.06,40.65Z"/><path class="cls-9" d="M58.56,42.79l.2.34a1.09,1.09,0,0,1,.08.15L58.48,42h0c.23.69.46,1.37.68,2.06a20.16,20.16,0,0,1,.6,2,1.74,1.74,0,0,1,.36-.16,1.74,1.74,0,0,1-.39.23,18.67,18.67,0,0,1-.67-2.08c-.06-.19-.11-.38-.17-.57a2.11,2.11,0,0,0-.18-.33l-.17-.36S58.56,42.78,58.56,42.79Z"/><path class="cls-9" d="M59.81,45.41c.53-.35,2.76-1.71,3.26-2,0,0,.06,0,0,0a33.33,33.33,0,0,1-3.27,2A0,0,0,1,1,59.81,45.41Z"/><path class="cls-16" d="M62.1,39.72c-.66.1-1.68-1-2.05-1.82a12.56,12.56,0,0,1,.24-1.32c.07-.43.15-.9.19-1.34,0-.09.3.1.3.1l.55.19,1.84.61a7,7,0,0,0-.41,1.66.54.54,0,0,0,0,.18v0C62.79,38.36,62.73,39.63,62.1,39.72Z"/><path class="cls-9" d="M62.76,38v0a1.31,1.31,0,0,1-.28,0c-1.85-.2-1.88-2.58-1.88-2.58l.73.1,1.84.61a7,7,0,0,0-.41,1.66A.54.54,0,0,0,62.76,38Z"/><path class="cls-16" d="M59.9,32.51c-.23,1,.48,3.78,1.22,4.36a2.24,2.24,0,0,0,3.41-.45c.67-1.22-.32-4.83-1.13-5.34A2.44,2.44,0,0,0,59.9,32.51Z"/><path class="cls-18" d="M61,36.85h0"/><path class="cls-9" d="M62.79,34.16v0c0,.19.08.41-.07.51s0,0,0,0C62.91,34.62,62.87,34.33,62.79,34.16Z"/><path class="cls-9" d="M62.57,34c-.3.05-.18.66.11.61S62.83,34,62.57,34Z"/><path class="cls-9" d="M63.87,33.89l0,0c0,.19.1.4.28.43,0,0,0,0,0,0C64,34.36,63.87,34.08,63.87,33.89Z"/><path class="cls-9" d="M64,33.66c.29-.09.45.52.17.6S63.74,33.73,64,33.66Z"/><path class="cls-9" d="M62.28,33.78l.21-.14c.09,0,.16-.08.2-.17a.13.13,0,0,0,0-.16.33.33,0,0,0-.33,0,.49.49,0,0,0-.23.26A.15.15,0,0,0,62.28,33.78Z"/><path class="cls-9" d="M64.17,33.3a1.13,1.13,0,0,1-.26,0,.46.46,0,0,1-.26-.06.14.14,0,0,1,0-.16.32.32,0,0,1,.3-.13.5.5,0,0,1,.33.12A.14.14,0,0,1,64.17,33.3Z"/><path class="cls-9" d="M62.9,35.89a.46.46,0,0,0,.19.08.82.82,0,0,0,.19-.09s0,0,0,0a.27.27,0,0,1-.22.16.21.21,0,0,1-.18-.14S62.9,35.88,62.9,35.89Z"/><path class="cls-9" d="M63,35.28a.7.7,0,0,0,.49.2,1,1,0,0,0,.24,0l0,0h0a.05.05,0,0,0,0,0h0v0h0v0c0-.15-.09-.36-.09-.36s.36.08.34,0a10.19,10.19,0,0,0-.66-1.9s0,0,0,0c.14.6.38,1.18.53,1.78a1.91,1.91,0,0,0-.32,0s.12.42.13.49h0a.94.94,0,0,1-.71-.07S63,35.27,63,35.28Z"/><path class="cls-9" d="M63.61,35.38a.85.85,0,0,1-.26.3.31.31,0,0,1-.21.06c-.15,0-.19-.15-.18-.27a.8.8,0,0,1,0-.2A.93.93,0,0,0,63.61,35.38Z"/><path class="cls-14" d="M63.35,35.68a.31.31,0,0,1-.21.06c-.15,0-.19-.15-.18-.27A.36.36,0,0,1,63.35,35.68Z"/><path class="cls-9" d="M64,31.94c-.83.89-2.4.16-2.4.16a1.1,1.1,0,0,1-.93.91s.16,1.7-.28,1.79c-.67.14-1.36-2.08-1.25-2.57a1.25,1.25,0,0,1,.66-.73,1.15,1.15,0,0,1,.31-.76c.38-.44,2.06-.31,2.06-.31a1.43,1.43,0,0,1,.28-.63.43.43,0,0,1,.61-.08,1.07,1.07,0,0,0-.07.45c0,.5.42.42.32,0a.73.73,0,0,0-.25-.43c.14-.33.44-.49.66-.38A2.15,2.15,0,0,1,64,31.94Z"/><path class="cls-16" d="M60.66,34.77s-.72-.86-1.11-.59.2,1.54.71,1.67a.48.48,0,0,0,.63-.32Z"/><path class="cls-9" d="M59.73,34.54s0,0,0,0a1.26,1.26,0,0,1,.71.72.27.27,0,0,0-.41,0s0,0,0,0a.31.31,0,0,1,.34.08,1.24,1.24,0,0,1,.19.26s.07,0,0,0h0C60.59,35.12,60.2,34.54,59.73,34.54Z"/><path class="cls-11" d="M138.06,31.59a2.72,2.72,0,0,1-.47-1.51c0-1.9,2.1-3.45,4.68-3.45s4.67,1.55,4.67,3.45-2.09,3.46-4.67,3.46a5.66,5.66,0,0,1-3.23-1l-1.61.41Z"/><path class="cls-9" d="M137.46,33l0,0,1.6-.43h0a5.47,5.47,0,0,0,2.82.9,6.2,6.2,0,0,0,1.49-.1,5.3,5.3,0,0,0,1.41-.46A4.26,4.26,0,0,0,146,32a3,3,0,0,0,.74-1.24,2.4,2.4,0,0,0,0-1.43,2.87,2.87,0,0,0-.76-1.23,4.79,4.79,0,0,0-2.62-1.29,6.14,6.14,0,0,0-3,.18A4.22,4.22,0,0,0,138,28.74a2.69,2.69,0,0,0-.4,1.43,2.79,2.79,0,0,0,.44,1.42Zm.11-2.83a2.76,2.76,0,0,1,.36-1.48,4,4,0,0,1,1-1.13,5.37,5.37,0,0,1,1.37-.7,6.34,6.34,0,0,1,1.5-.3,6.52,6.52,0,0,1,1.53.07A5.09,5.09,0,0,1,146.1,28a3.33,3.33,0,0,1,.83,1.32,2.76,2.76,0,0,1,0,1.56,3.3,3.3,0,0,1-.8,1.33,4.8,4.8,0,0,1-1.26.89,6.08,6.08,0,0,1-3,.55,5.59,5.59,0,0,1-2.87-1h.05l-1.62.39h-.05l0-.05.65-1.39A2.7,2.7,0,0,1,137.57,30.17Z"/><path class="cls-9" d="M144,30.08a.49.49,0,1,0,.48-.48A.49.49,0,0,0,144,30.08Z"/><path class="cls-9" d="M141.78,30.08a.49.49,0,0,0,.49.49.49.49,0,0,0,0-1A.49.49,0,0,0,141.78,30.08Z"/><path class="cls-9" d="M139.62,30.08a.48.48,0,0,0,.48.49.49.49,0,1,0,0-1A.48.48,0,0,0,139.62,30.08Z"/><text class="cls-19" transform="translate(76.08 32.75)"><tspan class="cls-20">1-1001 </tspan><tspan x="26.95" y="0">C</tspan><tspan class="cls-20" x="31.71" y="0">ash</tspan></text><text class="cls-21" transform="translate(76.77 57.07)">2-2001 <tspan class="cls-22" x="26.95" y="0">C</tspan><tspan class="cls-23" x="31.76" y="0">r</tspan><tspan x="34.82" y="0">edit</tspan></text></g></g></svg>