<svg xmlns="http://www.w3.org/2000/svg" viewBox="0 0 188.22 97.23"><defs><style>.cls-1{fill:#ebf3fa;}.cls-2{fill:#a8d29f;}.cls-3{fill:#82b378;}.cls-4{fill:#c7dcfb;}.cls-5{fill:#dfebfd;}.cls-6{fill:#2e3552;}.cls-7{fill:#007cff;}.cls-10,.cls-11,.cls-13,.cls-14,.cls-15,.cls-16,.cls-20,.cls-8{fill:#fff;}.cls-13,.cls-8{opacity:0.6;}.cls-11,.cls-12,.cls-19,.cls-20,.cls-8,.cls-9{isolation:isolate;}.cls-9{opacity:0.1;}.cls-11,.cls-12{opacity:0.3;}.cls-14{opacity:0.4;}.cls-15,.cls-19{opacity:0.2;}.cls-16{opacity:0.8;}.cls-17{fill:#b97964;}.cls-18{fill:#1a2e35;}.cls-20{opacity:0.7;}.cls-21{fill:#e4897b;}</style></defs><title>Asset 20</title><g id="Layer_2" data-name="Layer 2"><g id="Layer_2-2" data-name="Layer 2"><path class="cls-1" d="M14.35,97.18S-7.22,74,10.7,49c15.9-22.24,34.43-20.72,48-11.69,5.79,3.84,22.49.47,36.71-22.16C114.82-15.76,182,3,169.76,50.45c-5.93,23,18,23.81,5.83,46.78Z"/><path class="cls-2" d="M55.76,52.27S45.09,37.08,40.92,39.05,55.76,52.27,55.76,52.27Z"/><path class="cls-2" d="M55.08,48.19s-1.63-11.42-4.2-11S55.08,48.19,55.08,48.19Z"/><path class="cls-3" d="M46.06,83.78s1-5.08-3-5.72a9.06,9.06,0,0,0-4.29.92s4.52,2.61,4,3.42S38,79.13,38,79.13s-4.84,2.12-5.92,3.66c0,0,5.72,1,5,1.67s-6.73-.13-6.73-.13-3.86,3.12-2.18,5.6,3.61,2.46,4.22,2,3.59-4,4-3.51-.93,3.49-2.48,4.47c0,0,4.87,1.64,6.34-.44s.79-3.7,1.72-5,2-1.87,1.8-1-2.13,2.7-2.14,4.36-.17,2.87,1.73,1.41,4.42-4.87,3.59-6.69Z"/><path class="cls-3" d="M30.28,88.83s11.36-6.94,15.78-5a9.65,9.65,0,0,0,4.13,2l.68.59s-3.19-1-4-.72C46.88,85.6,45.71,80.86,30.28,88.83Z"/><path class="cls-3" d="M50.19,85.73a8.33,8.33,0,0,1,5.53,3.65l-.43.29s-2.7-3-4.88-3.49S50.19,85.73,50.19,85.73Z"/><path class="cls-2" d="M49.54,69s8.25-4.62,4.4-10.89c0,0-3.08-3.85-6.38-4.84,0,0,1.76,9.35,0,9.57s-1.21-10.56-1.21-10.56-8.69-4.18-12.1-3.85c0,0,5.39,9.13,3.63,8.91s-7.81-9.46-7.81-9.46-8.91-1.65-10.34,3.63.88,7.92,2.2,8.25,9.79.22,9.57,1.32-5.94,2.86-9.13,1.87c0,0,3.52,8.69,8.14,8.25s6.05-3.3,8.91-3.52,4.95.55,3.52,1.32-6.27.26-8.58,2.22-4.18,3.17.11,4,12,.33,13.53-3Z"/><path class="cls-3" d="M23.8,53.11S46.9,60.59,49.54,69a17.55,17.55,0,0,0,2.2,8v1.65S49.32,73,48,72.25C48,72.25,53.17,65,23.8,53.11Z"/><path class="cls-3" d="M51.74,77a15.25,15.25,0,0,1,1.53,12l-.92-.25s.89-7.25-1-10.9S51.74,77,51.74,77Z"/><path class="cls-4" d="M140,48.57s-5.55-3.54-2.62-7.75c0,0,2.29-2.55,4.63-3.11,0,0-1.6,6.43-.38,6.65s1.26-7.29,1.26-7.29,6.21-2.56,8.57-2.2c0,0-4.12,6.14-2.88,6.06s5.81-6.27,5.81-6.27,6.26-.79,7,2.94-.93,5.47-1.86,5.64-6.82-.23-6.71.54,4,2.23,6.28,1.67c0,0-2.8,5.9-6,5.41s-4.08-2.54-6.06-2.81-3.46.19-2.5.78,4.35.43,5.88,1.88,2.78,2.38-.24,2.82-8.35-.25-9.29-2.61Z"/><path class="cls-4" d="M158.5,38.58s-16.36,4.28-18.53,10a12.17,12.17,0,0,1-1.85,5.49l-.06,1.15s1.9-3.8,2.85-4.29C140.91,50.92,137.61,45.67,158.5,38.58Z"/><path class="cls-4" d="M138.12,54.06a10.62,10.62,0,0,0-1.54,8.28l.65-.13s-.33-5.08,1.11-7.54S138.12,54.06,138.12,54.06Z"/><path class="cls-5" d="M125,33.19s-8.53-1.87-6.8-8.44c0,0,1.69-4.23,4.34-6,0,0,1,8.74,2.56,8.46s-1.76-9.66-1.76-9.66,6.57-6,9.67-6.65c0,0-2.32,9.52-.82,8.85s4.37-10.45,4.37-10.45,7.43-3.85,10.11.44S148,17,147,17.63s-8.59,2.82-8.1,3.73,6,.94,8.57-.79c0,0-.78,8.62-5,9.47s-6.24-1.3-8.82-.72-4.23,1.81-2.76,2.11,5.61-1.46,8.18-.34,4.54,1.68,1,3.61-10.51,3.5-12.76,1Z"/><path class="cls-5" d="M143.53,12.29S125.12,25.1,125,33.19a16.24,16.24,0,0,1,.21,7.69l.44,1.46s.64-5.61,1.6-6.64C127.27,35.7,120.75,30.67,143.53,12.29Z"/><path class="cls-5" d="M125.23,40.88a14.09,14.09,0,0,0,1.86,11l.75-.47s-2.73-6.17-2.06-9.89S125.23,40.88,125.23,40.88Z"/><path class="cls-3" d="M168.11,96.62h-6.32c-.34-.29.23-.94.83-1a3.75,3.75,0,0,1,1,.12c.08-1.16.58-6.35,2.45-6.14,2.11.23,0,2.28-.59,3.5a28.44,28.44,0,0,0-1.12,2.8l.53.11c.28-.86,1.32-3.74,2.64-3.57,1.55.19.92,1.35-.18,2-.8.5-1.79,1.22-2.26,1.56a6.25,6.25,0,0,0,1.23.1A2.69,2.69,0,0,1,168.11,96.62Z"/><path class="cls-3" d="M23.81,96.32c-.33-.53-1.34-1.9-2.68-1.71s1.61,1.16,2.55,1.71a1.55,1.55,0,0,1-.52-.06,3.54,3.54,0,0,0-2.05.36h6a.93.93,0,0,0-.43-.55,1.07,1.07,0,0,0-.55,0c.35-.42.6-1.76-.39-1.42-.73.25-.73,1.07-.65,1.56l-.47.07c-.3-1.52-1.36-6-3.5-6.1S23,94.76,24.3,96.27Z"/><rect class="cls-6" y="96.55" width="188.22" height="0.5" rx="0.15"/><path class="cls-7" d="M119.9,23.46V94a1,1,0,0,1-1.05,1H86a.9.9,0,0,1-.66-.27.89.89,0,0,1-.28-.68V23.37a.83.83,0,0,1,.8-.86h9.32a.66.66,0,0,1,.6.42l.39.95a.65.65,0,0,0,.6.41h11.4a.63.63,0,0,0,.6-.4l.39-1a.66.66,0,0,1,.6-.42H119A.94.94,0,0,1,119.9,23.46Z"/><rect class="cls-8" x="89.43" y="24.7" width="0.48" height="0.65" transform="translate(179.34 50.05) rotate(180)"/><rect class="cls-8" x="88.64" y="24.49" width="0.48" height="0.86" transform="translate(177.76 49.84) rotate(180)"/><rect class="cls-8" x="87.85" y="24.27" width="0.48" height="1.08" transform="translate(176.18 49.62) rotate(180)"/><rect class="cls-8" x="87.06" y="24.06" width="0.48" height="1.29" transform="translate(174.6 49.4) rotate(180)"/><rect class="cls-8" x="115.17" y="24.47" width="0.29" height="0.65"/><rect class="cls-8" x="115.65" y="24.23" width="2.29" height="1.12" transform="translate(233.6 49.58) rotate(180)"/><g class="cls-9"><path class="cls-10" d="M100.76,24.29l-10,37.53h0l-.11.42h0l-.18.67h0l-.12.43L85.1,82.94V59.22l9.8-36.71h.32a.66.66,0,0,1,.6.42l.39.95a.65.65,0,0,0,.6.41Z"/><polygon class="cls-10" points="119.9 43.46 119.9 67.17 113.65 90.58 113.5 91.15 112.47 95.01 106.14 95.01 107.17 91.15 107.33 90.53 108.16 87.43 108.33 86.81 108.66 85.57 108.83 84.95 109.16 83.71 109.32 83.09 114.53 63.58 114.53 63.58 114.77 62.68 114.77 62.67 119.9 43.46"/><path class="cls-10" d="M104.19,24.29l-10,37.3-.06.22-.54,2-.06.22L85.38,94.75a1,1,0,0,1-.28-.69v-3.6l7-26.39.06-.22.55-2,.06-.22,10-37.3Z"/></g><rect class="cls-11" x="85.1" y="27.11" width="34.8" height="64.78"/><path class="cls-7" d="M113.2,55.57h0a1.22,1.22,0,0,0,1.22-1.21V35.22A1.22,1.22,0,0,0,113.2,34h0A1.21,1.21,0,0,0,112,35.22V54.36A1.21,1.21,0,0,0,113.2,55.57Z"/><path class="cls-12" d="M113.2,55.1a.74.74,0,0,1-.73-.74V35.22a.74.74,0,0,1,1.47,0V54.36A.74.74,0,0,1,113.2,55.1Z"/><circle class="cls-7" cx="113.2" cy="37.11" r="1.76" transform="matrix(0.16, -0.99, 0.99, 0.16, 58.44, 142.91)"/><path class="cls-7" d="M106.07,55.57h0a1.21,1.21,0,0,0,1.21-1.21V35.22A1.21,1.21,0,0,0,106.07,34h0a1.21,1.21,0,0,0-1.21,1.21V54.36A1.21,1.21,0,0,0,106.07,55.57Z"/><path class="cls-12" d="M106.07,55.1a.74.74,0,0,1-.74-.74V35.22a.74.74,0,0,1,1.47,0V54.36A.74.74,0,0,1,106.07,55.1Z"/><circle class="cls-7" cx="106.07" cy="51.38" r="1.76" transform="translate(38.36 147.85) rotate(-80.78)"/><path class="cls-7" d="M98.93,55.57h0a1.21,1.21,0,0,0,1.21-1.21V35.22A1.21,1.21,0,0,0,98.93,34h0a1.21,1.21,0,0,0-1.21,1.21V54.36A1.21,1.21,0,0,0,98.93,55.57Z"/><path class="cls-12" d="M98.93,55.1a.74.74,0,0,1-.73-.74V35.22a.74.74,0,0,1,1.47,0V54.36A.74.74,0,0,1,98.93,55.1Z"/><circle class="cls-7" cx="98.93" cy="41.87" r="1.76" transform="translate(41.76 132.81) rotate(-80.78)"/><path class="cls-7" d="M91.8,55.57h0A1.21,1.21,0,0,0,93,54.36V35.22A1.21,1.21,0,0,0,91.8,34h0a1.22,1.22,0,0,0-1.22,1.21V54.36A1.22,1.22,0,0,0,91.8,55.57Z"/><path class="cls-12" d="M91.8,55.1a.74.74,0,0,1-.74-.74V35.22a.74.74,0,0,1,1.47,0V54.36A.74.74,0,0,1,91.8,55.1Z"/><circle class="cls-7" cx="91.8" cy="49" r="1.76" transform="translate(28.72 131.76) rotate(-80.78)"/><circle class="cls-13" cx="113.2" cy="37.11" r="1.76" transform="matrix(0.16, -0.99, 0.99, 0.16, 58.44, 142.91)"/><path class="cls-13" d="M113.2,38.39a1.28,1.28,0,1,1,1.29-1.28A1.28,1.28,0,0,1,113.2,38.39Z"/><circle class="cls-13" cx="106.07" cy="51.38" r="1.76" transform="translate(38.36 147.85) rotate(-80.78)"/><path class="cls-13" d="M106.07,52.66a1.28,1.28,0,1,1,1.28-1.28A1.28,1.28,0,0,1,106.07,52.66Z"/><circle class="cls-13" cx="98.93" cy="41.87" r="1.76" transform="translate(41.76 132.81) rotate(-80.78)"/><path class="cls-13" d="M98.93,43.15a1.29,1.29,0,1,1,1.28-1.28A1.29,1.29,0,0,1,98.93,43.15Z"/><circle class="cls-13" cx="91.8" cy="49" r="1.76" transform="translate(28.72 131.76) rotate(-80.78)"/><path class="cls-13" d="M91.8,50.28A1.28,1.28,0,1,1,93.08,49,1.28,1.28,0,0,1,91.8,50.28Z"/><rect class="cls-7" x="86.78" y="59.9" width="31.44" height="29.45" rx="2.75"/><rect class="cls-12" x="86.78" y="59.9" width="31.44" height="29.45" rx="2.75"/><path class="cls-13" d="M99.66,79v2.54l1.31.12a6.63,6.63,0,0,0,1,2.34l-.84,1,1.79,1.79,1-.84a6.63,6.63,0,0,0,2.34,1l.12,1.31h2.54l.12-1.31a6.63,6.63,0,0,0,2.34-1l1,.84L114.16,85l-.84-1a6.63,6.63,0,0,0,1-2.34l1.31-.12V79l-1.31-.12a6.63,6.63,0,0,0-1-2.34l.84-1-1.79-1.79-1,.84a6.63,6.63,0,0,0-2.34-1l-.12-1.31h-2.54l-.12,1.31a6.63,6.63,0,0,0-2.34,1l-1-.84-1.79,1.79.84,1a6.63,6.63,0,0,0-1,2.34Zm8-2.16a3.43,3.43,0,1,1-3.43,3.43A3.44,3.44,0,0,1,107.63,76.82Z"/><path class="cls-14" d="M89.4,71.72v2l1,.1a5.19,5.19,0,0,0,.76,1.83l-.66.79,1.4,1.4.8-.65a5.3,5.3,0,0,0,1.83.76l.09,1h2l.09-1a5.35,5.35,0,0,0,1.84-.76l.79.65,1.4-1.4-.65-.79a5.38,5.38,0,0,0,.76-1.83l1-.1v-2l-1-.1a5.3,5.3,0,0,0-.76-1.83l.65-.8-1.4-1.4-.79.66a5.16,5.16,0,0,0-1.84-.76l-.09-1h-2l-.09,1a5.11,5.11,0,0,0-1.83.76l-.8-.66L90.53,69l.66.8a5.11,5.11,0,0,0-.76,1.83ZM95.65,70A2.69,2.69,0,1,1,93,72.71,2.68,2.68,0,0,1,95.65,70Z"/><path class="cls-15" d="M100.47,65.59v1.67l.85.08a4.57,4.57,0,0,0,.64,1.54l-.55.66,1.18,1.18.67-.55a4.57,4.57,0,0,0,1.54.64l.08.86h1.66l.08-.86a4.57,4.57,0,0,0,1.54-.64l.67.55L110,69.54l-.55-.66a4.57,4.57,0,0,0,.64-1.54l.85-.08V65.59l-.85-.08a4.57,4.57,0,0,0-.64-1.54l.55-.66-1.18-1.18-.67.55a4.38,4.38,0,0,0-1.54-.64l-.08-.86h-1.66l-.08.86a4.38,4.38,0,0,0-1.54.64l-.67-.55-1.18,1.18L102,64a4.57,4.57,0,0,0-.64,1.54Zm5.24-1.42a2.26,2.26,0,1,1-2.26,2.25A2.26,2.26,0,0,1,105.71,64.17Z"/><polygon class="cls-13" points="97.56 72.19 96.16 70.8 94.25 71.31 93.74 73.22 95.13 74.62 97.05 74.11 97.56 72.19"/><polygon class="cls-16" points="107.94 77.82 105.68 78.77 105.37 81.2 107.32 82.68 109.58 81.73 109.89 79.3 107.94 77.82"/><polygon class="cls-14" points="107.11 67.23 107.11 65.61 105.71 64.8 104.31 65.61 104.31 67.23 105.71 68.05 107.11 67.23"/><path class="cls-17" d="M139.78,51.82l2.53,2.06s.62,0,.81.21A5.49,5.49,0,0,1,144,56c-.11.21-1.36.62-1.62.38a5.83,5.83,0,0,1-.71-1.8l-3.24-2.17Z"/><path class="cls-18" d="M141.18,52.72,140.62,54s-3.48-1.63-4.24-2.58c-.19-.24-.46-.63-.75-1.08-.47-.73-1-1.62-1.38-2.24l-.46-.78,2-3.11c.43.33,1.75,5.64,2,5.93S141.18,52.72,141.18,52.72Z"/><path class="cls-19" d="M135.63,50.3c-.47-.73-1-1.62-1.38-2.24l.92-2.26A26.32,26.32,0,0,1,135.63,50.3Z"/><path class="cls-17" d="M119.59,40l-2.67-1.89s-.31-.54-.59-.6a5.24,5.24,0,0,0-2.09.23c-.13.19.14,1.48.48,1.59a6,6,0,0,0,1.92-.28L119.35,41Z"/><polygon class="cls-17" points="140.65 93.25 139.16 93.52 138.54 91.48 137.98 89.61 139.71 89.01 140.21 91.26 140.65 93.25"/><polygon class="cls-19" points="140.21 91.3 138.55 91.52 137.99 89.63 139.71 89.02 140.21 91.3"/><polygon class="cls-17" points="130.68 93.29 129.16 93.29 128.91 91.26 128.69 89.36 130.49 89.08 130.59 91.31 130.68 93.29"/><polygon class="cls-19" points="130.59 91.45 128.91 91.37 128.69 89.42 130.49 89.11 130.59 91.45"/><path class="cls-7" d="M140.35,89.67l-2.45.43c-2.48-6.17-4.24-11.32-5.48-15.6-.67-2.3-1.2-4.35-1.61-6.17l.11,6.71V90.2h-2.48c-6.06-28.78-1.76-35.47-1.76-35.47l7.25-1.22a33.57,33.57,0,0,1,.61,4.08l.32,2.4,2.84,14.65Z"/><polygon class="cls-7" points="137.51 89.8 140.56 88.79 140.52 90.08 138 90.89 137.51 89.8"/><polygon class="cls-8" points="137.51 89.8 140.56 88.79 140.52 90.08 138 90.89 137.51 89.8"/><polygon class="cls-7" points="128.12 89.94 131.29 89.47 131.03 90.74 128.41 91.1 128.12 89.94"/><polygon class="cls-8" points="128.12 89.94 131.29 89.47 131.03 90.74 128.41 91.1 128.12 89.94"/><path class="cls-19" d="M132.75,75.63c-.11-.38-.24-.76-.34-1.13-.61-2.09-1-4-1.49-5.66h0l-.25-3.11s1.55-3.42,1-5.82a11.6,11.6,0,0,1,.68,5.37A75.49,75.49,0,0,0,132.75,75.63Z"/><path class="cls-17" d="M133,41.05l-.06,0a3,3,0,0,1-1,.33,2.1,2.1,0,0,1-2-.63h0a4.49,4.49,0,0,1-.25-3.36,5.51,5.51,0,0,1,.52-1.62,0,0,0,0,0,0,0l0-.05a1.94,1.94,0,0,1,1.59-1,3.48,3.48,0,0,1,.85,0C135.39,35.07,135.3,39.74,133,41.05Z"/><path class="cls-19" d="M132.9,41.09a2.71,2.71,0,0,1-1,.29,2.11,2.11,0,0,1-2-.66,2.78,2.78,0,0,0,1.78.08A1.46,1.46,0,0,1,132.9,41.09Z"/><path class="cls-17" d="M133.1,43.36c.25.78-.74,1.2-.74,1.2-1.76-.55-2.16-1.41-2.16-1.41,1.34-.87.73-2.9.73-2.9l.3.11,2,.19s-.45,1.12-.5,1.38h0C132.51,43.24,133.1,43.36,133.1,43.36Z"/><path class="cls-18" d="M130.13,35.79a3,3,0,0,0,1.34,3s.52,2.12,1.69,2.3c1.58.25,3.28-1.83,3-4.21C135.87,33.81,131.37,33,130.13,35.79Z"/><path class="cls-17" d="M130.6,38.11c0-.3.35-.78.82-.65s.59,1.38-.65,1.49C130.6,39,130.52,38.75,130.6,38.11Z"/><path class="cls-18" d="M129,93h1.7a.16.16,0,0,1,.15.12l.34,1.57a.26.26,0,0,1-.2.31h-.05c-.7,0-.75-.06-1.62-.06-.54,0-2.15.06-2.89.06s-.84-.73-.54-.8a7,7,0,0,0,2.82-1.09A.4.4,0,0,1,129,93Z"/><path class="cls-7" d="M128.42,93.31a.52.52,0,0,1-.34-.09A.26.26,0,0,1,128,93a.13.13,0,0,1,.08-.12c.19-.1.76.25.82.29s0,0,0,0,0,0,0,0A1.76,1.76,0,0,1,128.42,93.31Zm-.26-.36h-.06s0,0,0,.05a.17.17,0,0,0,0,.15.86.86,0,0,0,.63,0A1.65,1.65,0,0,0,128.16,93Z"/><path class="cls-7" d="M128.87,93.25h0c-.18-.1-.53-.49-.5-.67a.14.14,0,0,1,.14-.11.21.21,0,0,1,.17,0c.21.17.25.67.25.7a0,0,0,0,1,0,0Zm-.35-.72h0c-.06,0-.06,0-.06,0s.2.41.38.54a1,1,0,0,0-.21-.55A.18.18,0,0,0,128.52,92.53Z"/><path class="cls-18" d="M139.1,93h1.69a.16.16,0,0,1,.15.12l.35,1.57a.26.26,0,0,1-.2.31H141c-.69,0-.75-.06-1.62-.06-.53,0-2.15.06-2.89.06s-.84-.73-.53-.8a6.9,6.9,0,0,0,2.81-1.09A.42.42,0,0,1,139.1,93Z"/><path class="cls-7" d="M138.51,93.31a.49.49,0,0,1-.33-.09.24.24,0,0,1-.09-.22.14.14,0,0,1,.07-.12c.2-.1.76.25.83.29l0,0s0,0,0,0A1.84,1.84,0,0,1,138.51,93.31Zm-.26-.36h-.05s0,0,0,.05a.18.18,0,0,0,.06.15.86.86,0,0,0,.63,0A1.69,1.69,0,0,0,138.25,93Z"/><path class="cls-7" d="M139,93.25h0c-.18-.1-.53-.49-.49-.67a.13.13,0,0,1,.13-.11.23.23,0,0,1,.18,0,1.28,1.28,0,0,1,.25.7.08.08,0,0,1,0,0Zm-.35-.72h0a.06.06,0,0,0-.06,0c0,.11.2.41.38.54a.94.94,0,0,0-.21-.55A.13.13,0,0,0,138.61,92.53Z"/><path class="cls-18" d="M126.68,54.75s-1.39-8.43,1-12.21c0,0,4.75-.29,8.09,1.63a36.73,36.73,0,0,0-1.58,10.58Z"/><path class="cls-19" d="M126.24,48.3a20,20,0,0,1,.29-3.22,9.14,9.14,0,0,0,1.56-1.78S128.52,46.72,126.24,48.3Z"/><path class="cls-18" d="M128.26,42.52s-4.71-.55-5.42-.84c-.44-.19-3.9-2.45-3.9-2.45l-.81,1.21s3.54,2.86,4.14,3.18a41.47,41.47,0,0,0,4.55,1.86S128.73,44.16,128.26,42.52Z"/><path class="cls-18" d="M135.17,35.37a3.11,3.11,0,0,1,3.22-.51c1.6.86-.27,4.19.2,5.21s1.49.94.21,1.62,0,1.22,0,1.22-1.15.39-1.25-.55a2.44,2.44,0,0,0-.88-1.89c-.37-.16.63-2,.29-2.84a1.38,1.38,0,0,0-1.36-.81Z"/><path class="cls-18" d="M132.61,34.74s-2-1.28-3-.37c-1.48,1.4.63,3.41,2.86,4.37Z"/><g id="_Group_" data-name="&lt;Group&gt;"><path class="cls-7" d="M89.43,60.52,72.75,42a4.07,4.07,0,0,0-4.44-5.7.29.29,0,0,0-.17.47l2.19,2.44a.38.38,0,0,1,.08.35L69.93,41a.33.33,0,0,1-.27.24l-1.49.32a.35.35,0,0,1-.34-.11L65.64,39a.29.29,0,0,0-.49.12,4.07,4.07,0,0,0,5.19,5L87,62.68a4.07,4.07,0,0,0,4.44,5.7.29.29,0,0,0,.17-.47l-2.19-2.44a.35.35,0,0,1-.08-.35l.48-1.45a.33.33,0,0,1,.26-.24l1.5-.32a.37.37,0,0,1,.34.11l2.19,2.44a.29.29,0,0,0,.49-.12,4.07,4.07,0,0,0-5.19-5Z"/><path class="cls-20" d="M89.43,60.52,72.75,42a4.07,4.07,0,0,0-4.44-5.7.29.29,0,0,0-.17.47l2.19,2.44a.38.38,0,0,1,.08.35L69.93,41a.33.33,0,0,1-.27.24l-1.49.32a.35.35,0,0,1-.34-.11L65.64,39a.29.29,0,0,0-.49.12,4.07,4.07,0,0,0,5.19,5L87,62.68a4.07,4.07,0,0,0,4.44,5.7.29.29,0,0,0,.17-.47l-2.19-2.44a.35.35,0,0,1-.08-.35l.48-1.45a.33.33,0,0,1,.26-.24l1.5-.32a.37.37,0,0,1,.34.11l2.19,2.44a.29.29,0,0,0,.49-.12,4.07,4.07,0,0,0-5.19-5Z"/><path class="cls-21" d="M70.58,38.63s-5,.65-5.59,1.53-.68,1.71,2.25,2.55l.85-.63s-1.21-.46-1.07-.75,3.56-.18,3.56-.18Z"/><path class="cls-7" d="M72.44,38.57,71.75,41l-1.15.18-2.43.37-.07-1L68,38.63A13.21,13.21,0,0,1,72.44,38.57Z"/><path class="cls-19" d="M71.22,39.59l-.62,1.56-2.43.37-.07-1A5.8,5.8,0,0,1,71.22,39.59Z"/><polygon class="cls-21" points="70.74 93.24 72.67 93.44 72.77 92.32 73.03 89.28 71.11 89.08 70.81 92.44 70.74 93.24"/><polygon class="cls-21" points="61.12 92.99 62.98 92.99 63 92.57 63 92.52 63.1 89.81 63.1 89.75 63.14 88.71 61.27 88.71 61.12 92.99"/><polygon class="cls-19" points="71.11 89.08 70.81 92.44 72.77 92.32 73.03 89.28 71.11 89.08"/><polygon class="cls-19" points="61.13 92.75 61.13 92.75 63 92.52 63 92.52 63.1 89.9 63.1 89.9 61.23 90.05 61.13 92.67 61.13 92.75"/><path class="cls-18" d="M63.24,92.88H61a.17.17,0,0,0-.16.13l-.37,1.66a.28.28,0,0,0,.22.33h.06C61.45,95,62,95,62.91,95c.57,0,2.28.06,3.07.06s.89-.78.57-.85a7.36,7.36,0,0,1-3-1.16A.47.47,0,0,0,63.24,92.88Z"/><path class="cls-18" d="M72.88,92.82H70.61a.15.15,0,0,0-.16.13l-.37,1.66a.28.28,0,0,0,.21.33h.06c.74,0,1.27-.06,2.19-.06.57,0,2.29.06,3.07.06s.89-.78.57-.85a7.43,7.43,0,0,1-3-1.16A.45.45,0,0,0,72.88,92.82Z"/><path class="cls-18" d="M73.21,92H70.47s-.79-23.71-3.75-31.68c.36,14.82-3.13,31.92-3.13,31.92H60.88S62.11,78.89,62.11,73c0-10.37-2.84-15.44-.07-22.15H72C74.39,65.53,75.33,75.87,73.21,92Z"/><polygon class="cls-7" points="73.52 91.27 73.39 92.04 70.14 92.04 70.14 91.33 73.52 91.27"/><polygon class="cls-7" points="63.9 91.57 63.59 92.28 60.87 92.28 60.69 91.57 63.9 91.57"/><path class="cls-21" d="M80.51,39.44l-.22.16a2.51,2.51,0,0,1-1.48.44l-.4,0a2.34,2.34,0,0,1-2-2c-.19-1.31.48-2.18,1.5-3.73a2.53,2.53,0,0,1,4.32.06C83.26,36,81.82,38.34,80.51,39.44Z"/><path class="cls-19" d="M78.81,40l-.4,0a2.39,2.39,0,0,1-1.68-1.14,2.58,2.58,0,0,1,.64-.3A3.66,3.66,0,0,1,78.81,40Z"/><path class="cls-21" d="M74.39,39.75C74.63,41,76.61,42,76.61,42S78,42.57,78,42a1.54,1.54,0,0,1-.51-1.63,2.25,2.25,0,0,1,.49-.8,3.32,3.32,0,0,1,.37-.38l-1-3.29C76.81,37.24,75.69,39.5,74.39,39.75Z"/><path class="cls-18" d="M83.07,34.53c-.2-1.13-.77-1.18-.77-1.18-.06-.9-2.18-1.81-3.57-1.52A3.94,3.94,0,0,0,76,34.48a9,9,0,0,0-.22,3.68h0c1.12.86,2.29,1,2.65.38a2.19,2.19,0,0,1,1.23-.85c.54.47,1.39,0,1.39,0a1.8,1.8,0,0,0,1.12-1.27C82.35,35.49,83.24,35.48,83.07,34.53Z"/><path class="cls-21" d="M79.64,37.16a1.16,1.16,0,0,0,0,1c.2.36.72.08,1-.4s.46-1.14.08-1.3S79.83,36.68,79.64,37.16Z"/><path class="cls-18" d="M79.88,31.82c2.09-.62,3.77,2.81,3.69,4.62-.07,1.48-1.62,1.3-1.62,1.3a.9.9,0,0,0,.77-1.1s-.37,1.27-1.2.44.16-2.81.16-2.81Z"/><path class="cls-19" d="M66.49,70.05a68.41,68.41,0,0,0-1-6.84,6.7,6.7,0,0,1-1.28-6.79,7.37,7.37,0,0,0,2.56,3.94C66.79,63.55,66.69,66.84,66.49,70.05Z"/><path class="cls-7" d="M74.39,39.21s.6-.45,1.72.21a3.66,3.66,0,0,1,1.48,1.92Z"/><path class="cls-7" d="M73,55.57s0-5.79,6.06-12.79c0,0-2.72-3.79-6.65-4.21,0,0-7.24,2.48-11.19,13.08Z"/><path class="cls-8" d="M79.08,42.78c-.64.74-1.21,1.47-1.72,2.18A27,27,0,0,0,75,48.9,16.8,16.8,0,0,0,73,55.57L61.25,51.65c4-10.6,11.19-13.08,11.19-13.08C76.37,39,79.08,42.78,79.08,42.78Z"/><path class="cls-7" d="M73.11,54.74c0,.2,0,.36-.06.49l-11.64-4,.18-.44Z"/><path class="cls-7" d="M73.31,53.56c0,.17-.07.33-.09.48-4-1.56-8.63-3.3-11.23-4.2.06-.15.13-.29.2-.43C65.09,50.41,70.11,52.33,73.31,53.56Z"/><path class="cls-7" d="M73.62,52.37c-.05.16-.09.31-.13.46-3.2-1.38-8-3.42-10.85-4.35l.22-.42C65.73,49,70.45,51,73.62,52.37Z"/><path class="cls-7" d="M74,51.15c-.06.16-.11.31-.16.46a89.13,89.13,0,0,0-10.5-4.45c.08-.15.17-.29.25-.42A90.37,90.37,0,0,1,74,51.15Z"/><path class="cls-7" d="M74.51,49.92c-.07.15-.13.3-.19.45a58.32,58.32,0,0,0-10.16-4.5l.28-.42A58.89,58.89,0,0,1,74.51,49.92Z"/><path class="cls-7" d="M75.09,48.68c-.08.14-.15.29-.22.44a42.81,42.81,0,0,0-9.82-4.51l.32-.41A43.38,43.38,0,0,1,75.09,48.68Z"/><path class="cls-7" d="M75.76,47.43c-.09.15-.16.29-.24.43a34.46,34.46,0,0,0-9.47-4.48l.36-.4A34.7,34.7,0,0,1,75.76,47.43Z"/><path class="cls-7" d="M76.5,46.22l-.26.4a28.32,28.32,0,0,0-9.07-4.43l.41-.39A29.64,29.64,0,0,1,76.5,46.22Z"/><path class="cls-7" d="M77.33,45l-.28.39A24.54,24.54,0,0,0,68.45,41l.46-.37A25.54,25.54,0,0,1,77.33,45Z"/><path class="cls-7" d="M78.23,43.81l-.29.37a21.72,21.72,0,0,0-8-4.25l.53-.34A22.23,22.23,0,0,1,78.23,43.81Z"/><path class="cls-7" d="M79.08,42.78,78.9,43a19.63,19.63,0,0,0-7.24-4.09,5.4,5.4,0,0,1,.65-.29A20,20,0,0,1,78.41,42h0A8.74,8.74,0,0,1,79.08,42.78Z"/><path class="cls-19" d="M77.36,45A27,27,0,0,0,75,48.9a6,6,0,0,1,2.2-4.72Z"/><path class="cls-21" d="M79.09,44.57V51.9L81.92,57l1.17,1.3s-1.36.84-1.74.3A9.12,9.12,0,0,1,80.6,57s-2.82-3.79-3.26-4.69-.61-6.38-.61-6.38Z"/><path class="cls-7" d="M79.09,42.78a28.59,28.59,0,0,1,.44,5.45l-3.17.28-.25-1.67a5.82,5.82,0,0,1,1.09-3A2.65,2.65,0,0,1,79.09,42.78Z"/></g></g></g></svg>