<svg xmlns="http://www.w3.org/2000/svg" xmlns:xlink="http://www.w3.org/1999/xlink" viewBox="0 0 188.22 97.23"><defs><style>.cls-1{isolation:isolate;}.cls-2{fill:#ebf3fa;}.cls-3{fill:#a8d29f;}.cls-4{fill:#82b378;}.cls-5{fill:#c7dcfb;}.cls-6{fill:#dfebfd;}.cls-7{fill:#2e3552;}.cls-8{fill:#ec7641;}.cls-9{fill:#ecc060;}.cls-10{fill:#fff;}.cls-11{fill:#163560;}.cls-12{fill:#ffb27d;}.cls-13{fill:#f9ddbf;}.cls-14{fill:#f2ccaa;}.cls-15{fill:#233862;}.cls-16{fill:#e8945b;}.cls-17{fill:#ed7d2b;}.cls-18{fill:#f99746;}.cls-19{fill:#b5453c;}.cls-20{fill:#025aa2;}.cls-21{opacity:0.45;mix-blend-mode:multiply;fill:url(#linear-gradient);}.cls-22{fill:#7fd2ef;}.cls-23{fill:#46bfe0;}</style><linearGradient id="linear-gradient" x1="157.36" y1="39.4" x2="157.36" y2="52.06" gradientTransform="translate(-9.47 40.25) rotate(-2.27)" gradientUnits="userSpaceOnUse"><stop offset="0.37" stop-color="#86cf94"/><stop offset="0.99" stop-color="#008166"/></linearGradient></defs><title>Perusahaan</title><g class="cls-1"><g id="Layer_2" data-name="Layer 2"><g id="Layer_2-2" data-name="Layer 2"><path class="cls-2" d="M14.35,97.18S-7.22,74,10.7,49c15.9-22.24,34.43-20.72,48-11.69,5.79,3.84,22.49.47,36.71-22.16C114.82-15.76,182,3,169.76,50.45c-5.93,23,18,23.81,5.83,46.78Z"/><path class="cls-3" d="M55.76,52.27S45.09,37.08,40.92,39.05,55.76,52.27,55.76,52.27Z"/><path class="cls-3" d="M55.08,48.19s-1.63-11.42-4.2-11S55.08,48.19,55.08,48.19Z"/><path class="cls-4" d="M46.06,83.78s1-5.08-3-5.72a9.06,9.06,0,0,0-4.29.92s4.52,2.61,4,3.42S38,79.13,38,79.13s-4.84,2.12-5.92,3.66c0,0,5.72,1,5,1.67s-6.73-.13-6.73-.13-3.86,3.12-2.18,5.6,3.61,2.46,4.22,2,3.59-4,4-3.51-.93,3.49-2.48,4.47c0,0,4.87,1.64,6.34-.44s.79-3.7,1.72-5,2-1.87,1.8-1-2.13,2.7-2.14,4.36-.17,2.87,1.73,1.41,4.42-4.87,3.59-6.69Z"/><path class="cls-4" d="M30.28,88.83s11.36-6.94,15.78-5a9.65,9.65,0,0,0,4.13,2l.68.59s-3.19-1-4-.72C46.88,85.6,45.71,80.86,30.28,88.83Z"/><path class="cls-4" d="M50.19,85.73a8.33,8.33,0,0,1,5.53,3.65l-.43.29s-2.7-3-4.88-3.49S50.19,85.73,50.19,85.73Z"/><path class="cls-3" d="M49.54,69s8.25-4.62,4.4-10.89c0,0-3.08-3.85-6.38-4.84,0,0,1.76,9.35,0,9.57s-1.21-10.56-1.21-10.56-8.69-4.18-12.1-3.85c0,0,5.39,9.13,3.63,8.91s-7.81-9.46-7.81-9.46-8.91-1.65-10.34,3.63.88,7.92,2.2,8.25,9.79.22,9.57,1.32-5.94,2.86-9.13,1.87c0,0,3.52,8.69,8.14,8.25s6.05-3.3,8.91-3.52,4.95.55,3.52,1.32-6.27.26-8.58,2.22-4.18,3.17.11,4,12,.33,13.53-3Z"/><path class="cls-4" d="M23.8,53.11S46.9,60.59,49.54,69a17.55,17.55,0,0,0,2.2,8v1.65S49.32,73,48,72.25C48,72.25,53.17,65,23.8,53.11Z"/><path class="cls-4" d="M51.74,77a15.25,15.25,0,0,1,1.53,12l-.92-.25s.89-7.25-1-10.9S51.74,77,51.74,77Z"/><path class="cls-5" d="M140,48.57s-5.55-3.54-2.62-7.75c0,0,2.29-2.55,4.63-3.11,0,0-1.6,6.43-.38,6.65s1.26-7.29,1.26-7.29,6.21-2.56,8.57-2.2c0,0-4.12,6.14-2.88,6.06s5.81-6.27,5.81-6.27,6.26-.79,7,2.94-.93,5.47-1.86,5.64-6.82-.23-6.71.54,4,2.23,6.28,1.67c0,0-2.8,5.9-6,5.41s-4.08-2.54-6.06-2.81-3.46.19-2.5.78,4.35.43,5.88,1.88,2.78,2.38-.24,2.82-8.35-.25-9.29-2.61Z"/><path class="cls-5" d="M158.5,38.58s-16.36,4.28-18.53,10a12.17,12.17,0,0,1-1.85,5.49l-.06,1.15s1.9-3.8,2.85-4.29C140.91,50.92,137.61,45.67,158.5,38.58Z"/><path class="cls-5" d="M138.12,54.06a10.62,10.62,0,0,0-1.54,8.28l.65-.13s-.33-5.08,1.11-7.54S138.12,54.06,138.12,54.06Z"/><path class="cls-6" d="M125,33.19s-8.53-1.87-6.8-8.44c0,0,1.69-4.23,4.34-6,0,0,1,8.74,2.56,8.46s-1.76-9.66-1.76-9.66,6.57-6,9.67-6.65c0,0-2.32,9.52-.82,8.85s4.37-10.45,4.37-10.45,7.43-3.85,10.11.44S148,17,147,17.63s-8.59,2.82-8.1,3.73,6,.94,8.57-.79c0,0-.78,8.62-5,9.47s-6.24-1.3-8.82-.72-4.23,1.81-2.76,2.11,5.61-1.46,8.18-.34,4.54,1.68,1,3.61-10.51,3.5-12.76,1Z"/><path class="cls-6" d="M143.53,12.29S125.12,25.1,125,33.19a16.24,16.24,0,0,1,.21,7.69l.44,1.46s.64-5.61,1.6-6.64C127.27,35.7,120.75,30.67,143.53,12.29Z"/><path class="cls-6" d="M125.23,40.88a14.09,14.09,0,0,0,1.86,11l.75-.47s-2.73-6.17-2.06-9.89S125.23,40.88,125.23,40.88Z"/><path class="cls-4" d="M168.11,96.62h-6.32c-.34-.29.23-.94.83-1a3.75,3.75,0,0,1,1,.12c.08-1.16.58-6.35,2.45-6.14,2.11.23,0,2.28-.59,3.5a28.44,28.44,0,0,0-1.12,2.8l.53.11c.28-.86,1.32-3.74,2.64-3.57,1.55.19.92,1.35-.18,2-.8.5-1.79,1.22-2.26,1.56a6.25,6.25,0,0,0,1.23.1A2.69,2.69,0,0,1,168.11,96.62Z"/><path class="cls-4" d="M23.81,96.32c-.33-.53-1.34-1.9-2.68-1.71s1.61,1.16,2.55,1.71a1.55,1.55,0,0,1-.52-.06,3.54,3.54,0,0,0-2.05.36h6a.93.93,0,0,0-.43-.55,1.07,1.07,0,0,0-.55,0c.35-.42.6-1.76-.39-1.42-.73.25-.73,1.07-.65,1.56l-.47.07c-.3-1.52-1.36-6-3.5-6.1S23,94.76,24.3,96.27Z"/><rect class="cls-7" y="96.55" width="188.22" height="0.5" rx="0.15"/><path class="cls-8" d="M74.53,40.66A14.31,14.31,0,0,1,77,40.5c5.48,0,11,0,16.45-.06h1.17c.31-.38.19-.76.2-1.12q0-4.93,0-9.89V25.34c-.23,0-.45-.07-.68-.08-.47,0-.94,0-1.41-.06s-.61-.21-.63-.64a6.17,6.17,0,0,1,.1-1.95,5.62,5.62,0,0,1,.57-.09l2-.09a1.8,1.8,0,0,0,.15-1.05c0-.7,0-1.41,0-2.11,0-.5.19-.66.69-.7.8-.06,1.61-.1,2.41-.1l14,0c1.35,0,2.69,0,4,0,.27,0,.54,0,.8,0a.58.58,0,0,1,.63.54,4.28,4.28,0,0,1,.11.8c0,.53,0,1.07,0,1.61,0,.3,0,.59,0,.91.84.24,1.66,0,2.51.21a2.16,2.16,0,0,1,.15.62,6.08,6.08,0,0,1-.13,2.2,19.62,19.62,0,0,0-3,0c0,5,0,10,.06,15,.32,0,.57.08.83.08h19.07c.31,0,.61,0,.91,0a.78.78,0,0,1,.72.61,2.42,2.42,0,0,1,.09.6c0,.4,0,.8,0,1.21l0,49.95c0,.53,0,1.07,0,1.53a2.11,2.11,0,0,1-1.85.75q-26.53,0-53.08,0-3.74,0-7.47,0c-.67,0-1.34-.08-2-.11a1.61,1.61,0,0,1-.24-1.12q0-11.76,0-23.52,0-14,0-28A4.46,4.46,0,0,1,74.53,40.66ZM95.78,25.38q-.07,33.93-.14,67.79V94a1.92,1.92,0,0,0,1.15.17c2.59,0,5.18,0,7.77,0h10.79a1.67,1.67,0,0,0,1.16-.21c.1-2.22,0-4.5,0-6.78s0-4.57,0-6.86,0-4.57,0-6.86,0-4.57,0-6.86V59.75c0-2.28,0-4.57,0-6.86s0-4.57,0-6.86,0-4.56,0-6.85,0-4.57,0-6.85,0-4.56,0-6.88c-.33,0-.59-.07-.85-.07Zm21.61,16.09c-.17,17.56.07,35.08-.14,52.64.3,0,.56.07.82.07h19.17a5.69,5.69,0,0,0,.74-.09c.05-.56.14-1.09.14-1.62,0-1.88,0-3.77,0-5.65L138.17,42a5,5,0,0,0-.06-.56C137.26,41.34,118.38,41.34,117.39,41.47ZM94.92,94.09c0-.28,0-.54,0-.81,0-1.41,0-2.82,0-4.23q0-17.67,0-35.33c0-3.73,0-7.47,0-11.2a2.25,2.25,0,0,0-.13-1.13l-1.1,0L76,41.26a5.37,5.37,0,0,0-.72.1v1.15q0,23.67,0,47.34c0,1,0,2.08,0,3.13,0,.41-.07.83-.11,1.29l19.43-.08A1.94,1.94,0,0,0,94.92,94.09Zm.76-71.81c.09.07.11.1.14.11a.45.45,0,0,0,.19.05H116c.27,0,.54,0,.81,0a.16.16,0,0,0,.09,0l.08-.06a8.78,8.78,0,0,0,0-3c-.28,0-.57,0-.87,0l-19.75,0a4.62,4.62,0,0,0-.6.07A22.71,22.71,0,0,0,95.68,22.28Zm-2.8,2.19,26.41,0a1.11,1.11,0,0,0,.31-.1,2.59,2.59,0,0,0-.06-1.1l-.63-.05H117.1L93.52,23.2a3.8,3.8,0,0,0-.7.1Z"/><path class="cls-8" d="M116.51,87.19c0-2.29,0-4.57,0-6.86s0-4.57,0-6.86,0-4.57,0-6.86V59.75c0-2.28,0-4.57,0-6.86s0-4.57,0-6.86,0-4.56,0-6.85,0-4.57,0-6.85,0-4.56,0-6.88c-.33,0-.59-.07-.85-.07H95.78q-.06,33.93-.14,67.79V94a1.92,1.92,0,0,0,1.15.17c2.59,0,5.18,0,7.77,0h10.79a1.67,1.67,0,0,0,1.16-.21C116.61,91.75,116.52,89.47,116.51,87.19Z"/><path class="cls-9" d="M117.39,41.47c1-.13,19.87-.13,20.72,0a5,5,0,0,1,.06.56l-.06,44.81c0,1.88,0,3.77,0,5.65,0,.53-.09,1.06-.14,1.62a5.69,5.69,0,0,1-.74.09H118.07c-.26,0-.52,0-.82-.07C117.46,76.55,117.22,59,117.39,41.47Z"/><path class="cls-9" d="M94.91,89.05q0-17.67,0-35.33c0-3.73,0-7.47,0-11.2a2.25,2.25,0,0,0-.13-1.13l-1.1,0L76,41.26a5.37,5.37,0,0,0-.72.1v1.15q0,23.67,0,47.34c0,1,0,2.08,0,3.13,0,.41-.07.83-.11,1.29l19.43-.08a1.94,1.94,0,0,0,.42-.1c0-.28,0-.54,0-.81C94.94,91.87,94.91,90.46,94.91,89.05Z"/><path class="cls-8" d="M95.68,22.28a22.71,22.71,0,0,1,0-3,4.62,4.62,0,0,1,.6-.07l19.75,0c.3,0,.59,0,.87,0a8.78,8.78,0,0,1,0,3l-.08.06a.16.16,0,0,1-.09,0c-.27,0-.54,0-.81,0H96a.45.45,0,0,1-.19-.05S95.77,22.35,95.68,22.28Z"/><path class="cls-9" d="M92.88,24.47l-.06-1.17a3.8,3.8,0,0,1,.7-.1l23.58.05h1.81l.63.05a2.59,2.59,0,0,1,.06,1.1,1.11,1.11,0,0,1-.31.1Z"/><path class="cls-10" d="M99,60.13q0,14.48-.08,28.95c0,.75,0,1.51,0,2.27a3.46,3.46,0,0,1-.16.84.28.28,0,0,1-.23.14.3.3,0,0,1-.23-.16,4,4,0,0,1-.15-.84c0-.94,0-1.88-.05-2.82,0-9,0-17.92,0-26.88q0-16,0-32a7.81,7.81,0,0,1,0-1.08.4.4,0,0,1,.42-.38.42.42,0,0,1,.4.4,7.88,7.88,0,0,1,0,1q0,8.52,0,17c0,4.52,0,9,0,13.55Z"/><path class="cls-10" d="M102.8,60.13q0,14.48-.08,28.95c0,.75,0,1.51,0,2.27a4,4,0,0,1-.16.84.28.28,0,0,1-.23.14.3.3,0,0,1-.23-.16,4,4,0,0,1-.15-.84c0-.94,0-1.88,0-2.82,0-9,0-17.92,0-26.88q0-16,0-32a7.82,7.82,0,0,1,.06-1.08.4.4,0,0,1,.41-.38.42.42,0,0,1,.41.4,7.88,7.88,0,0,1,.05,1q0,8.52,0,17c0,4.52,0,9,0,13.55Z"/><path class="cls-10" d="M106.59,60.13q0,14.48-.08,28.95c0,.75,0,1.51,0,2.27a4.79,4.79,0,0,1-.16.84c0,.07-.16.14-.24.14a.29.29,0,0,1-.22-.16,4,4,0,0,1-.15-.84c0-.94,0-1.88,0-2.82,0-9,0-17.92,0-26.88q0-16,0-32a7.82,7.82,0,0,1,.06-1.08.39.39,0,0,1,.41-.38.42.42,0,0,1,.41.4,7.88,7.88,0,0,1,0,1q0,8.52,0,17c0,4.52,0,9,0,13.55Z"/><path class="cls-10" d="M110.38,60.13q0,14.48-.08,28.95c0,.75,0,1.51,0,2.27a4,4,0,0,1-.15.84c0,.07-.16.14-.24.14a.29.29,0,0,1-.22-.16,4,4,0,0,1-.15-.84c0-.94,0-1.88,0-2.82q0-13.44,0-26.88,0-16,0-32a9.76,9.76,0,0,1,0-1.08.4.4,0,0,1,.42-.38.42.42,0,0,1,.41.4,7.88,7.88,0,0,1,0,1q0,8.52,0,17V60.13Z"/><path class="cls-10" d="M114.17,60.13q0,14.48-.08,28.95c0,.75,0,1.51,0,2.27a4,4,0,0,1-.15.84c0,.07-.16.14-.24.14a.29.29,0,0,1-.22-.16,4,4,0,0,1-.15-.84c0-.94,0-1.88,0-2.82q0-13.44,0-26.88,0-16,0-32a9.76,9.76,0,0,1,0-1.08.4.4,0,0,1,.42-.38.42.42,0,0,1,.41.4c0,.32,0,.65,0,1q0,8.52,0,17V60.13Z"/><path class="cls-10" d="M87.49,44.9c0,1.51,0,2.89,0,4.27a1.63,1.63,0,0,1-.07.31,2.66,2.66,0,0,1-.39.07c-1.37,0-2.75,0-4.13,0a.64.64,0,0,1-.26-.1A26.72,26.72,0,0,1,82.55,45a9.63,9.63,0,0,1,2.46-.1A18.88,18.88,0,0,1,87.49,44.9Z"/><path class="cls-10" d="M77.32,44.87c1.49,0,2.93,0,4.4,0a7.91,7.91,0,0,1,.1,2.32,8.3,8.3,0,0,1-.1,2.28,23.3,23.3,0,0,1-4.31.11A20.66,20.66,0,0,1,77.32,44.87Z"/><path class="cls-10" d="M92.54,49.45a17,17,0,0,1-4.28,0V45a.93.93,0,0,1,.32-.12c1.24,0,2.48,0,3.73,0a.82.82,0,0,1,.24.09,5.73,5.73,0,0,1,0,1.44c0,.54,0,1.08,0,1.62A10.08,10.08,0,0,1,92.54,49.45Z"/><path class="cls-10" d="M87.49,55.39c0,1.51,0,2.89,0,4.27a1.48,1.48,0,0,1-.07.31,2.7,2.7,0,0,1-.39.08H82.89a1.17,1.17,0,0,1-.26-.1,26.87,26.87,0,0,1-.08-4.49,9.63,9.63,0,0,1,2.46-.1A18.88,18.88,0,0,1,87.49,55.39Z"/><path class="cls-10" d="M77.32,55.36c1.49,0,2.93,0,4.4,0a7.83,7.83,0,0,1,.1,2.31,8.3,8.3,0,0,1-.1,2.28,23.3,23.3,0,0,1-4.31.11A20.66,20.66,0,0,1,77.32,55.36Z"/><path class="cls-10" d="M92.54,59.94a17,17,0,0,1-4.28,0V55.47a.93.93,0,0,1,.32-.12c1.24,0,2.48,0,3.73,0a.82.82,0,0,1,.24.09,5.73,5.73,0,0,1,0,1.44c0,.54,0,1.08,0,1.62A10.08,10.08,0,0,1,92.54,59.94Z"/><path class="cls-10" d="M87.49,65.88c0,1.51,0,2.89,0,4.27a1.48,1.48,0,0,1-.07.31,1.8,1.8,0,0,1-.39.08H82.89a.82.82,0,0,1-.26-.1,26.87,26.87,0,0,1-.08-4.49,9.63,9.63,0,0,1,2.46-.1A18.88,18.88,0,0,1,87.49,65.88Z"/><path class="cls-10" d="M77.32,65.85c1.49,0,2.93,0,4.4,0a7.84,7.84,0,0,1,.1,2.31,8.3,8.3,0,0,1-.1,2.28,24.16,24.16,0,0,1-4.31.12A20.77,20.77,0,0,1,77.32,65.85Z"/><path class="cls-10" d="M92.54,70.44a17,17,0,0,1-4.28,0V66a.93.93,0,0,1,.32-.12c1.24,0,2.48,0,3.73,0a.82.82,0,0,1,.24.09,5.73,5.73,0,0,1,0,1.44c0,.54,0,1.08,0,1.62A10.27,10.27,0,0,1,92.54,70.44Z"/><path class="cls-10" d="M87.49,76.37c0,1.52,0,2.89,0,4.27a1.48,1.48,0,0,1-.07.31A1.8,1.8,0,0,1,87,81H82.89a.82.82,0,0,1-.26-.1,26.75,26.75,0,0,1-.08-4.48A9.2,9.2,0,0,1,85,76.33,18.88,18.88,0,0,1,87.49,76.37Z"/><path class="cls-10" d="M77.32,76.34c1.49,0,2.93,0,4.4,0a7.85,7.85,0,0,1,.1,2.31,8.28,8.28,0,0,1-.1,2.28,23.26,23.26,0,0,1-4.31.12A20.77,20.77,0,0,1,77.32,76.34Z"/><path class="cls-10" d="M92.54,80.93a17,17,0,0,1-4.28,0V76.45a.93.93,0,0,1,.32-.12l3.73,0a.82.82,0,0,1,.24.09,5.8,5.8,0,0,1,0,1.45c0,.53,0,1.07,0,1.61A10.22,10.22,0,0,1,92.54,80.93Z"/><path class="cls-10" d="M87.49,86.86c0,1.52,0,2.89,0,4.27a1.48,1.48,0,0,1-.07.31,1.8,1.8,0,0,1-.39.08H82.89a.82.82,0,0,1-.26-.1,26.75,26.75,0,0,1-.08-4.48A9.2,9.2,0,0,1,85,86.82,18.88,18.88,0,0,1,87.49,86.86Z"/><path class="cls-10" d="M77.32,86.83c1.49,0,2.93,0,4.4,0a7.85,7.85,0,0,1,.1,2.31,8.28,8.28,0,0,1-.1,2.28,23.26,23.26,0,0,1-4.31.12A20.77,20.77,0,0,1,77.32,86.83Z"/><path class="cls-10" d="M92.54,91.42a17,17,0,0,1-4.28,0V87a.77.77,0,0,1,.32-.13l3.73,0a.82.82,0,0,1,.24.09,5.81,5.81,0,0,1,0,1.45c0,.53,0,1.07,0,1.61A10.17,10.17,0,0,1,92.54,91.42Z"/><path class="cls-10" d="M130.27,44.9c0,1.51,0,2.89,0,4.27a1.18,1.18,0,0,1-.08.31,2.53,2.53,0,0,1-.38.07c-1.38,0-2.75,0-4.13,0a.64.64,0,0,1-.26-.1,25.7,25.7,0,0,1-.08-4.48,9.63,9.63,0,0,1,2.46-.1A18.88,18.88,0,0,1,130.27,44.9Z"/><path class="cls-10" d="M120.1,44.87c1.49,0,2.92,0,4.4,0a8.27,8.27,0,0,1,.1,2.32,8.71,8.71,0,0,1-.1,2.28,23.3,23.3,0,0,1-4.31.11A20.66,20.66,0,0,1,120.1,44.87Z"/><path class="cls-10" d="M135.32,49.45a17.1,17.1,0,0,1-4.29,0V45a1.07,1.07,0,0,1,.33-.12c1.24,0,2.48,0,3.72,0a1,1,0,0,1,.25.09,5.73,5.73,0,0,1,0,1.44c0,.54,0,1.08,0,1.62A8.85,8.85,0,0,1,135.32,49.45Z"/><path class="cls-10" d="M130.27,55.39c0,1.51,0,2.89,0,4.27a1.09,1.09,0,0,1-.08.31,2.57,2.57,0,0,1-.38.08h-4.13a1.17,1.17,0,0,1-.26-.1,25.84,25.84,0,0,1-.08-4.49,9.63,9.63,0,0,1,2.46-.1A18.88,18.88,0,0,1,130.27,55.39Z"/><path class="cls-10" d="M120.1,55.36c1.49,0,2.92,0,4.4,0a8.18,8.18,0,0,1,.1,2.31,8.71,8.71,0,0,1-.1,2.28,23.3,23.3,0,0,1-4.31.11A20.66,20.66,0,0,1,120.1,55.36Z"/><path class="cls-10" d="M135.32,59.94a17.1,17.1,0,0,1-4.29,0V55.47a1.07,1.07,0,0,1,.33-.12c1.24,0,2.48,0,3.72,0a1,1,0,0,1,.25.09,5.73,5.73,0,0,1,0,1.44c0,.54,0,1.08,0,1.62A8.85,8.85,0,0,1,135.32,59.94Z"/><path class="cls-10" d="M130.27,65.88c0,1.51,0,2.89,0,4.27a1.09,1.09,0,0,1-.08.31,1.72,1.72,0,0,1-.38.08h-4.13a.82.82,0,0,1-.26-.1,25.84,25.84,0,0,1-.08-4.49,9.63,9.63,0,0,1,2.46-.1A18.88,18.88,0,0,1,130.27,65.88Z"/><path class="cls-10" d="M120.1,65.85c1.49,0,2.92,0,4.4,0a8.2,8.2,0,0,1,.1,2.31,8.71,8.71,0,0,1-.1,2.28,24.16,24.16,0,0,1-4.31.12A20.77,20.77,0,0,1,120.1,65.85Z"/><path class="cls-10" d="M135.32,70.44a17.1,17.1,0,0,1-4.29,0V66a1.07,1.07,0,0,1,.33-.12c1.24,0,2.48,0,3.72,0a1,1,0,0,1,.25.09,5.73,5.73,0,0,1,0,1.44c0,.54,0,1.08,0,1.62A9,9,0,0,1,135.32,70.44Z"/><path class="cls-10" d="M130.27,76.37c0,1.52,0,2.89,0,4.27a1.09,1.09,0,0,1-.08.31,1.72,1.72,0,0,1-.38.08h-4.13a.82.82,0,0,1-.26-.1,25.72,25.72,0,0,1-.08-4.48,9.2,9.2,0,0,1,2.46-.11A18.88,18.88,0,0,1,130.27,76.37Z"/><path class="cls-10" d="M120.1,76.34c1.49,0,2.92,0,4.4,0a8.21,8.21,0,0,1,.1,2.31,8.69,8.69,0,0,1-.1,2.28,23.26,23.26,0,0,1-4.31.12A20.77,20.77,0,0,1,120.1,76.34Z"/><path class="cls-10" d="M135.32,80.93a17.1,17.1,0,0,1-4.29,0V76.45a1.07,1.07,0,0,1,.33-.12l3.72,0a1,1,0,0,1,.25.09,5.8,5.8,0,0,1,0,1.45c0,.53,0,1.07,0,1.61A9,9,0,0,1,135.32,80.93Z"/><path class="cls-10" d="M130.27,86.86c0,1.52,0,2.89,0,4.27a1.09,1.09,0,0,1-.08.31,1.72,1.72,0,0,1-.38.08h-4.13a.82.82,0,0,1-.26-.1,25.72,25.72,0,0,1-.08-4.48,9.2,9.2,0,0,1,2.46-.11A18.88,18.88,0,0,1,130.27,86.86Z"/><path class="cls-10" d="M120.1,86.83c1.49,0,2.92,0,4.4,0a8.21,8.21,0,0,1,.1,2.31,8.69,8.69,0,0,1-.1,2.28,23.26,23.26,0,0,1-4.31.12A20.77,20.77,0,0,1,120.1,86.83Z"/><path class="cls-10" d="M135.32,91.42a17.1,17.1,0,0,1-4.29,0V87a.88.88,0,0,1,.33-.13l3.72,0a1,1,0,0,1,.25.09,5.81,5.81,0,0,1,0,1.45c0,.53,0,1.07,0,1.61A8.94,8.94,0,0,1,135.32,91.42Z"/><path class="cls-11" d="M55.36,48.05c-.22-.43,4.92-2,5,2.29,0,0,9.62-.24,5-5.6A5.9,5.9,0,0,1,64,39.92c0-1.43-1-5.59-4.56-5.17a2.64,2.64,0,0,0-2.09.22C54.71,36.35,48.78,49.63,55.36,48.05Z"/><path class="cls-12" d="M71.1,52.84s.62-1,1.13-1,1.44-.28,1.36-.09-.65.2-.71.31.86.29,1.13.3.87,0,.86.13a2.91,2.91,0,0,1-1.89.6,5.27,5.27,0,0,0-1.72.23Z"/><path class="cls-13" d="M62,53.15a9,9,0,0,0,1,1.45,5.59,5.59,0,0,0,3.33,2.22,3.54,3.54,0,0,0,2-.32h0a9.11,9.11,0,0,0,3.07-2.56,1.45,1.45,0,0,0-.2-1.42,23,23,0,0,1-3.87.63C67,53,65,47.33,64.54,46.62s-2.06-1.08-2.06-1.08Z"/><path class="cls-14" d="M63,54.6a5.59,5.59,0,0,0,3.33,2.22,3.54,3.54,0,0,0,2-.32,2.6,2.6,0,0,1-2.51-1c-.71-1.27-1.48-3.29-2.54-2.62C62.81,53.15,62.83,53.87,63,54.6Z"/><path class="cls-15" d="M48.85,91.3s-1.08,1-.87,1.69,1.19,1.16,1.32,2,.66,1.32,1.13,1.32h2.26s.35-.6-.5-.78-1.16-1.19-1.1-2.12A16.85,16.85,0,0,0,51,91.25l-1.79-.41Z"/><path class="cls-15" d="M58,91.72s-.39,4.17.08,4.4h6.06s0-.7-1-.85-2.68-.73-3-2S58,91.72,58,91.72Z"/><path class="cls-12" d="M53.66,61.81c1.25-2.8,2-3.6,1.87-4.47-.11-.64.33-12,.33-12s.44-.09.6-.13a1.5,1.5,0,0,0,1.11-1A7.66,7.66,0,0,0,58,41.64l.16,0,2.69.53s-.07.84-.07,1.64v0a1.54,1.54,0,0,0,1.12,1.49l.63.19a24.49,24.49,0,0,1,1.18,5.7c.18,2.9-1.8,4.15,0,9.93S53,63.35,53.66,61.81Z"/><path class="cls-16" d="M60.8,42.2s-.07.84-.07,1.64a3.19,3.19,0,0,1-2.62-2.17Z"/><path class="cls-12" d="M61.3,43s-3.56.06-3.56-2.15-.46-3.7,1.81-3.83,2.71.71,2.89,1.45S62.22,42.88,61.3,43Z"/><path class="cls-11" d="M61.17,36.91s-1,2.6-2.47,3a2.94,2.94,0,0,1-2.14,0,4.25,4.25,0,0,0,1.38-2.5S60.43,35.68,61.17,36.91Z"/><path class="cls-11" d="M60.92,37.12a2.16,2.16,0,0,1,1,.8,3.56,3.56,0,0,1,.48,2s.74-1.76-.09-2.76S60.92,37.12,60.92,37.12Z"/><path class="cls-2" d="M60.52,41.58a.92.92,0,0,0,.74.3.65.65,0,0,0,.55-.36A2.37,2.37,0,0,0,60.52,41.58Z"/><path class="cls-13" d="M53.32,50.34a24.18,24.18,0,0,0,0,2.8,8,8,0,0,0,1.23,2.7c.36.85.77,1,.77,1l3.18.78,1.12.28,3.53-1.06s1.61-4.48,1-7a19.07,19.07,0,0,0-1.63-4.27s-2.88,2.81-6.62-.24Z"/><path class="cls-14" d="M54.25,53.55a9.5,9.5,0,0,0,.3,2.29c.36.85.77,1,.77,1l3.18.78,1.39-.4s-4.62-.7-4.1-4.67Z"/><path class="cls-17" d="M62.93,57.5a53.56,53.56,0,0,1,1.86,7.29c.11,1.85-3.34,26.3-3.48,27.16s-1.13,1.31-1.13,1.31a1.54,1.54,0,0,1-1.12.09,2.68,2.68,0,0,1-1.19-.57s-1.36-17.43-.52-23.66A98.9,98.9,0,0,0,58.2,57.5Z"/><path class="cls-18" d="M55.53,57.34s-2.67,3.58-2.92,6-.39,10.91-.92,13.27-2.47,6.89-2.47,14.24a1.44,1.44,0,0,0,.83.64,7.23,7.23,0,0,0,.72.2,1.14,1.14,0,0,0,1.28-.6c1.31-2.65,5.5-11.19,5.72-13,.15-1.25,1.47-9.55,4.36-14.42.69-1.17-.43-5.82-.43-5.82Z"/><path class="cls-10" d="M60.6,41.64s.06.26.71.22c0,0,.55,0,.53-.32A1.72,1.72,0,0,0,60.6,41.64Z"/><path class="cls-15" d="M63.21,56.66a3.69,3.69,0,0,1-2.1.59c-1.66,0-5.79-.43-5.79-.43a3.39,3.39,0,0,0-.17,1s5,1.28,8,.19A1.85,1.85,0,0,0,63.21,56.66Z"/><path class="cls-10" d="M60.75,57.82a.77.77,0,1,1,.76.86A.82.82,0,0,1,60.75,57.82Zm.25,0a.52.52,0,1,0,1,0,.52.52,0,1,0-1,0Z"/><rect class="cls-19" x="52.14" y="51.68" width="6.84" height="9.37" transform="translate(60.44 135.35) rotate(-138.95)"/><path class="cls-12" d="M56.49,57.66s1.89.23,1.88.67a2.22,2.22,0,0,1-.7,1.42c-.24,0-1.54-1.25-1.54-1.25Z"/><path class="cls-13" d="M55.86,45.3a4.3,4.3,0,0,0-3.5,2.53c-1,2.35-2.8,6.3-2.8,7s1,2.71,6.53,3.89c0,0,.57-.6.54-1.07,0,0-3.44-3-3.43-3.3,0-.65.56-1.51,3.58-4.53C57.6,49,55.86,45.3,55.86,45.3Z"/><path class="cls-20" d="M151.76,85.51s4.53-.25,4.54-1.17c0-.72-2.77-.11-2.77-.11A33.94,33.94,0,0,0,158,82.62a2.28,2.28,0,0,0,.84-.6.87.87,0,0,0,.13-1c-.23-.41-.8-.44-1.27-.38-1.87.22-3.18,1.22-4.86,2.07a15.46,15.46,0,0,0,3.35-2.33,12.05,12.05,0,0,0,2.67-2.76,1.88,1.88,0,0,0-.14-2.34,2.49,2.49,0,0,0-2.4,0,9.84,9.84,0,0,0-4.89,3.87,18.7,18.7,0,0,0,.69-2.54c.06-.35.09-.78-.2-1s-.87.09-1.17.45A8.79,8.79,0,0,0,149.15,79a22.85,22.85,0,0,0-.06-7.15,3.68,3.68,0,0,0-.62-1.5,1.61,1.61,0,0,0-1.41-.69,2.14,2.14,0,0,0-1.28.81A7.12,7.12,0,0,0,144,75a7.2,7.2,0,0,0,1.58,4.65,9.67,9.67,0,0,0-1.85-1.52c-.15-.1-.38-.18-.49,0a.35.35,0,0,0-.05.27,5.65,5.65,0,0,0,1.59,3,7.36,7.36,0,0,0-6.06-2.5.86.86,0,0,0-.72.32.79.79,0,0,0-.07.46A3.78,3.78,0,0,0,140,82.15c.83.48,1.71.89,2.58,1.3a7.64,7.64,0,0,0-1.51-.06.43.43,0,0,0-.31.12c-.13.17,0,.41.23.53a6.7,6.7,0,0,0,4.39,1.24"/><path class="cls-21" d="M156.91,77c.06,0,.11,0,.06.09a25.18,25.18,0,0,0-4,3.69,30.15,30.15,0,0,0-3.08,4.45c0,.06-.12,0-.09-.05A22.4,22.4,0,0,1,156.91,77Zm-6.53,1.17a17.18,17.18,0,0,0-1.16,7.09,0,0,0,1,0,.09,0,21.59,21.59,0,0,1,1.19-7c0-.07-.1-.12-.12,0Zm-2.88-4.69a33.05,33.05,0,0,0,1,11.84c0,.06.11,0,.1,0a50.52,50.52,0,0,1-.92-6,49.32,49.32,0,0,1-.08-5.83s-.06,0-.07,0ZM144,79.34c1.17,1.66,2.47,4.74,4,6.08.06.06.14,0,.08-.09-1.39-1.53-2.75-4.4-4-6,0-.06-.14,0-.09.06Zm12.62,2.58a29,29,0,0,0-6.69,3.92c-.06,0,0,.15.07.1A47.33,47.33,0,0,1,156.64,82c.05,0,0-.12,0-.09Zm-14.45-.29c1.69,1,3.5,3.17,5.35,3.87.06,0,.11-.06.05-.09-1.79-.87-3.62-2.88-5.35-3.87-.06,0-.1,0,0,.09Z"/><polygon class="cls-22" points="152.45 96.05 146.03 96.05 144.29 85.24 154.19 85.24 152.45 96.05"/><polygon class="cls-23" points="152.45 96.05 150.5 96.05 152.25 85.24 154.19 85.24 152.45 96.05"/></g></g></g></svg>