<svg xmlns="http://www.w3.org/2000/svg" viewBox="0 0 188.22 97.23"><defs><style>.cls-1{fill:#ebf3fa;}.cls-2{fill:#a8d29f;}.cls-3{fill:#82b378;}.cls-4{fill:#2e3552;}.cls-5{fill:#ed7d2b;}.cls-6{fill:#fcecdb;}.cls-7{fill:#efcbab;}.cls-8{fill:#ff9843;}.cls-9{fill:#f99746;}.cls-10{opacity:0.5;}.cls-11{fill:#cde0fb;}.cls-12{fill:#b1cff2;}.cls-13{fill:#afcdfb;}.cls-14{fill:#fff;}.cls-15{fill:#2c3a64;}.cls-16{fill:#2b478b;}.cls-17{fill:#233862;}.cls-18{fill:#ffb27d;}.cls-19{fill:#ed985f;}.cls-20{fill:#ffad76;}.cls-21{fill:#739af0;}.cls-22{fill:#172b4c;}.cls-23{fill:#5486d6;}.cls-24{fill:#23407a;}.cls-25{fill:#ffbf94;}</style></defs><title>Asset 19</title><g id="Layer_2" data-name="Layer 2"><g id="Layer_2-2" data-name="Layer 2"><path class="cls-1" d="M14.35,97.18S-7.22,74,10.7,49c15.9-22.24,34.43-20.72,48-11.69,5.79,3.84,22.49.47,36.71-22.16C114.82-15.76,182,3,169.76,50.45c-5.93,23,18,23.81,5.83,46.78Z"/><path class="cls-2" d="M55.76,52.27S45.09,37.08,40.92,39.05,55.76,52.27,55.76,52.27Z"/><path class="cls-2" d="M55.08,48.19s-1.63-11.42-4.2-11S55.08,48.19,55.08,48.19Z"/><path class="cls-3" d="M168.11,96.62h-6.32c-.34-.29.23-.94.83-1a3.75,3.75,0,0,1,1,.12c.08-1.16.58-6.35,2.45-6.14,2.11.23,0,2.28-.59,3.5a28.44,28.44,0,0,0-1.12,2.8l.53.11c.28-.86,1.32-3.74,2.64-3.57,1.55.19.92,1.35-.18,2-.8.5-1.79,1.22-2.26,1.56a6.25,6.25,0,0,0,1.23.1A2.69,2.69,0,0,1,168.11,96.62Z"/><path class="cls-3" d="M23.81,96.32c-.33-.53-1.34-1.9-2.68-1.71s1.61,1.16,2.55,1.71a1.55,1.55,0,0,1-.52-.06,3.54,3.54,0,0,0-2.05.36h6a.93.93,0,0,0-.43-.55,1.07,1.07,0,0,0-.55,0c.35-.42.6-1.76-.39-1.42-.73.25-.73,1.07-.65,1.56l-.47.07c-.3-1.52-1.36-6-3.5-6.1S23,94.76,24.3,96.27Z"/><rect class="cls-4" y="96.55" width="188.22" height="0.5" rx="0.15"/><path class="cls-3" d="M123.16,48.39s-2.89-3.83.18-6a8.31,8.31,0,0,1,4-.95s-2.73,4-2,4.44,2.72-4.65,2.72-4.65,4.88-.17,6.4.68c0,0-4.36,3.14-3.5,3.39s5.55-2.79,5.55-2.79,4.47,1,4.06,3.79-2,3.49-2.71,3.38-4.58-1.9-4.71-1.34,2.18,2.54,3.86,2.73c0,0-3.41,3.31-5.46,2.17s-2.13-2.77-3.42-3.45-2.4-.76-1.9-.11,2.86,1.4,3.53,2.78,1.29,2.32-.88,1.86-5.63-2.29-5.67-4.14Z"/><path class="cls-3" d="M138.33,46.28s-12.24-1.23-15.17,2.11a8.88,8.88,0,0,1-2.66,3.27l-.33.77s2.26-2.11,3-2.2C123.2,50.23,122.28,45.81,138.33,46.28Z"/><path class="cls-3" d="M120.5,51.66a7.75,7.75,0,0,0-3.15,5.26l.47.07s1.07-3.55,2.68-4.86S120.5,51.66,120.5,51.66Z"/><path class="cls-2" d="M109,39.24s-6.4-3.58-3.41-8.45c0,0,2.39-3,5-3.75,0,0-1.37,7.25,0,7.42s.94-8.19.94-8.19,6.74-3.24,9.38-3c0,0-4.18,7.08-2.82,6.91s6.06-7.34,6.06-7.34,6.91-1.28,8,2.82-.68,6.14-1.71,6.39-7.59.18-7.42,1,4.61,2.22,7.08,1.45c0,0-2.73,6.74-6.31,6.4s-4.69-2.56-6.91-2.73-3.84.42-2.73,1,4.86.2,6.65,1.72,3.25,2.46-.08,3.14-9.3.26-10.49-2.3Z"/><path class="cls-3" d="M129,27s-17.91,5.8-20,12.28a13.59,13.59,0,0,1-1.7,6.23v1.28s1.87-4.35,2.9-5C110.2,41.8,106.19,36.17,129,27Z"/><path class="cls-3" d="M107.3,45.47a11.78,11.78,0,0,0-1.19,9.3l.71-.19s-.69-5.63.75-8.45S107.3,45.47,107.3,45.47Z"/><path class="cls-2" d="M75.26,41.08s7.45-3.15,4.76-8.84c0,0-2.25-3.57-5-4.72,0,0,.61,8.11-.9,8.14s0-9.09,0-9.09-7-4.37-9.92-4.41c0,0,3.72,8.26,2.25,7.91S60.7,21.3,60.7,21.3s-7.42-2.24-9.13,2.11,0,6.81,1.09,7.22,8.3,1.11,8,2-5.31,1.87-7.93.73c0,0,2.17,7.72,6.14,7.78s5.45-2.24,7.9-2.16,4.16.94,2.87,1.46-5.35-.38-7.5,1.07S58.3,43.84,61.86,45,72,46.4,73.64,43.74Z"/><path class="cls-3" d="M54.87,25.2S73.8,33.72,75.26,41.08a15,15,0,0,0,1.12,7l-.16,1.4s-1.53-5-2.58-5.77C73.64,43.74,78.72,38.05,54.87,25.2Z"/><path class="cls-3" d="M76.38,48.11a13,13,0,0,1,.17,10.34l-.76-.3s1.44-6.08.2-9.36S76.38,48.11,76.38,48.11Z"/><path class="cls-3" d="M60,59.36a8.19,8.19,0,0,1-1.46-3.66s3.64-2.62,1.49-5.37a7.72,7.72,0,0,0-3.26-1.94s1.32,4.31.51,4.51S56.14,48,56.14,48s-4.32-1.51-5.91-1.17c0,0,3,4,2.19,4s-4.19-4-4.19-4S44,46.48,43.56,49s.83,3.69,1.47,3.77,4.62-.41,4.58.11-2.65,1.67-4.2,1.37c0,0,2.12,3.91,4.27,3.45s2.67-1.87,4-2.13,2.36,0,1.73.44-2.94.45-3.93,1.5-1.8,1.71.27,1.9S57.43,59,58,57.33l.07-.2a.8.8,0,0,1-.07.2,6.72,6.72,0,0,1,1.55,1.91l.33.54h0L60,60a12.66,12.66,0,0,1,.88,4.83l.45.06A7.25,7.25,0,0,0,60,59.36Z"/><path class="cls-5" d="M53,50.22,88.64,28.87a6.21,6.21,0,0,1,6.39,0L130.7,50.22V85L53,81.13Z"/><rect class="cls-6" x="59.66" y="34.8" width="64.35" height="55.61"/><circle class="cls-7" cx="62.28" cy="37.23" r="0.66"/><path class="cls-7" d="M120.68,37.23a.66.66,0,1,1,.66.66A.66.66,0,0,1,120.68,37.23Z"/><rect class="cls-7" x="62.28" y="37.15" width="59.06" height="0.14"/><rect class="cls-7" x="62.21" y="36.96" width="0.14" height="59.06"/><rect class="cls-7" x="121.29" y="36.96" width="0.14" height="59.06"/><polygon class="cls-8" points="130.69 50.13 130.69 96.66 52.97 96.66 52.97 50.13 91.83 73.39 130.69 50.13"/><path class="cls-5" d="M53,96.66l35.6-25.52a5.59,5.59,0,0,1,6.52,0L130.7,96.66Z"/><path class="cls-7" d="M103.7,42.5H80.23a.62.62,0,0,1-.62-.62h0a.61.61,0,0,1,.62-.61H103.7a.61.61,0,0,1,.61.61h0A.61.61,0,0,1,103.7,42.5Z"/><path class="cls-7" d="M109.74,45H74.19a.62.62,0,0,1-.62-.62h0a.62.62,0,0,1,.62-.62h35.55a.62.62,0,0,1,.62.62h0A.62.62,0,0,1,109.74,45Z"/><path class="cls-7" d="M105.13,52.7H79.41a.45.45,0,0,1-.45-.45h0a.45.45,0,0,1,.45-.45h25.72a.45.45,0,0,1,.45.45h0A.45.45,0,0,1,105.13,52.7Z"/><path class="cls-7" d="M82,55H74.74a.45.45,0,0,1-.45-.45h0a.45.45,0,0,1,.45-.45H82a.45.45,0,0,1,.45.45h0A.45.45,0,0,1,82,55Z"/><path class="cls-7" d="M92.93,55H84.17a.45.45,0,0,1-.45-.45h0a.45.45,0,0,1,.45-.45h8.76a.45.45,0,0,1,.45.45h0A.45.45,0,0,1,92.93,55Z"/><path class="cls-7" d="M109.8,55H94.65a.45.45,0,0,1-.45-.45h0a.45.45,0,0,1,.45-.45H109.8a.45.45,0,0,1,.45.45h0A.45.45,0,0,1,109.8,55Z"/><path class="cls-7" d="M93,57.76H78.9a.45.45,0,0,1-.45-.45h0a.45.45,0,0,1,.45-.45H93a.45.45,0,0,1,.44.45h0A.45.45,0,0,1,93,57.76Z"/><path class="cls-7" d="M105.64,57.76H94.54a.45.45,0,0,1-.45-.45h0a.46.46,0,0,1,.45-.45h11.1a.45.45,0,0,1,.45.45h0A.45.45,0,0,1,105.64,57.76Z"/><path class="cls-9" d="M96.94,63.29a17.17,17.17,0,0,1-2.71,1.83,2.1,2.1,0,0,0,.14-.75c0-.32-.27-.47-.53-.6l-.18-.1a.33.33,0,0,0,.08-.39.28.28,0,0,0-.52,0,.53.53,0,0,0,0,.12.39.39,0,0,1-.1-.08c.16-.29.3-.59.44-.9a.17.17,0,0,0-.06-.19.53.53,0,0,0-.72.1,1,1,0,0,0-.06.93l0,.06c-.21.36-.42.71-.66,1.05L92,64.34a1.32,1.32,0,0,1-.18-.22,3.67,3.67,0,0,0,.2-.87.17.17,0,0,0-.24-.17.72.72,0,0,0-.44.77.92.92,0,0,0,.1.32,2.76,2.76,0,0,1-.25.44.15.15,0,0,0,0,.23,2.38,2.38,0,0,1-.47.94c-.2.2-.56.35-.79.11a1,1,0,0,1-.19-.6,10.83,10.83,0,0,1-.07-1.5,2.34,2.34,0,0,1,.12-.7c0-.14.12-.35.18-.11a1.19,1.19,0,0,1,0,.42c0,.21.31.23.33,0s.13-.77-.15-.92-.45,0-.55.25a4.37,4.37,0,0,0-.18,2.41c0,.6.27,1.35,1,1.15s1-1.09,1.16-1.72a.2.2,0,0,0,0-.11h0l.09.09a.68.68,0,0,1,.12.12l-.23.31a.18.18,0,0,0,0,.2.39.39,0,0,0,.68-.28.44.44,0,0,0-.06-.23c.23-.33.45-.67.65-1a.5.5,0,0,0,.39.16h0a1.08,1.08,0,0,0,.28.21,2,2,0,0,1,.29.16c.16.13.11.27.08.46s-.13.47-.2.71a1.49,1.49,0,0,0-.77.81.83.83,0,0,0,.29.93.16.16,0,0,0,.25-.08c.19-.46.35-.93.5-1.4v-.05c.3-.16.6-.31.89-.48a17.67,17.67,0,0,0,2.19-1.55C97.32,63.41,97.11,63.16,96.94,63.29Zm-4-.44c0-.13.07-.37.22-.37-.06.15-.14.3-.21.44A.2.2,0,0,0,92.93,62.85Zm.42,3.82c-.13-.26.06-.59.29-.8C93.55,66.14,93.46,66.4,93.35,66.67Z"/><g class="cls-10"><polygon class="cls-11" points="90.44 11.96 93.79 19.36 81.44 24.95 78.09 17.56 85.94 18.46 90.44 11.96"/><path class="cls-12" d="M78.09,17.56,90.44,12l-3.69,6.23a1.37,1.37,0,0,1-1.42.65Z"/></g><g class="cls-10"><polygon class="cls-11" points="17.84 60.24 19.61 64.96 11.71 67.91 9.95 63.18 14.78 64.07 17.84 60.24"/><path class="cls-12" d="M10,63.18l7.89-2.94-2.55,3.7a.85.85,0,0,1-.91.34Z"/></g><g class="cls-10"><polygon class="cls-11" points="153.06 32.1 150.58 41.38 135.08 37.25 137.55 27.96 144.07 34.67 153.06 32.1"/><path class="cls-12" d="M137.55,28l15.51,4.14L145,35a1.62,1.62,0,0,1-1.79-.47Z"/></g><path class="cls-13" d="M14.44,81.14h0l-1.08,0a.07.07,0,0,1,0-.14h1.08a.08.08,0,0,1,.07.07A.08.08,0,0,1,14.44,81.14Zm1.08,0a.07.07,0,0,1-.07-.07.08.08,0,0,1,.07-.08l1.08,0s.07,0,.07.07a.07.07,0,0,1-.07.07l-1.08,0Zm-3.24-.06h0L11.2,81s-.07,0-.06-.08a.08.08,0,0,1,.08-.07c.33,0,.69.07,1.07.09a.08.08,0,0,1,.07.08A.08.08,0,0,1,12.28,81.07Zm5.4,0a.07.07,0,0,1-.07-.07.08.08,0,0,1,.07-.08l1.08,0a.07.07,0,1,1,0,.14l-1.08.06Zm2.16-.13s-.07,0-.07-.06a.06.06,0,0,1,.06-.08l1.08-.08a.08.08,0,1,1,0,.15l-1.08.07Zm-9.7-.09h0a9.15,9.15,0,0,1-1.06-.26A.07.07,0,0,1,9,80.49s.06-.06.09,0a9.53,9.53,0,0,0,1,.24.08.08,0,0,1,.06.09A.09.09,0,0,1,10.14,80.84ZM22,80.77a.08.08,0,0,1-.07-.07.07.07,0,0,1,.07-.07l1.07-.1a.08.08,0,0,1,.08.07.08.08,0,0,1-.06.08L22,80.77Zm2.15-.19a.08.08,0,0,1,0-.15l1.07-.11a.08.08,0,0,1,.08.07s0,.07-.06.08l-1.08.1Zm2.15-.23a.07.07,0,0,1-.07-.06.08.08,0,0,1,.07-.08l1.07-.12a.08.08,0,0,1,.08.07.09.09,0,0,1-.06.08l-1.08.11ZM8.12,80.13h0a1.51,1.51,0,0,1-.45-.51,4.3,4.3,0,0,1-.16-.41.07.07,0,1,1,.14,0,3.73,3.73,0,0,0,.15.38,1.22,1.22,0,0,0,.4.46.08.08,0,0,1,0,.1A.09.09,0,0,1,8.12,80.13Zm20.32,0s-.07,0-.07-.06a.06.06,0,0,1,.06-.08l1.07-.13s.08,0,.08.06a.06.06,0,0,1-.06.08l-1.07.13Zm2.14-.26a.07.07,0,0,1-.07-.06.08.08,0,0,1,.07-.08l1.06-.14a.08.08,0,0,1,.08.07s0,.07-.06.08l-1.07.13Zm2.14-.27a.08.08,0,0,1,0-.15l1.07-.14s.08,0,.08.06a.06.06,0,0,1-.06.08l-1.07.15Zm2.15-.29a.09.09,0,0,1-.08-.06.1.1,0,0,1,.07-.09L35.93,79a.09.09,0,0,1,.08.07.08.08,0,0,1-.06.08l-1.07.15ZM37,79a.08.08,0,0,1-.07-.07.09.09,0,0,1,.06-.08l1.07-.15a.06.06,0,0,1,.08.06s0,.07-.06.08L37,79Zm2.14-.32a.07.07,0,0,1-.07-.06.08.08,0,0,1,.06-.08l1.07-.16a.07.07,0,0,1,0,.14l-1.07.16Zm2.14-.32a.07.07,0,0,1-.07-.06.06.06,0,0,1,.06-.08L42.33,78a.08.08,0,0,1,.09.06s0,.08-.06.08l-1.07.17ZM7.47,78.19h0s-.06,0,0-.08a2.3,2.3,0,0,1,.48-1,.07.07,0,1,1,.11.09,2.14,2.14,0,0,0-.45.92A.09.09,0,0,1,7.47,78.19ZM43.41,78a.09.09,0,0,1-.07-.06.09.09,0,0,1,.06-.09l1.07-.17a.08.08,0,0,1,.08.06.08.08,0,0,1-.06.09L43.42,78Zm2.14-.35s-.07,0-.07-.06a.07.07,0,0,1,.05-.08l1.07-.17a.06.06,0,0,1,.08.06s0,.07-.06.08l-1.06.17Zm2.13-.35s-.07,0-.07-.06,0-.07.06-.08L48.73,77s.08,0,.08.06a.07.07,0,0,1-.05.09l-1.07.17ZM49.81,77a.07.07,0,0,1-.07-.06.08.08,0,0,1,.06-.09l1.06-.18a.09.09,0,0,1,.09.06s0,.08-.06.08L49.82,77Zm2.13-.37a.07.07,0,0,1-.07-.06s0-.07.06-.08L53,76.27a.09.09,0,0,1,.09.06s0,.08-.06.08L52,76.6ZM8.73,76.51a.09.09,0,0,1-.06,0,.08.08,0,0,1,0-.1,6.85,6.85,0,0,1,.94-.54.07.07,0,0,1,.1,0,.08.08,0,0,1,0,.1,7.9,7.9,0,0,0-.93.53Zm45.34-.28a.07.07,0,0,1-.07-.06.06.06,0,0,1,.06-.08l1.06-.19a.06.06,0,0,1,.08,0,.07.07,0,0,1-.05.09l-1.07.19Zm2.13-.38a.07.07,0,0,1-.07-.06.08.08,0,0,1,.06-.09l1.06-.19a.07.07,0,0,1,0,.14l-1.07.2Zm-45.54-.3a.08.08,0,0,1-.07,0,.08.08,0,0,1,.05-.09c.31-.12.66-.23,1-.34a.07.07,0,0,1,.08.05.07.07,0,0,1,0,.09,10.15,10.15,0,0,0-1,.34Zm47.67-.09a.07.07,0,0,1-.07-.06.06.06,0,0,1,.05-.08l1.07-.2a.06.06,0,0,1,.08,0,.07.07,0,0,1-.05.09l-1.07.2Zm2.13-.4a.09.09,0,0,1-.07-.06.06.06,0,0,1,.06-.08l.12,0a.08.08,0,0,1,.09.07c0,.06,0,.06-.19.1Zm-47.73-.13a.07.07,0,0,1-.07-.06.06.06,0,0,1,.05-.08c.34-.09.69-.17,1.06-.24a.08.08,0,0,1,.09,0,.09.09,0,0,1-.06.09c-.36.07-.72.15-1.05.24Zm2.12-.44s-.07,0-.07-.06a.06.06,0,0,1,.06-.08l1.07-.17s.07,0,.08.06,0,.08-.06.08l-1.07.17ZM17,74.18a.07.07,0,0,1-.07-.06A.06.06,0,0,1,17,74q.54-.08,1.08-.12s.07,0,.08.06a.08.08,0,0,1-.07.08L17,74.18ZM19.14,74a.08.08,0,0,1-.07-.07.08.08,0,0,1,.07-.08l1.09-.07a.07.07,0,0,1,.07.07.08.08,0,0,1-.07.08L19.15,74Z"/><polygon class="cls-13" points="62.87 78.85 71.72 73.83 63.64 74.3 64.27 75.67 62.6 77.52 62.87 78.85"/><polygon class="cls-14" points="71.72 73.83 62.44 75.53 55.68 80.22 71.72 73.83"/><polygon class="cls-14" points="63.64 74.3 71.72 73.83 63.27 71.35 63.64 74.3"/><polygon class="cls-13" points="110.8 12.87 120.86 14.46 114.23 9.8 113.87 11.25 111.41 11.66 110.8 12.87"/><polygon class="cls-14" points="120.86 14.46 112.53 10.01 104.31 9.47 120.86 14.46"/><polygon class="cls-14" points="114.23 9.8 120.86 14.46 115.78 7.25 114.23 9.8"/><rect class="cls-6" x="56.73" y="87.55" width="16.1" height="6.36" rx="3.18"/><path class="cls-7" d="M68.75,89.13H58.66a.2.2,0,0,1-.2-.2h0a.21.21,0,0,1,.2-.21H68.75a.21.21,0,0,1,.21.21h0A.2.2,0,0,1,68.75,89.13Z"/><path class="cls-7" d="M60.45,90H58.66a.21.21,0,0,1-.2-.21h0a.2.2,0,0,1,.2-.2h1.79a.2.2,0,0,1,.21.2h0A.21.21,0,0,1,60.45,90Z"/><path class="cls-7" d="M66.09,90H61.16a.21.21,0,0,1-.2-.21h0a.2.2,0,0,1,.2-.2h4.93a.2.2,0,0,1,.2.2h0A.21.21,0,0,1,66.09,90Z"/><path class="cls-7" d="M68.75,91.65H58.66a.2.2,0,0,1-.2-.2h0a.2.2,0,0,1,.2-.21H68.75a.21.21,0,0,1,.21.21h0A.2.2,0,0,1,68.75,91.65Z"/><path class="cls-7" d="M62.33,92.54H58.66a.21.21,0,0,1-.2-.21h0a.2.2,0,0,1,.2-.2h3.67a.2.2,0,0,1,.2.2h0A.21.21,0,0,1,62.33,92.54Z"/><path class="cls-7" d="M66.78,92.54H63.12a.22.22,0,0,1-.21-.21h0a.21.21,0,0,1,.21-.2h3.66a.21.21,0,0,1,.21.2h0A.22.22,0,0,1,66.78,92.54Z"/><path class="cls-15" d="M35.43,27.93c0-.17-.42-1.94-3.16-1.64,0,0,1.36,0,1.68.52a2.19,2.19,0,0,0-1.73-.25c-.71.34-1,1.71-.9,2.14s.67,1.75,1.16,1.8a1.39,1.39,0,0,0,.57-.08,7.08,7.08,0,0,0-.27.71c-.76,2.39.68,4.42,1.57,4,.57-.24.88.75.88.75l5.07-5.49S37.56,26.36,35.43,27.93Z"/><path class="cls-16" d="M42,94.06l-1.23.46s-5.36-7.44-6-14A10.05,10.05,0,0,1,35,77.19l-.14-.82c0-.25-.1-.55-.15-.89-.18-1-.42-2.36-.69-3.92C33.35,68,32.53,63.4,31.89,60l.34-.11,3.6-1.16.74-2.36,2.68-.71s.6,1.17,1.13,6.7c.1.73.19,1.53.26,2.4a47.22,47.22,0,0,1-.26,9.69c-.12,1-.27,2-.47,3a13.36,13.36,0,0,0-.1,2.94A98.44,98.44,0,0,0,42,94.06Z"/><path class="cls-17" d="M40.64,64.8,34.82,76.37c0-.25-.1-.55-.15-.89-.18-1-.42-2.36-.69-3.92C33.35,68,32.53,63.4,31.89,60l.34-.11,3.6-1.16.74-2.36,2.68-.71s.6,1.17,1.13,6.7C40.48,63.13,40.57,63.93,40.64,64.8Z"/><path class="cls-16" d="M38.08,57.18,37.94,56c-2.25.6-8.28-1.68-8.28-1.68s-2.19,1.93-1.9,6.53c.14,2.25.39,11.81.66,14.63.1,1,.18,1.76.22,2h0a.38.38,0,0,1-.07.25,13.11,13.11,0,0,0-1,2.08c-2.63,7,.4,15.6.4,15.6l.79-.32s1.72-9.58,3.12-13.81a8.53,8.53,0,0,1,.67-1.62,18.08,18.08,0,0,0,1.69-4.5,110.35,110.35,0,0,0,2.27-11.93C36.6,63.31,38.08,57.18,38.08,57.18Z"/><path class="cls-18" d="M41.72,47.93a.89.89,0,0,0,.14.13,17.24,17.24,0,0,0,5.91,3.73,13.64,13.64,0,0,0,4.61-.42c1.11-.22,2.08-.46,2.48-.56l.2-.05-.17-1.13s-1-.08-2.25-.22a19.53,19.53,0,0,1-4.5-.85c-1.31-.78-3.61-4-5.45-6.08-.09-.12-.19-.22-.28-.33l-.21-.23-.05-.05-.23-.22,0,0a7.48,7.48,0,0,0-.9-.73c-.32-.18-.58-.22-.77-.06a2.9,2.9,0,0,0-.48.68,2.09,2.09,0,0,0-.14.3.84.84,0,0,0-.08.2,3.81,3.81,0,0,0-.25,1.52,4.69,4.69,0,0,0,.3,1.51A8.26,8.26,0,0,0,41.72,47.93Z"/><path class="cls-18" d="M40,43.16a6.93,6.93,0,0,1-2.49,1c-3.81.77-5.17-2.47-5.65-4.68a3.38,3.38,0,0,1,1.29-.36c.28,0,.57,0,.81,0,.43-.32,1.1-1.63,1.3-3.7l.18.06,3,.9s-.17.94-.26,1.84a3.5,3.5,0,0,0,0,1.53l.37.1h0A19.49,19.49,0,0,1,40,43.16Z"/><path class="cls-8" d="M41.36,45.54a1.14,1.14,0,0,1-.06.25C40.63,48,40.09,57,40.09,57c.36,1.12-6.14,1.35-9.72.83-1.3-.19-2.22-.47-2.28-.85-.64-1.45.93-4.14,1.83-5.51a4.14,4.14,0,0,0,.29-.55,3.35,3.35,0,0,0,.29-1.5c0-.71-.09-1.4-.17-2-.13-1.22-.32-2.28-.42-3h0l.55-.53a5.86,5.86,0,0,0,.65-.72,1.14,1.14,0,0,0,.25-.74,4,4,0,0,0-.1-.59,2.76,2.76,0,0,0-.08-.27,8.23,8.23,0,0,0-.82-1.78,7.34,7.34,0,0,1,2.83-.58s0,.1,0,.27a10,10,0,0,0,.61,2.68c.33.37,5.49,1.43,5.67.84s-.89-3-.93-3.1h0a8.42,8.42,0,0,1,2.4.86h0C40.09,41.44,41.84,43.4,41.36,45.54Z"/><path class="cls-19" d="M38.44,36.32s-.17.94-.26,1.84c-1.69-.22-2.42-1.85-2.7-2.74Z"/><path class="cls-18" d="M38.91,37.22s-4-.33-3.75-2.82-.11-4.21,2.46-4.11,3,1.11,3.09,2S40,37.25,38.91,37.22Z"/><path class="cls-15" d="M40.73,30.86c-.54-.81-1-.7-1.31-.5a2.8,2.8,0,0,0-3.65.22,4.78,4.78,0,0,1-1.84,2.65,3.28,3.28,0,0,0,2.41.26,2.88,2.88,0,0,0,1.45-.8,9.32,9.32,0,0,1-1.8,1.8c2.1-.73,3.18-3.44,3.29-3.73A3.12,3.12,0,0,1,40,32c.14.66.09,2,.48,2C40.52,34,41.54,32.07,40.73,30.86Z"/><path class="cls-18" d="M58.6,49.48c-.4.38-.81,1.34-2,1.32a17.91,17.91,0,0,0-2.2.14l-.27.05,0-1.4h.05a7.77,7.77,0,0,0,2.41-.67c.68-.45,2.25,0,2.25,0S59,49.11,58.6,49.48Z"/><path class="cls-17" d="M32.56,96.13H26.34a3.38,3.38,0,0,1,.18-1.67c.31-.69.79-1,.68-1.83a2.26,2.26,0,0,0,1.94.74,7.15,7.15,0,0,0,1.07,1.4C30.62,95.06,32.43,95,32.56,96.13Z"/><path class="cls-17" d="M45.91,96.13H39.69a2.6,2.6,0,0,1,.18-1.67,1.2,1.2,0,0,0,0-1.43,2.4,2.4,0,0,0,1,.2,2.18,2.18,0,0,0,.92-.33,23.92,23.92,0,0,0,1.77,1.87C44,95.06,45.78,95,45.91,96.13Z"/><path class="cls-14" d="M38,35.78s.06.33.87.33c0,0,.68,0,.68-.36A2.21,2.21,0,0,0,38,35.78Z"/><path class="cls-5" d="M31.22,51.61c-.25,1.56-1.37,4.69-.85,6.18-1.3-.19-2.22-.47-2.28-.85-.64-1.45.93-4.14,1.83-5.51a4.14,4.14,0,0,0,.29-.55,3.35,3.35,0,0,0,.29-1.5c0-.71-.09-1.4-.17-2C30.33,47.34,31.48,50,31.22,51.61Z"/><path class="cls-8" d="M40,41.1c0,1.39,1,5.19,1.28,4.69S42.62,43,43.12,43A25,25,0,0,0,41,40.65,4.17,4.17,0,0,0,40,41.1Z"/><path class="cls-18" d="M30.49,60.74l-1,.69-.67-.85-.19-.25c-.33-.42-.71-.94-1.12-1.5h0c-.7-1-1.46-2.1-2.05-3.1a9.7,9.7,0,0,1-.87-1.89.94.94,0,0,1,0-.16c-.3-1.32.25-3.93,1.14-6.48.12-.35.24-.7.37-1a25.69,25.69,0,0,1,1.53-3.38,9.77,9.77,0,0,1,.92-1.44,3.81,3.81,0,0,1,.3-.36l.17-.19a4.33,4.33,0,0,1,2.89,1.41,1.21,1.21,0,0,0-.05.18c-.39,1.26-1,2.8-1.62,4.32-.34.83-.69,1.65-1,2.43-.2.46-.37.9-.53,1.31a13.72,13.72,0,0,0-.6,1.89,4.48,4.48,0,0,0,.18,1.54c.28,1.19.8,2.8,1.28,4.16.2.57.4,1.1.56,1.54C30.31,60.28,30.49,60.74,30.49,60.74Z"/><path class="cls-8" d="M30.94,46.14c-1-1.55-4-2.22-4-2.22,1.67-5.29,6-4.8,6-4.8S31.4,44.62,30.94,46.14Z"/><path class="cls-18" d="M29.45,61.43a2,2,0,0,1,.31.69,3.28,3.28,0,0,0,.62,1.54c.33.3,1.09.91,1.19.82a1.35,1.35,0,0,0,.13-1.31c-.13-.23-.3-.86-.53-1s-.68-1.41-.68-1.41Z"/><path class="cls-18" d="M30.49,60.9s.82.41.93.75.57,1,.52,1.08-.76-.37-1-.78A7.12,7.12,0,0,1,30.49,60.9Z"/><g id="girl_2" data-name="girl 2"><path class="cls-17" d="M141.18,59.81s-1.72.12-3,3.23,1.59,3.1.62,5.1,1.4,3.19,2.11,4.83,4.34,5.59,4.63,7.39,3.5-1.88,3.5-1.88,3.27-3.48,2.1-5.51c-1.94-3.34-.26-4.06-.32-5.93S147.22,57.83,141.18,59.81Z"/><path class="cls-20" d="M140.25,71s-6.69,2.91-8,2.86-9.1-2.39-9.1-2.39l.2,1.35s6,3.47,8.15,3.67,9.19-1.87,9.88-2.3A2,2,0,0,0,140.25,71Z"/><path class="cls-18" d="M139.71,74.16a6.53,6.53,0,0,0,2.35,1c3.62.84,5-2.22,5.54-4.33a3.12,3.12,0,0,0-1.23-.37,7.33,7.33,0,0,0-.77-.07c-.41-.31-1-1.59-1.15-3.57l-.17.05-2.85.78s.13.91.19,1.77c0,.67.14,1.06,0,1.22a1,1,0,0,0-.44.33h0A17.83,17.83,0,0,0,139.71,74.16Z"/><path class="cls-19" d="M141.42,67.65s.14.91.2,1.77c1.62-.16,2.37-1.71,2.66-2.55Z"/><path class="cls-18" d="M140.94,68.5s3.84-.21,3.68-2.6.21-4-2.25-4-2.87,1-3,1.79S139.94,68.5,140.94,68.5Z"/><path class="cls-21" d="M148.69,82c.35-1.78,1.48-8.87.35-11.15-.41-.82-2-.89-3.75-.82-.55.35-2.62,1.68-3.47,1.52l0,0a.48.48,0,0,1-.14-.87l-2,.37a14,14,0,0,0-2.25,1,5.23,5.23,0,0,0,2,2c-.2,1.85.1,2.67,2,6.94a8.14,8.14,0,0,1-.22,6.87s9.55,7.69,9.61,3.78C150.86,88.62,148.25,84.25,148.69,82Z"/><path class="cls-17" d="M140.73,96.15a1.77,1.77,0,0,1-1.28-.78l-.14-.22c-1.09-1.65-1.51-6.69-4-12.06-.6-1.31-2.74-1.55-3.32-3,0,0-1.44-4.79,2.75-4.93S146,88.47,146.09,89.88,148.86,97.07,140.73,96.15Z"/><path class="cls-22" d="M124.1,96h6a2.5,2.5,0,0,0-.17-1.6,1.15,1.15,0,0,1,0-1.37,2.35,2.35,0,0,1-1,.19A2.16,2.16,0,0,1,128,93a20.16,20.16,0,0,1-1.69,1.78C126,95,124.22,94.91,124.1,96Z"/><path class="cls-23" d="M148.06,72.69s.78,7-4.25,8.53-6.45-6.49-2.39-7.06A38.35,38.35,0,0,0,148.06,72.69Z"/><path class="cls-17" d="M131.89,76.52c-.35,2.68-1.76,11.17-4.23,15.31-.79,1.33,2,2.08,2,2.08A4.93,4.93,0,0,0,131,93c2-1.81,6.07-6.93,6.07-11,0-2,0-5.82-1.42-6.79C134.74,74.53,132,75.45,131.89,76.52Z"/><path class="cls-16" d="M144.28,96s-.22-.31-.6-.89a20.5,20.5,0,0,1-1.58-3.81c-.65-1.84-1.41-4.1-2.37-6.45-.3-.72-.61-1.46-.94-2.19-.6-1.31-2.24-1.13-2.82-2.61,0,0-2.28-5.12,1.9-5.27S150,88.54,150.47,89.88,153.41,97.45,144.28,96Z"/><path class="cls-17" d="M128.47,96h6a2.5,2.5,0,0,0-.17-1.6,1.17,1.17,0,0,1,0-1.37,2.32,2.32,0,0,1-1,.19,2.07,2.07,0,0,1-.88-.31,21.88,21.88,0,0,1-1.7,1.78C130.33,95,128.59,94.91,128.47,96Z"/><path class="cls-24" d="M142.1,91.34c-.65-1.84-1.41-4.1-2.37-6.45.25-1.78.79-3.34,1.7-4C141.43,80.92,143.63,87.74,142.1,91.34Z"/><path class="cls-16" d="M135.37,76.33C135,79,134.51,87.69,132,91.83c-.8,1.33,2,2.08,2,2.08a4.93,4.93,0,0,0,1.29-1c2-1.81,6.07-6.93,6.07-11,0-2-2.34-5.66-3.8-6.63A1.46,1.46,0,0,0,135.37,76.33Z"/><path class="cls-1" d="M128,69.28s-.31-.78-.86-.73-5.6.73-5.6.73a1.44,1.44,0,0,1,.81.52l2.32,6.86h6Z"/><path class="cls-25" d="M147.6,70.83s-8.46,3.12-9.73,3c-.82,0-7.64-2.44-7.64-2.44l-.61,1.16s6.64,4.27,8.46,4.25c3.61,0,9.69-2.26,10.38-2.69S149.59,71.27,147.6,70.83Z"/><path class="cls-25" d="M130.23,71.44s-.61-.94-1.22-1a9.3,9.3,0,0,0-2,.49c-.36.07-1.38.4-1.08.9s1.72.61,2.33.5a2.87,2.87,0,0,1,1.39.24Z"/><path class="cls-25" d="M129.17,70.5s-1-.44-1.24-.53-.23,0-.14.27.58.51.58.59S129.17,70.5,129.17,70.5Z"/><path class="cls-14" d="M140.22,67.13a3.69,3.69,0,0,1,1.39-.06s-.06.4-.81.44A.61.61,0,0,1,140.22,67.13Z"/><path class="cls-21" d="M143.24,72.37a4.67,4.67,0,0,0,3.35,2.94s4.29-1.32,2.16-4.25C148.75,71.06,146.64,69.5,143.24,72.37Z"/><path class="cls-14" d="M121.54,69.28s-.56.21-.14.94l5.45-.73s-.19-.84.24-.94Z"/><path class="cls-20" d="M123.49,71.06c.13-.51.12-.64-.17-1s-.49.31-.64.63a1.43,1.43,0,0,0-.19-.38,4.26,4.26,0,0,0,.07.7h0a.28.28,0,0,0,0,.09h0a1.52,1.52,0,0,0,.8,1.61l-.2-.58C123.27,72.15,123.36,71.59,123.49,71.06Z"/><path class="cls-17" d="M140.8,62.43A1,1,0,0,1,142,63c.39.83.52,2.8,2.09,3s1.63-3.36,1.63-3.36L141.78,61l-2.07,1.31Z"/><path class="cls-17" d="M140.8,62.43a1.17,1.17,0,0,0-1.09.77c-.21.75.11,2.14-.38,2.24s-.94-2.32,0-3.11S140.8,62.43,140.8,62.43Z"/></g></g></g></svg>