<svg width="100%" height="100%" viewBox="0 0 291 150" fill="none" xmlns="http://www.w3.org/2000/svg">
<path d="M22.1383 149.923C22.1383 149.923 -11.1385 114.162 16.5073 75.5939C41.0368 41.2835 69.6236 43.6285 90.5585 57.5593C99.491 63.4834 125.255 58.2844 147.192 23.3724C177.137 -24.3135 280.778 4.62814 261.895 77.8309C252.746 113.314 289.664 114.563 270.889 150L22.1383 149.923Z" fill="#EBF3FA"/>
<path d="M86.0228 80.6386C86.0228 80.6386 69.5618 57.2045 63.1286 60.2437C56.6954 63.2828 86.0228 80.6386 86.0228 80.6386Z" fill="#A8D29F"/>
<path d="M84.9737 74.3443C84.9737 74.3443 82.4591 56.7263 78.4942 57.3743C74.5294 58.0222 84.9737 74.3443 84.9737 74.3443Z" fill="#A8D29F"/>
<path d="M71.0584 129.25C71.0584 129.25 72.6011 121.413 66.4302 120.426C64.1411 120.349 61.8683 120.837 59.8118 121.845C59.8118 121.845 66.785 125.872 65.9828 127.121C65.1805 128.371 58.6239 122.076 58.6239 122.076C58.6239 122.076 51.1571 125.347 49.4909 127.723C49.4909 127.723 58.3154 129.266 57.2046 130.299C56.0938 131.333 46.822 130.099 46.822 130.099C46.822 130.099 40.8671 134.912 43.4588 138.738C46.0506 142.564 49.0281 142.533 49.9692 141.823C50.9102 141.114 55.5076 135.653 56.1401 136.408C56.7726 137.164 54.7054 141.793 52.3141 143.304C52.3141 143.304 59.8273 145.835 62.0951 142.626C64.3629 139.417 63.3138 136.918 64.7486 134.912C66.1833 132.906 67.834 132.027 67.5255 133.369C67.2169 134.711 64.2395 137.535 64.224 140.096C64.2086 142.657 63.9618 144.523 66.893 142.271C69.8242 140.018 73.7119 134.758 72.4314 131.95L71.0584 129.25Z" fill="#82B378"/>
<path d="M46.714 137.041C46.714 137.041 64.2394 126.334 71.0583 129.327C72.9032 130.853 75.0888 131.912 77.4298 132.413L78.4789 133.323C78.4789 133.323 73.5576 131.78 72.3079 132.212C72.3234 132.058 70.5184 124.745 46.714 137.041Z" fill="#82B378"/>
<path d="M77.4299 132.259C79.1615 132.564 80.812 133.221 82.2795 134.189C83.7469 135.158 85 136.417 85.9612 137.89L85.2978 138.337C85.2978 138.337 81.1324 133.709 77.7693 132.953C74.4061 132.197 77.4299 132.259 77.4299 132.259Z" fill="#82B378"/>
<path d="M76.427 106.449C76.427 106.449 89.1545 99.3212 83.215 89.6482C83.215 89.6482 78.4634 83.7087 73.3724 82.1814C73.3724 82.1814 76.0876 96.606 73.3724 96.9454C70.6572 97.2848 71.5057 80.6541 71.5057 80.6541C71.5057 80.6541 58.0993 74.2055 52.8386 74.7146C52.8386 74.7146 61.1539 88.7997 58.4387 88.4603C55.7235 88.1209 46.39 73.8661 46.39 73.8661C46.39 73.8661 32.6442 71.3205 30.4381 79.4662C28.232 87.6118 31.7957 91.6846 33.8321 92.1937C35.8685 92.7028 48.9355 92.5331 48.5961 94.2301C48.2567 95.9272 39.4322 98.6424 34.5109 97.1151C34.5109 97.1151 39.9413 110.521 47.0688 109.843C54.1962 109.164 56.4023 104.752 60.8145 104.412C65.2267 104.073 68.4511 105.261 66.2449 106.449C64.0388 107.636 56.572 106.85 53.0083 109.873C49.4446 112.897 46.5597 114.764 53.178 116.044C59.7963 117.325 71.6908 116.553 74.0512 111.416L76.427 106.449Z" fill="#A8D29F"/>
<path d="M36.717 81.9346C36.717 81.9346 72.3542 93.4742 76.427 106.449C76.5556 110.775 77.7195 115.007 79.821 118.79V121.336C79.821 121.336 76.0876 112.62 74.0512 111.462C74.0512 111.462 82.0271 100.278 36.717 81.9346Z" fill="#82B378"/>
<path d="M79.8211 118.79C81.4565 121.552 82.5095 124.619 82.9154 127.803C83.3213 130.987 83.0716 134.22 82.1814 137.303L80.7621 136.918C80.7621 136.918 82.1352 125.733 79.2194 120.102C76.3036 114.471 79.8211 118.79 79.8211 118.79Z" fill="#82B378"/>
<path d="M215.983 74.9305C215.983 74.9305 207.421 69.4692 211.941 62.9743C211.941 62.9743 215.474 59.0403 219.084 58.1764C219.084 58.1764 216.615 68.0962 218.497 68.4356C220.379 68.775 220.441 57.1891 220.441 57.1891C220.441 57.1891 230.022 53.2397 233.662 53.795C233.662 53.795 227.306 63.2674 229.219 63.144C231.132 63.0206 238.183 53.4711 238.183 53.4711C238.183 53.4711 247.84 52.2523 248.982 58.0067C250.123 63.7611 247.547 66.4455 246.112 66.7077C244.678 66.97 235.591 66.3529 235.761 67.5408C235.93 68.7287 241.931 70.9811 245.449 70.1172C245.449 70.1172 241.129 79.2193 236.192 78.4634C231.256 77.7074 229.898 74.5448 226.843 74.1283C223.789 73.7117 221.506 74.4214 222.987 75.3316C224.468 76.2418 229.698 75.995 232.058 78.2319C234.418 80.4689 236.347 81.9036 231.688 82.5824C227.029 83.2613 218.806 82.1968 217.356 78.5559L215.983 74.9305Z" fill="#C7DCFB"/>
<path d="M244.523 59.5186C244.523 59.5186 219.284 66.1215 215.936 74.9459C215.681 77.9577 214.702 80.8632 213.082 83.4155L212.99 85.1896C212.99 85.1896 215.921 79.3273 217.387 78.5713C217.387 78.5559 212.296 70.4565 244.523 59.5186Z" fill="#C7DCFB"/>
<path d="M213.082 83.4002C211.836 85.2548 210.983 87.3448 210.574 89.5415C210.166 91.7382 210.211 93.9953 210.707 96.174L211.709 95.9734C211.709 95.9734 211.2 88.1364 213.422 84.3412C215.643 80.5461 213.082 83.4002 213.082 83.4002Z" fill="#C7DCFB"/>
<path d="M192.842 51.2033C192.842 51.2033 179.682 48.3184 182.351 38.1827C182.351 38.1827 184.958 31.6569 189.047 28.9263C189.047 28.9263 190.589 42.4097 192.996 41.9778C195.403 41.5458 190.281 27.075 190.281 27.075C190.281 27.075 200.416 17.8186 205.199 16.8158C205.199 16.8158 201.62 31.5026 203.934 30.469C206.248 29.4354 210.676 14.3474 210.676 14.3474C210.676 14.3474 222.138 8.4079 226.273 15.0262C230.407 21.6446 228.325 26.2265 226.782 27.1984C225.239 28.1703 213.53 31.5489 214.286 32.9528C215.042 34.3567 223.542 34.403 227.507 31.734C227.507 31.734 226.304 45.0324 219.793 46.3437C213.283 47.655 210.167 44.3382 206.186 45.233C202.206 46.1277 199.661 48.0253 201.928 48.4881C204.196 48.9509 210.583 46.2357 214.548 47.9636C218.513 49.6915 221.552 50.5554 216.091 53.5329C210.629 56.5103 199.877 58.9324 196.405 55.0756L192.842 51.2033Z" fill="#DFEBFD"/>
<path d="M221.429 18.9601C221.429 18.9601 193.027 38.7225 192.842 51.2032C193.898 55.0747 194.009 59.1434 193.166 63.0668L193.844 65.3192C193.844 65.3192 194.832 56.6645 196.313 55.0755C196.344 55.0755 186.285 47.3155 221.429 18.9601Z" fill="#DFEBFD"/>
<path d="M193.197 63.0669C192.494 65.9419 192.387 68.93 192.88 71.8481C193.374 74.7661 194.458 77.5527 196.066 80.037L197.223 79.3119C197.223 79.3119 193.011 69.7933 194.045 64.0543C195.079 58.3153 193.197 63.0669 193.197 63.0669Z" fill="#DFEBFD"/>
<path d="M259.349 149.059H249.599C249.074 148.612 249.954 147.609 250.879 147.516C251.4 147.508 251.918 147.571 252.422 147.701C252.545 145.912 253.317 137.905 256.202 138.229C259.457 138.584 256.202 141.746 255.292 143.628C254.64 145.037 254.063 146.479 253.564 147.948L254.381 148.118C254.813 146.791 256.418 142.348 258.454 142.61C260.845 142.903 259.873 144.693 258.176 145.696C256.942 146.467 255.415 147.578 254.69 148.102C255.316 148.216 255.951 148.268 256.587 148.257C257.574 148.186 258.553 148.471 259.349 149.059Z" fill="#82B378"/>
<path d="M36.7325 148.596C36.2234 147.778 34.6652 145.665 32.598 145.958C30.5307 146.251 35.0818 147.748 36.5319 148.596C36.2612 148.611 35.9899 148.58 35.7297 148.503C34.6437 148.368 33.5418 148.561 32.5671 149.059H41.8235C41.721 148.701 41.4831 148.396 41.1601 148.21C40.8821 148.136 40.5896 148.136 40.3116 148.21C40.8516 147.562 41.2373 145.495 39.71 146.02C38.5838 146.405 38.5838 147.67 38.7072 148.426L37.9821 148.534C37.5193 146.189 35.884 139.278 32.5825 139.124C29.2811 138.969 35.4829 146.189 37.4884 148.519L36.7325 148.596Z" fill="#82B378"/>
<path fill-rule="evenodd" clip-rule="evenodd" d="M195.125 148.102C194.801 148.766 195.588 149.028 195.588 149.028C199.368 148.905 203.193 149.028 206.958 148.828V148.102H195.125Z" fill="#F5F5F5"/>
<path d="M131.855 122.094H58.5143V142.499H131.855V122.094Z" fill="#3C5C88"/>
<path d="M95.1851 126.251C115.438 126.251 131.855 124.39 131.855 122.094C131.855 119.798 115.438 117.937 95.1851 117.937C74.9327 117.937 58.5149 119.798 58.5149 122.094C58.5149 124.39 74.9327 126.251 95.1851 126.251Z" fill="#526E95"/>
<path d="M95.1851 149.456C115.438 149.456 131.855 146.341 131.855 142.499C131.855 138.657 115.438 135.542 95.1851 135.542C74.9327 135.542 58.5149 138.657 58.5149 142.499C58.5149 146.341 74.9327 149.456 95.1851 149.456Z" fill="#3C5C88"/>
<path d="M65.9953 127.297L58.5143 128.452V142.499C58.5143 145.502 68.5497 148.062 82.6072 149.036L65.9953 127.297Z" fill="#305281"/>
<path d="M95.1846 149.454C115.437 149.454 131.858 146.339 131.858 142.497V122.094H115.24C105.584 137.421 88.0893 150.223 69.7076 147.499C76.3044 148.711 85.2859 149.454 95.1846 149.454Z" fill="#305281"/>
<path d="M95.1851 127.227C115.438 127.227 131.855 124.929 131.855 122.094C131.855 119.259 115.438 116.961 95.1851 116.961C74.9327 116.961 58.5149 119.259 58.5149 122.094C58.5149 124.929 74.9327 127.227 95.1851 127.227Z" fill="#526E95"/>
<path d="M106.386 137.174C106.385 136.914 106.331 136.657 106.228 136.418C106.126 136.179 105.976 135.963 105.788 135.782C105.6 135.602 105.378 135.462 105.135 135.369C104.892 135.276 104.633 135.233 104.373 135.242C101.966 135.311 99.4684 135.347 96.9108 135.347C85.7631 135.347 75.7827 134.665 69.058 133.589C67.8647 133.399 66.786 134.307 66.786 135.498C66.7879 135.957 66.9525 136.401 67.2504 136.75C67.5483 137.099 67.9603 137.331 68.4132 137.405C75.136 138.542 85.4039 139.268 96.9108 139.268C99.5077 139.268 102.038 139.231 104.481 139.161C104.988 139.15 105.47 138.942 105.826 138.58C106.182 138.219 106.383 137.733 106.386 137.226V137.174Z" fill="#7BA9E3"/>
<path d="M117.127 136.079V136.104C117.127 137.265 118.161 138.165 119.33 138.025C120.86 137.841 122.277 137.64 123.567 137.425C124.02 137.351 124.432 137.119 124.73 136.77C125.028 136.421 125.192 135.977 125.194 135.518C125.194 134.326 124.111 133.421 122.914 133.61C121.669 133.807 120.317 133.99 118.86 134.159C118.386 134.211 117.948 134.436 117.629 134.79C117.309 135.144 117.131 135.602 117.127 136.079Z" fill="#7BA9E3"/>
<path d="M131.855 96.1133H58.5143V116.518H131.855V96.1133Z" fill="#3C5C88"/>
<path d="M95.1851 100.271C115.438 100.271 131.855 98.4094 131.855 96.1134C131.855 93.8174 115.438 91.9562 95.1851 91.9562C74.9327 91.9562 58.5149 93.8174 58.5149 96.1134C58.5149 98.4094 74.9327 100.271 95.1851 100.271Z" fill="#526E95"/>
<path d="M95.1851 123.475C115.438 123.475 131.855 120.36 131.855 116.518C131.855 112.676 115.438 109.561 95.1851 109.561C74.9327 109.561 58.5149 112.676 58.5149 116.518C58.5149 120.36 74.9327 123.475 95.1851 123.475Z" fill="#3C5C88"/>
<path d="M95.1846 123.475C115.437 123.475 131.858 120.36 131.858 116.518V96.1133H115.24C105.584 111.441 88.0893 124.242 69.7076 121.518C76.3044 122.73 85.2859 123.475 95.1846 123.475Z" fill="#305281"/>
<path d="M95.1851 101.246C115.438 101.246 131.855 98.9483 131.855 96.1135C131.855 93.2787 115.438 90.9806 95.1851 90.9806C74.9327 90.9806 58.5149 93.2787 58.5149 96.1135C58.5149 98.9483 74.9327 101.246 95.1851 101.246Z" fill="#526E95"/>
<path d="M106.386 111.194C106.385 110.934 106.331 110.676 106.228 110.437C106.126 110.198 105.976 109.982 105.788 109.802C105.6 109.622 105.378 109.481 105.135 109.388C104.892 109.295 104.633 109.252 104.373 109.262C101.966 109.33 99.4684 109.366 96.9108 109.366C85.7631 109.366 75.7827 108.684 69.058 107.609C67.8647 107.419 66.786 108.327 66.786 109.518C66.7879 109.977 66.9525 110.42 67.2504 110.769C67.5483 111.118 67.9603 111.35 68.4132 111.424C75.136 112.561 85.4039 113.288 96.9108 113.288C99.5077 113.288 102.038 113.25 104.481 113.18C104.988 113.169 105.47 112.961 105.826 112.6C106.182 112.239 106.383 111.753 106.386 111.246V111.194Z" fill="#7BA9E3"/>
<path d="M118.853 110.099V110.124C118.853 111.285 119.887 112.184 121.056 112.044C122.586 111.86 124.003 111.66 125.293 111.444C125.746 111.37 126.158 111.138 126.456 110.789C126.754 110.44 126.918 109.997 126.92 109.538C126.92 108.346 125.838 107.44 124.64 107.629C123.395 107.826 122.043 108.009 120.586 108.178C120.112 108.231 119.674 108.455 119.355 108.809C119.036 109.163 118.857 109.622 118.853 110.099Z" fill="#7BA9E3"/>
<path d="M131.855 70.1329H58.5143V90.5377H131.855V70.1329Z" fill="#3C5C88"/>
<path d="M95.1851 74.2902C115.438 74.2902 131.855 72.4289 131.855 70.1329C131.855 67.837 115.438 65.9757 95.1851 65.9757C74.9327 65.9757 58.5149 67.837 58.5149 70.1329C58.5149 72.4289 74.9327 74.2902 95.1851 74.2902Z" fill="#526E95"/>
<path d="M95.1851 97.4944C115.438 97.4944 131.855 94.3798 131.855 90.5376C131.855 86.6955 115.438 83.5808 95.1851 83.5808C74.9327 83.5808 58.5149 86.6955 58.5149 90.5376C58.5149 94.3798 74.9327 97.4944 95.1851 97.4944Z" fill="#3C5C88"/>
<path d="M95.1846 97.4945C115.437 97.4945 131.858 94.38 131.858 90.5376V70.1354H115.24C105.584 85.4631 88.0893 98.2642 69.7076 95.54C76.3044 96.7501 85.2859 97.4945 95.1846 97.4945Z" fill="#305281"/>
<path d="M95.1851 75.2658C115.438 75.2658 131.855 72.9677 131.855 70.1329C131.855 67.2981 115.438 65 95.1851 65C74.9327 65 58.5149 67.2981 58.5149 70.1329C58.5149 72.9677 74.9327 75.2658 95.1851 75.2658Z" fill="#526E95"/>
<path d="M106.386 85.2134C106.385 84.9532 106.331 84.6959 106.228 84.4568C106.125 84.2178 105.976 84.0018 105.788 83.8216C105.6 83.6414 105.378 83.5008 105.135 83.4079C104.892 83.3151 104.633 83.272 104.373 83.2811C101.966 83.3496 99.4684 83.3857 96.9108 83.3857C85.7631 83.3857 75.7827 82.704 69.058 81.6283C67.8647 81.4382 66.786 82.3461 66.786 83.5371C66.7879 83.9961 66.9525 84.4395 67.2504 84.7887C67.5483 85.1378 67.9603 85.37 68.4132 85.444C75.136 86.5806 85.4039 87.3072 96.9108 87.3072C99.5077 87.3072 102.038 87.2705 104.481 87.1995C104.988 87.1887 105.47 86.9805 105.826 86.6193C106.182 86.2581 106.383 85.7724 106.386 85.2654V85.2134Z" fill="#7BA9E3"/>
<path d="M118.853 84.118V84.1434C118.853 85.3046 119.887 86.2036 121.056 86.0636C122.586 85.8799 124.003 85.679 125.293 85.4636C125.746 85.3899 126.158 85.1578 126.456 84.8088C126.754 84.4597 126.918 84.0163 126.92 83.5573C126.92 82.365 125.838 81.4597 124.64 81.6485C123.395 81.8455 122.043 82.0286 120.586 82.1978C120.112 82.2502 119.674 82.4746 119.355 82.8285C119.036 83.1824 118.857 83.6413 118.853 84.118Z" fill="#7BA9E3"/>
<path fill-rule="evenodd" clip-rule="evenodd" d="M107.902 58.2123L109.306 57.2852C109.592 57.0966 109.809 56.8195 109.923 56.4963C110.037 56.173 110.042 55.8214 109.937 55.4951C109.52 54.2174 109.263 52.8929 109.173 51.552C109.148 51.2096 109.012 50.8847 108.785 50.6271C108.558 50.3695 108.253 50.1933 107.917 50.1257L106.268 49.787C105.858 49.704 105.497 49.4619 105.265 49.1137C105.033 48.7655 104.949 48.3395 105.03 47.9292L105.672 44.7706C105.757 44.3597 106 43.999 106.35 43.7678C106.701 43.5366 107.128 43.4537 107.539 43.5375L109.189 43.8727C109.525 43.9417 109.874 43.899 110.183 43.7511C110.492 43.6031 110.745 43.358 110.901 43.0533C111.509 41.8542 112.264 40.7356 113.148 39.7235C113.373 39.4643 113.506 39.1385 113.527 38.7964C113.548 38.4543 113.456 38.1147 113.265 37.83L112.337 36.4258C112.223 36.2527 112.143 36.0588 112.104 35.8551C112.064 35.6513 112.065 35.4418 112.106 35.2384C112.148 35.0351 112.229 34.8418 112.345 34.6698C112.461 34.4977 112.61 34.3502 112.783 34.2357L115.477 32.4535C115.826 32.2221 116.254 32.1391 116.665 32.2227C117.076 32.3063 117.437 32.5496 117.668 32.8992L118.595 34.302C118.784 34.5887 119.061 34.8058 119.384 34.9202C119.707 35.0345 120.059 35.0399 120.386 34.9353C121.663 34.5179 122.988 34.2608 124.329 34.1701C124.671 34.1456 124.996 34.0094 125.254 33.7824C125.512 33.5554 125.688 33.2501 125.755 32.9135L126.091 31.2639C126.133 31.0605 126.214 30.8673 126.33 30.6953C126.446 30.5233 126.595 30.3758 126.768 30.2614C126.941 30.147 127.136 30.0679 127.339 30.0286C127.543 29.9893 127.753 29.9905 127.956 30.0323L131.116 30.6741C131.527 30.7581 131.888 31.0018 132.119 31.3514C132.35 31.7011 132.433 32.1283 132.35 32.5391L132.014 34.1893C131.944 34.5252 131.986 34.8746 132.135 35.1839C132.283 35.4932 132.529 35.7451 132.835 35.9009C134.033 36.5106 135.152 37.2651 136.166 38.1474C136.425 38.372 136.75 38.5055 137.092 38.5271C137.435 38.5488 137.774 38.4574 138.059 38.2672L139.463 37.3401C139.636 37.2254 139.83 37.146 140.034 37.1064C140.237 37.0667 140.447 37.0676 140.651 37.109C140.854 37.1504 141.047 37.2315 141.22 37.3476C141.392 37.4637 141.539 37.6126 141.654 37.7858L143.432 40.4745C143.664 40.8242 143.747 41.2513 143.663 41.6621C143.579 42.0729 143.336 42.4337 142.987 42.6653L141.583 43.5924C141.297 43.7807 141.079 44.0578 140.965 44.3812C140.851 44.7046 140.846 45.0566 140.951 45.3832C141.368 46.6594 141.625 47.9828 141.715 49.3227C141.74 49.6649 141.876 49.9897 142.102 50.2473C142.329 50.5049 142.634 50.6811 142.97 50.749L144.622 51.0835C144.825 51.1251 145.018 51.2064 145.191 51.3227C145.363 51.4391 145.51 51.5883 145.624 51.7617C145.739 51.9351 145.818 52.1294 145.857 52.3334C145.896 52.5374 145.895 52.7471 145.853 52.9506L145.211 56.1077C145.127 56.5184 144.883 56.879 144.534 57.1105C144.184 57.3421 143.757 57.4256 143.346 57.3429L141.697 57.0049C141.361 56.9361 141.012 56.9794 140.703 57.128C140.394 57.2766 140.142 57.5225 139.985 57.8279C139.378 59.026 138.623 60.1438 137.739 61.1555C137.515 61.415 137.382 61.7407 137.36 62.0829C137.339 62.4251 137.43 62.7649 137.62 63.0504L138.547 64.4539C138.662 64.6269 138.742 64.8208 138.781 65.0246C138.821 65.2284 138.82 65.438 138.779 65.6415C138.738 65.8449 138.656 66.0382 138.54 66.2102C138.424 66.3823 138.275 66.5297 138.101 66.644L135.413 68.427C135.062 68.6575 134.635 68.7399 134.224 68.6561C133.813 68.5723 133.452 68.3291 133.22 67.9798L132.293 66.5756C132.104 66.289 131.827 66.0721 131.503 65.9581C131.179 65.8441 130.827 65.8393 130.501 65.9444C129.224 66.3611 127.9 66.6179 126.56 66.7089C126.218 66.7334 125.893 66.8694 125.635 67.0961C125.377 67.3228 125.201 67.6277 125.133 67.9641L124.798 69.613C124.714 70.0242 124.47 70.3853 124.12 70.6171C123.77 70.8488 123.343 70.9322 122.931 70.8489L119.772 70.2035C119.568 70.1622 119.375 70.0812 119.203 69.9651C119.03 69.849 118.883 69.7 118.768 69.5268C118.654 69.3536 118.574 69.1594 118.535 68.9555C118.495 68.7516 118.497 68.542 118.538 68.3385L118.874 66.6854C118.943 66.3497 118.9 66.0006 118.752 65.6915C118.604 65.3825 118.358 65.1304 118.053 64.9738C116.853 64.3682 115.735 63.6136 114.723 62.7281C114.464 62.5037 114.139 62.3706 113.797 62.3493C113.455 62.3279 113.115 62.4194 112.83 62.6097L111.424 63.5368C111.251 63.6514 111.057 63.7308 110.853 63.7705C110.649 63.8101 110.44 63.8092 110.236 63.7678C110.033 63.7264 109.84 63.6453 109.668 63.5292C109.495 63.4131 109.348 63.2642 109.233 63.0911L107.454 60.4017C107.34 60.2286 107.26 60.0347 107.221 59.8309C107.181 59.6272 107.182 59.4176 107.224 59.2143C107.265 59.011 107.347 58.8178 107.463 58.6459C107.579 58.4739 107.729 58.3266 107.902 58.2123ZM119.064 56.4337C121.561 59.1301 125.616 59.956 128.97 58.4505C130.251 57.8853 131.378 57.0213 132.257 55.9309C133.135 54.8405 133.739 53.5555 134.019 52.1836C134.298 50.8117 134.245 49.3927 133.863 48.0457C133.481 46.6987 132.781 45.4629 131.823 44.4418C129.326 41.7475 125.272 40.9202 121.92 42.4257C120.638 42.9904 119.511 43.8541 118.632 44.9443C117.753 46.0346 117.148 47.3195 116.869 48.6915C116.589 50.0634 116.642 51.4824 117.024 52.8295C117.406 54.1766 118.106 55.4125 119.064 56.4337Z" fill="#3C5C88"/>
<path d="M200.083 46.9219H128.117V149.17H200.083V46.9219Z" fill="#7BA9E3"/>
<path fill-rule="evenodd" clip-rule="evenodd" d="M125.218 75.169V52.2685C125.22 51.5004 125.526 50.7643 126.069 50.2211C126.613 49.6779 127.349 49.3718 128.117 49.3695H200.083C200.851 49.3712 201.588 49.6771 202.132 50.2204C202.676 50.7636 202.982 51.5 202.985 52.2685V75.1668C202.982 75.9351 202.676 76.6711 202.132 77.2143C201.589 77.7575 200.853 78.0636 200.084 78.0658H128.117C127.349 78.0634 126.613 77.7572 126.07 77.214C125.526 76.6709 125.22 75.9349 125.218 75.1668" fill="#526E95"/>
<path d="M189.475 51.1053H130.832V75.9563H189.475V51.1053Z" fill="white"/>
<path d="M136.862 76.2944H130.346V50.7631H189.962V76.2944H136.862ZM140.049 69.5271V57.8156C140.049 57.4069 140.399 57.0532 140.905 56.892V51.4441H131.318V75.6204H140.901V70.4478C140.399 70.2874 140.049 69.9329 140.049 69.5271ZM152.907 69.5271V57.8156C152.907 57.3613 153.341 56.974 153.935 56.8456V51.4441H141.874V56.8328C142.499 56.9469 142.964 57.3456 142.964 57.8156V69.5271C142.964 69.9971 142.499 70.3958 141.874 70.5099V75.6204H153.934V70.4949C153.339 70.3665 152.907 69.9793 152.907 69.5271ZM166.152 69.5271V57.8156C166.152 57.4176 166.485 57.071 166.967 56.9048V51.4441H154.904V56.8735C155.44 57.0247 155.82 57.3905 155.82 57.8156V69.5271C155.82 69.955 155.44 70.3188 154.904 70.4692V75.6204H166.964V70.435C166.484 70.2688 166.151 69.923 166.151 69.5271H166.152ZM179.203 69.5271V57.8156C179.203 57.4226 179.527 57.0803 179.999 56.912V51.4441H167.937V56.8264C168.579 56.9312 169.065 57.3363 169.065 57.8156V69.5271C169.065 70.0071 168.582 70.4115 167.937 70.5163V75.6204H179.997V70.4286C179.526 70.2596 179.201 69.9173 179.201 69.5271H179.203ZM188.991 75.6204V51.4441H180.969V56.8235C181.623 56.9234 182.117 57.3313 182.117 57.8156V69.5271C182.117 70.0114 181.623 70.4193 180.969 70.5192V75.6204H188.989H188.991Z" fill="#526E95"/>
<path d="M148.783 63.6029H146.662V71.1482H148.783V63.6029Z" fill="#D4ECFD"/>
<path d="M136.484 63.6029H134.363V71.1482H136.484V63.6029Z" fill="#D4ECFD"/>
<path d="M186.714 63.6029H184.593V71.1482H186.714V63.6029Z" fill="#D4ECFD"/>
<path d="M174.594 63.6029H172.474V71.1482H174.594V63.6029Z" fill="#D4ECFD"/>
<path d="M161.509 63.6029H159.388V71.1482H161.509V63.6029Z" fill="#D4ECFD"/>
<path fill-rule="evenodd" clip-rule="evenodd" d="M125.218 106.575V83.677C125.22 82.9088 125.526 82.1727 126.069 81.6295C126.613 81.0864 127.349 80.7802 128.117 80.778H200.083C200.851 80.78 201.588 81.0861 202.131 81.6293C202.675 82.1725 202.981 82.9087 202.983 83.677V106.575C202.981 107.344 202.674 108.08 202.131 108.623C201.587 109.166 200.851 109.472 200.083 109.474H128.117C127.349 109.472 126.613 109.166 126.07 108.622C125.526 108.079 125.22 107.343 125.218 106.575Z" fill="#526E95"/>
<path fill-rule="evenodd" clip-rule="evenodd" d="M125.218 137.982V115.083C125.22 114.315 125.526 113.579 126.069 113.036C126.613 112.493 127.349 112.187 128.117 112.184H200.083C200.851 112.186 201.588 112.492 202.131 113.036C202.675 113.579 202.981 114.315 202.983 115.083V137.982C202.981 138.75 202.674 139.486 202.131 140.029C201.587 140.572 200.851 140.878 200.083 140.881H128.117C127.349 140.878 126.613 140.572 126.07 140.029C125.526 139.486 125.22 138.75 125.218 137.982Z" fill="#526E95"/>
<path d="M189.475 82.5117H130.832V107.363H189.475V82.5117Z" fill="white"/>
<path d="M189.475 113.918H130.832V138.769H189.475V113.918Z" fill="white"/>
<path d="M136.862 107.701H130.346V82.1702H189.962V107.701H136.862ZM140.049 100.931V89.2219C140.049 88.8133 140.399 88.4596 140.905 88.2948V82.847H131.318V107.023H140.901V101.854C140.399 101.691 140.049 101.339 140.049 100.931ZM152.906 100.931V89.2219C152.906 88.7677 153.339 88.3804 153.934 88.252V82.8505H141.874V88.2392C142.499 88.354 142.964 88.752 142.964 89.2219V100.931C142.964 101.401 142.499 101.799 141.874 101.913V107.024H153.934V101.905C153.339 101.773 152.907 101.386 152.907 100.931H152.906ZM166.151 100.931V89.2219C166.151 88.824 166.484 88.4774 166.965 88.3112V82.8505H154.904V88.2834C155.44 88.4346 155.82 88.8005 155.82 89.2255V100.934C155.82 101.362 155.44 101.726 154.904 101.876V107.028H166.964V101.845C166.484 101.675 166.151 101.329 166.151 100.931ZM179.201 100.931V89.2219C179.201 88.8297 179.526 88.4867 179.997 88.3184V82.8505H167.937V88.2328C168.579 88.3376 169.065 88.7427 169.065 89.2219V100.931C169.065 101.411 168.582 101.815 167.937 101.92V107.024H179.997V101.834C179.526 101.667 179.201 101.324 179.201 100.931ZM188.989 107.024V82.8477H180.969V88.2271C181.623 88.3269 182.117 88.7348 182.117 89.2191V100.928C182.117 101.413 181.623 101.82 180.969 101.92V107.021H188.989V107.024Z" fill="#526E95"/>
<path d="M136.862 139.108H130.346V113.576H189.962V139.108H136.862ZM140.049 132.337V120.628C140.049 120.22 140.399 119.866 140.905 119.705V114.257H131.318V138.433H140.901V133.263C140.399 133.1 140.049 132.746 140.049 132.337ZM152.906 132.337V120.628C152.906 120.174 153.339 119.787 153.934 119.658V114.257H141.874V119.645C142.499 119.76 142.964 120.158 142.964 120.628V132.337C142.964 132.808 142.499 133.206 141.874 133.32V138.43H153.934V133.308C153.339 133.179 152.907 132.792 152.907 132.337H152.906ZM166.151 132.337V120.628C166.151 120.23 166.484 119.884 166.965 119.717V114.257H154.904V119.686C155.44 119.837 155.82 120.203 155.82 120.628V132.337C155.82 132.765 155.44 133.129 154.904 133.279V138.43H166.964V133.248C166.484 133.081 166.151 132.736 166.151 132.337ZM179.201 132.337V120.628C179.201 120.236 179.526 119.893 179.997 119.725V114.257H167.937V119.639C168.579 119.744 169.065 120.149 169.065 120.628V132.337C169.065 132.817 168.582 133.222 167.937 133.326V138.43H179.997V133.241C179.526 133.07 179.201 132.73 179.201 132.337ZM188.989 138.43V114.254H180.969V119.633C181.623 119.733 182.117 120.141 182.117 120.625V132.334C182.117 132.819 181.623 133.226 180.969 133.326V138.427H188.989V138.43Z" fill="#526E95"/>
<path d="M148.783 95.0092H146.662V102.554H148.783V95.0092Z" fill="#D4ECFD"/>
<path d="M148.783 126.416H146.662V133.961H148.783V126.416Z" fill="#D4ECFD"/>
<path d="M136.484 95.0092H134.363V102.554H136.484V95.0092Z" fill="#D4ECFD"/>
<path d="M136.484 126.416H134.363V133.961H136.484V126.416Z" fill="#D4ECFD"/>
<path d="M186.714 95.0092H184.593V102.554H186.714V95.0092Z" fill="#D4ECFD"/>
<path d="M174.594 95.0092H172.474V102.554H174.594V95.0092Z" fill="#D4ECFD"/>
<path d="M174.594 126.416H172.474V133.961H174.594V126.416Z" fill="#D4ECFD"/>
<path d="M161.509 95.0092H159.388V102.554H161.509V95.0092Z" fill="#D4ECFD"/>
<path d="M161.509 126.416H159.388V133.961H161.509V126.416Z" fill="#D4ECFD"/>
<path fill-rule="evenodd" clip-rule="evenodd" d="M193.996 61.0269H197.481V61.9241H193.996V61.0269ZM193.996 63.2713H197.481V64.1677H193.996V63.2713ZM193.996 65.5156H197.481V66.412H193.996V65.5156ZM193.996 67.7592H197.481V68.6564H193.996V67.7592ZM193.996 58.7826H197.481V59.6798H193.996V58.7826Z" fill="#2A4589"/>
<path fill-rule="evenodd" clip-rule="evenodd" d="M177.274 146.179C182.101 146.102 185.711 146.045 187.378 145.517C189.178 144.95 188.806 143.852 187.772 142.098C183.221 144.191 184.433 141.667 182.305 141.989C180.81 143.191 178.596 143.998 175.662 144.409C174.415 145.323 174.918 146.146 177.274 146.179Z" fill="#142D4D"/>
<path fill-rule="evenodd" clip-rule="evenodd" d="M183.47 72.6128H213.302C213.609 72.6293 213.904 72.741 214.146 72.9325C214.387 73.1239 214.563 73.3857 214.65 73.6816L219.957 93.8948C220.115 94.4828 219.757 94.9636 219.169 94.9636H189.337C189.03 94.9467 188.735 94.8348 188.493 94.6434C188.252 94.452 188.076 94.1905 187.989 93.8948L182.682 73.6816C182.527 73.0936 182.882 72.6128 183.47 72.6128Z" fill="#DEE7F5"/>
<path fill-rule="evenodd" clip-rule="evenodd" d="M215.288 73.1961L218.892 86.9112C223.22 84.7988 228.434 81.4094 233.899 77.0616C234 75.4935 234.183 73.9318 234.446 72.3827C234.008 71.5125 233.527 70.5824 233.004 69.5924C238.048 69.5608 241.125 68.4757 242.235 66.337C240.886 62.3885 238.999 58.356 236.574 54.2394C234.875 51.737 231.555 50.2657 226.616 49.8253C226.038 56.4574 215.868 56.1169 218.261 50.4086C214.57 51.3997 211.444 53.2299 208.883 55.8994C206.676 61.3307 205.332 65.121 204.851 67.2703C207.244 68.9465 209.511 70.0311 211.653 70.524C211.76 71.0542 211.836 71.59 211.883 72.1289H213.943C214.25 72.1459 214.544 72.2576 214.785 72.4488C215.026 72.6399 215.202 72.901 215.288 73.1961Z" fill="#6998D0"/>
<path fill-rule="evenodd" clip-rule="evenodd" d="M218.892 86.9192L215.288 73.2041C215.202 72.9081 215.025 72.6464 214.784 72.4551C214.542 72.2639 214.246 72.1527 213.939 72.1368H184.108C183.52 72.1368 182.472 72.8935 182.647 73.4768C182.637 73.3648 182.651 73.2519 182.689 73.1458C182.726 73.0398 182.786 72.943 182.864 72.8619C182.942 72.7808 183.036 72.7173 183.141 72.6757C183.245 72.6342 183.357 72.6154 183.47 72.6208H213.302C213.609 72.6373 213.904 72.749 214.146 72.9405C214.387 73.1319 214.563 73.3937 214.65 73.6896L219.957 93.9028C220.006 94.0517 220.012 94.2112 219.975 94.3634C219.937 94.5155 219.858 94.6541 219.746 94.7636C220.238 94.4483 220.706 93.835 220.596 93.4157L218.892 86.9192Z" fill="#8D9FCA"/>
<path fill-rule="evenodd" clip-rule="evenodd" d="M219.171 94.9637H189.337C189.227 94.9628 189.117 94.9469 189.011 94.9164C189.605 96.455 191.218 96.228 191.848 96.2217H227.218C229.135 96.1397 229.086 94.8029 229.11 93.5007H220.613C220.642 93.9122 220.205 94.4608 219.748 94.7619C219.587 94.8991 219.382 94.9711 219.171 94.9637Z" fill="#8D9FCA"/>
<path fill-rule="evenodd" clip-rule="evenodd" d="M214.995 80.924C211.798 82.543 208.014 83.0395 204.118 83.2382C204.161 83.3785 204.195 83.5218 204.218 83.667C204.477 85.3065 203.323 86.7032 201.652 86.7032C200.076 86.7032 198.657 85.4578 198.408 83.9097C198.382 83.7456 198.37 83.5794 198.373 83.4132C194.334 83.5235 190.433 83.7442 187.206 85.0069L189.425 93.4567H218.274L214.995 80.924Z" fill="#AAB9DE"/>
<path fill-rule="evenodd" clip-rule="evenodd" d="M201.014 81.8524C201.552 81.8698 202.069 82.0715 202.477 82.4239C202.885 82.7762 203.16 83.2578 203.255 83.7883C203.424 84.8571 202.696 85.7242 201.627 85.7242C201.088 85.7054 200.572 85.5032 200.164 85.1512C199.756 84.7991 199.481 84.3183 199.384 83.7883C199.215 82.7194 199.945 81.8524 201.014 81.8524Z" fill="#AAB9DE"/>
<path fill-rule="evenodd" clip-rule="evenodd" d="M235.337 90.0405C234.736 88.2013 234.306 86.3104 234.054 84.3921C230.035 85.948 225.442 87.4472 219.634 89.7425L220.422 92.7378C229.196 93.0215 234.167 92.1224 235.337 90.0405Z" fill="#6998D0"/>
<path fill-rule="evenodd" clip-rule="evenodd" d="M219.634 89.7425C225.442 87.4472 230.038 85.948 234.054 84.392C237.594 83.0205 240.687 81.608 243.767 79.5697C243.64 75.6286 243.055 71.8278 241.425 67.4153C239.93 68.8446 237.123 69.5729 233.004 69.6002C234.195 71.8546 235.167 73.7988 235.918 75.4331C229.723 80.5707 223.749 84.5497 218.893 86.9207L219.634 89.7425Z" fill="#F4AE7C"/>
<path fill-rule="evenodd" clip-rule="evenodd" d="M205.621 67.7969C205.173 69.3607 204.758 70.8063 204.378 72.1337H211.88C211.833 71.5948 211.756 71.0591 211.65 70.5289C209.741 70.0864 207.732 69.1757 205.621 67.7969Z" fill="#F4AE7C"/>
<path fill-rule="evenodd" clip-rule="evenodd" d="M187.404 140.509C191.843 124.415 193.43 113.111 192.167 106.595C194.682 106.953 197.226 107.067 199.764 106.934C199.377 105.2 198.988 103.447 198.592 101.681C198.636 99.2785 199.863 97.5003 204.212 96.2218H191.847C191.427 96.2218 190.568 96.3274 189.868 95.938C185.885 97.0762 183.941 98.9553 183.276 101.251C182.789 107.556 184.102 114.754 182.983 140.556C184.454 140.7 185.937 140.684 187.404 140.509Z" fill="#0F3970"/>
<path fill-rule="evenodd" clip-rule="evenodd" d="M192.041 96.2218H191.847C191.427 96.2218 190.568 96.3274 189.868 95.938C185.885 97.0762 183.941 98.9553 183.276 101.251C182.789 107.556 184.102 114.754 182.983 140.556C183.84 140.643 184.702 140.672 185.563 140.643C187.855 131.674 193.308 109.674 187.165 100.191C188.609 98.6601 190.248 97.3255 192.041 96.2218Z" fill="#003D81"/>
<path fill-rule="evenodd" clip-rule="evenodd" d="M226.607 49.8932C225.818 48.889 225.12 47.9541 224.917 47.2905C225.076 46.8364 225.243 46.2626 225.416 45.569C228.377 43.5574 228.781 42.0698 226.63 41.1061C226.197 41.3488 225.659 42.0971 225.014 43.3509C224.503 43.3299 224.114 43.0672 223.848 42.5627C224.461 40.445 224.858 38.7251 225.041 37.403C223.583 35.2354 220.17 34.9264 215.652 35.5113C215.442 36.7136 215.271 37.9873 215.138 39.3326C214.339 40.0688 214.441 42.8007 215.178 45.941C214.81 47.7277 215.913 48.704 218.488 48.8701C218.526 49.5006 218.277 50.3109 218.258 50.4071C218.259 50.4134 218.259 50.4197 218.258 50.426C215.896 56.0981 225.965 56.4465 226.607 49.8932Z" fill="#F4AE7C"/>
<path fill-rule="evenodd" clip-rule="evenodd" d="M215.652 35.5128C220.17 34.928 223.583 35.237 225.041 37.4046C224.858 38.7277 224.461 40.4476 223.849 42.5643C224.112 43.0687 224.501 43.3315 225.014 43.3525C225.658 42.0997 226.196 41.3515 226.63 41.1076C228.783 42.0703 228.378 43.558 225.416 45.5706C225.241 46.2642 225.074 46.838 224.917 47.292C227.581 46.6946 229.804 44.3125 230.119 43.2816C233.226 37.1571 229.761 34.5701 227.912 33.6258C227.094 27.5628 218.286 32.9227 213.882 30C212.113 32.4214 214.287 35.4592 215.652 35.5128Z" fill="#0F3970"/>
<path fill-rule="evenodd" clip-rule="evenodd" d="M221.836 48.7911C220.723 48.8898 219.605 48.9167 218.488 48.8715C218.494 49.2972 218.441 49.7217 218.33 50.1327C219.925 50.0949 221.093 49.6477 221.836 48.7911Z" fill="#ED7D5B"/>
<path fill-rule="evenodd" clip-rule="evenodd" d="M208.188 105.789H235.103C235.567 105.79 236.011 105.975 236.338 106.303C236.666 106.63 236.85 107.074 236.852 107.537C236.851 108.001 236.666 108.445 236.339 108.773C236.011 109.101 235.567 109.286 235.103 109.287H208.188C207.724 109.286 207.28 109.101 206.952 108.773C206.624 108.446 206.439 108.001 206.438 107.537C206.44 107.074 206.625 106.63 206.952 106.303C207.28 105.975 207.724 105.79 208.188 105.789Z" fill="#9D7558"/>
<path fill-rule="evenodd" clip-rule="evenodd" d="M233.499 138.918C232.84 138.258 232.058 137.733 231.197 137.376C230.335 137.018 229.412 136.833 228.479 136.833H214.812C212.929 136.837 211.124 137.587 209.793 138.918C208.461 140.25 207.711 142.054 207.707 143.938V145.371H207.162V147.144H211.194V145.371H210.645V143.939C210.65 142.835 211.09 141.778 211.87 140.998C212.651 140.217 213.708 139.777 214.812 139.773H228.479C229.583 139.777 230.64 140.217 231.421 140.998C232.201 141.778 232.642 142.835 232.646 143.939V145.372H232.099V147.146H236.131V145.372H235.583V143.939C235.582 143.006 235.398 142.083 235.041 141.221C234.683 140.36 234.159 139.577 233.499 138.918Z" fill="#D1A383"/>
<path d="M223.115 109.29H220.176V136.832H223.115V109.29Z" fill="#D1A383"/>
<path fill-rule="evenodd" clip-rule="evenodd" d="M231.06 105.682C236.262 103.814 236.973 98.629 234.686 90.7957C232.806 92.3343 228.051 92.979 220.422 92.73L220.599 93.4078C220.607 93.4382 220.613 93.4694 220.615 93.5008H229.112C229.088 94.7967 229.137 96.1398 227.22 96.2218H204.212C199.863 97.5003 198.636 99.2785 198.592 101.681C201.345 113.977 203.794 125.26 207.132 140.848C208.255 141.478 209.794 141.43 211.747 140.703C213.312 125.588 212.883 114.595 210.459 107.725C216.896 107.749 223.763 106.872 231.06 105.682Z" fill="#003D81"/>
<path fill-rule="evenodd" clip-rule="evenodd" d="M231.06 105.682C236.262 103.814 236.973 98.629 234.686 90.7957C234.206 91.1665 233.67 91.4567 233.097 91.6548C234.988 99.7041 232.939 104.109 226.815 104.539C219.679 105.597 213.763 106.106 209.066 106.065C211.135 119.487 211.49 131.189 210.13 141.171C210.682 141.058 211.224 140.9 211.751 140.698C213.315 125.583 212.886 114.591 210.463 107.72C216.896 107.749 223.763 106.874 231.06 105.682Z" fill="#0F3970"/>
<path fill-rule="evenodd" clip-rule="evenodd" d="M183.449 140.599C183.319 141.087 183.105 141.549 182.819 141.965C184.211 142.098 183.675 143.892 187.436 142.246C187.262 141.692 187.171 141.115 187.166 140.534C185.932 140.667 184.688 140.688 183.449 140.599Z" fill="#F4AE7C"/>
<path fill-rule="evenodd" clip-rule="evenodd" d="M207.144 149.004C209.706 147.946 210.091 146.227 211.498 145.568C212.906 144.909 213.083 143.725 211.694 142.442C210.669 143.261 209.397 144.267 208.724 143.734C208.275 143.378 206.749 143.402 206.446 143.92C205.117 147.008 203.269 146.031 202.905 147.436C202.861 149.307 205.53 149.67 207.144 149.004Z" fill="#142D4D"/>
<path fill-rule="evenodd" clip-rule="evenodd" d="M207.581 141.056C207.601 141.893 207.486 142.728 207.242 143.529C207.792 143.443 208.453 143.52 208.724 143.734C209.354 144.228 210.486 143.4 211.465 142.631C211.287 142.076 211.181 141.5 211.15 140.917C209.714 141.363 208.525 141.409 207.581 141.056Z" fill="#F4AE7C"/>
<path fill-rule="evenodd" clip-rule="evenodd" d="M233.004 69.6003C232.342 68.4022 231.641 66.79 230.901 64.7637C231.298 67.1284 231.277 68.8215 231.919 70.7542C231.407 73.5124 231.18 76.3158 231.24 79.1204C232.118 78.4615 233.005 77.7783 233.899 77.071C234 75.503 234.183 73.9412 234.446 72.3921C234.008 71.5219 233.527 70.5918 233.004 69.6018V69.6003ZM210.106 70.0732C210.612 70.2527 211.127 70.4032 211.65 70.5241C211.457 67.5214 211.331 65.0401 211.27 63.0801C210.694 65.9755 210.306 68.3065 210.106 70.0732ZM235.329 90.0404C234.728 88.2012 234.298 86.3104 234.046 84.392C233.302 84.6805 232.539 84.9674 231.75 85.2559C232.072 87.4127 232.52 89.5487 233.092 91.6531C234.22 91.2328 234.968 90.6952 235.337 90.0404H235.329Z" fill="#406FB5"/>
<path d="M290.142 148.951H0.23141C0.103606 148.951 0 149.055 0 149.182V149.491C0 149.619 0.103606 149.722 0.23141 149.722H290.142C290.27 149.722 290.373 149.619 290.373 149.491V149.182C290.373 149.055 290.27 148.951 290.142 148.951Z" fill="#2E3552"/>
</svg>
