<svg xmlns="http://www.w3.org/2000/svg" xmlns:xlink="http://www.w3.org/1999/xlink" viewBox="0 0 188.22 97.23"><defs><style>.cls-1,.cls-11,.cls-12,.cls-13,.cls-17,.cls-19,.cls-20{fill:none;}.cls-2{isolation:isolate;}.cls-3{fill:#ebf3fa;}.cls-4{fill:#a8d29f;}.cls-5{fill:#82b378;}.cls-6{fill:#c7dcfb;}.cls-7{fill:#dfebfd;}.cls-8{fill:#2e3552;}.cls-9{opacity:0.25;}.cls-26,.cls-38,.cls-39,.cls-41,.cls-9{mix-blend-mode:multiply;}.cls-10{fill:#2a507a;}.cls-11,.cls-12,.cls-13{stroke:#2a507a;}.cls-11,.cls-12,.cls-17,.cls-19{stroke-miterlimit:10;}.cls-11,.cls-17{stroke-width:1.3px;}.cls-12,.cls-13,.cls-19,.cls-20{stroke-linecap:round;}.cls-12,.cls-19{stroke-width:5.41px;}.cls-13,.cls-20{stroke-linejoin:round;stroke-width:3.91px;}.cls-14{fill:#fff;}.cls-15{fill:#e6505c;}.cls-16{fill:#ace2f9;}.cls-17{stroke:#ace2f9;}.cls-18{fill:#bde7ff;}.cls-19{stroke:#192469;}.cls-20{stroke:#e6505c;}.cls-21{fill:#fecb22;}.cls-22{fill:#f29127;}.cls-23{fill:#fdaeb3;}.cls-24{fill:#e58099;}.cls-25{fill:#1d2468;}.cls-26{opacity:0.47;fill:url(#linear-gradient);}.cls-27{fill:#423d73;}.cls-28{fill:#fcae24;}.cls-29{fill:#003977;}.cls-30{fill:#332f62;}.cls-31{fill:#fac12a;}.cls-32{fill:#9e9dba;}.cls-33{fill:#d5d5d6;}.cls-34{fill:#fefeff;}.cls-35{fill:#e68d00;}.cls-36{fill:#fc0;}.cls-37{clip-path:url(#clip-path);}.cls-38{fill:#301300;}.cls-38,.cls-39{opacity:0.85;}.cls-39{fill:#572200;}.cls-40{clip-path:url(#clip-path-2);}.cls-41{fill:#e70013;opacity:0.1;}</style><linearGradient id="linear-gradient" x1="101.96" y1="16.08" x2="102.67" y2="16.08" gradientUnits="userSpaceOnUse"><stop offset="0" stop-color="#f7941e"/><stop offset="1" stop-color="#f7941e" stop-opacity="0"/></linearGradient><clipPath id="clip-path"><path id="SVGID" class="cls-1" d="M133,72.27a4.59,4.59,0,1,0-6.79,4v5.36a2.21,2.21,0,1,0,4.41,0V76.27A4.57,4.57,0,0,0,133,72.27Z"/></clipPath><clipPath id="clip-path-2"><path id="SVGID-2" data-name="SVGID" class="cls-1" d="M147.2,59V52a18.8,18.8,0,1,0-37.59-.66V59h-.8a1.68,1.68,0,0,0-1.68,1.68V74.05A21.27,21.27,0,0,0,128.4,95.33h0a21.28,21.28,0,0,0,21.28-21.28V60.64A1.68,1.68,0,0,0,148,59Zm-31.14-7.62a12.35,12.35,0,0,1,24.69,0V59H116.06Z"/></clipPath></defs><title>Tanggal-penguncian</title><g class="cls-2"><g id="Layer_2" data-name="Layer 2"><g id="Layer_2-2" data-name="Layer 2"><path class="cls-3" d="M14.35,97.18S-7.22,74,10.7,49c15.9-22.24,34.43-20.72,48-11.69,5.79,3.84,22.49.47,36.71-22.16C114.82-15.76,182,3,169.76,50.45c-5.93,23,18,23.81,5.83,46.78Z"/><path class="cls-4" d="M55.76,52.27S45.09,37.08,40.92,39.05,55.76,52.27,55.76,52.27Z"/><path class="cls-4" d="M55.08,48.19s-1.63-11.42-4.2-11S55.08,48.19,55.08,48.19Z"/><path class="cls-5" d="M46.06,83.78s1-5.08-3-5.72a9.06,9.06,0,0,0-4.29.92s4.52,2.61,4,3.42S38,79.13,38,79.13s-4.84,2.12-5.92,3.66c0,0,5.72,1,5,1.67s-6.73-.13-6.73-.13-3.86,3.12-2.18,5.6,3.61,2.46,4.22,2,3.59-4,4-3.51-.93,3.49-2.48,4.47c0,0,4.87,1.64,6.34-.44s.79-3.7,1.72-5,2-1.87,1.8-1-2.13,2.7-2.14,4.36-.17,2.87,1.73,1.41,4.42-4.87,3.59-6.69Z"/><path class="cls-5" d="M30.28,88.83s11.36-6.94,15.78-5a9.65,9.65,0,0,0,4.13,2l.68.59s-3.19-1-4-.72C46.88,85.6,45.71,80.86,30.28,88.83Z"/><path class="cls-5" d="M50.19,85.73a8.33,8.33,0,0,1,5.53,3.65l-.43.29s-2.7-3-4.88-3.49S50.19,85.73,50.19,85.73Z"/><path class="cls-4" d="M49.54,69s8.25-4.62,4.4-10.89c0,0-3.08-3.85-6.38-4.84,0,0,1.76,9.35,0,9.57s-1.21-10.56-1.21-10.56-8.69-4.18-12.1-3.85c0,0,5.39,9.13,3.63,8.91s-7.81-9.46-7.81-9.46-8.91-1.65-10.34,3.63.88,7.92,2.2,8.25,9.79.22,9.57,1.32-5.94,2.86-9.13,1.87c0,0,3.52,8.69,8.14,8.25s6.05-3.3,8.91-3.52,4.95.55,3.52,1.32-6.27.26-8.58,2.22-4.18,3.17.11,4,12,.33,13.53-3Z"/><path class="cls-5" d="M23.8,53.11S46.9,60.59,49.54,69a17.55,17.55,0,0,0,2.2,8v1.65S49.32,73,48,72.25C48,72.25,53.17,65,23.8,53.11Z"/><path class="cls-5" d="M51.74,77a15.25,15.25,0,0,1,1.53,12l-.92-.25s.89-7.25-1-10.9S51.74,77,51.74,77Z"/><path class="cls-6" d="M140,48.57s-5.55-3.54-2.62-7.75c0,0,2.29-2.55,4.63-3.11,0,0-1.6,6.43-.38,6.65s1.26-7.29,1.26-7.29,6.21-2.56,8.57-2.2c0,0-4.12,6.14-2.88,6.06s5.81-6.27,5.81-6.27,6.26-.79,7,2.94-.93,5.47-1.86,5.64-6.82-.23-6.71.54,4,2.23,6.28,1.67c0,0-2.8,5.9-6,5.41s-4.08-2.54-6.06-2.81-3.46.19-2.5.78,4.35.43,5.88,1.88,2.78,2.38-.24,2.82-8.35-.25-9.29-2.61Z"/><path class="cls-6" d="M158.5,38.58s-16.36,4.28-18.53,10a12.17,12.17,0,0,1-1.85,5.49l-.06,1.15s1.9-3.8,2.85-4.29C140.91,50.92,137.61,45.67,158.5,38.58Z"/><path class="cls-6" d="M138.12,54.06a10.62,10.62,0,0,0-1.54,8.28l.65-.13s-.33-5.08,1.11-7.54S138.12,54.06,138.12,54.06Z"/><path class="cls-7" d="M125,33.19s-8.53-1.87-6.8-8.44c0,0,1.69-4.23,4.34-6,0,0,1,8.74,2.56,8.46s-1.76-9.66-1.76-9.66,6.57-6,9.67-6.65c0,0-2.32,9.52-.82,8.85s4.37-10.45,4.37-10.45,7.43-3.85,10.11.44S148,17,147,17.63s-8.59,2.82-8.1,3.73,6,.94,8.57-.79c0,0-.78,8.62-5,9.47s-6.24-1.3-8.82-.72-4.23,1.81-2.76,2.11,5.61-1.46,8.18-.34,4.54,1.68,1,3.61-10.51,3.5-12.76,1Z"/><path class="cls-7" d="M143.53,12.29S125.12,25.1,125,33.19a16.24,16.24,0,0,1,.21,7.69l.44,1.46s.64-5.61,1.6-6.64C127.27,35.7,120.75,30.67,143.53,12.29Z"/><path class="cls-7" d="M125.23,40.88a14.09,14.09,0,0,0,1.86,11l.75-.47s-2.73-6.17-2.06-9.89S125.23,40.88,125.23,40.88Z"/><path class="cls-5" d="M168.11,96.62h-6.32c-.34-.29.23-.94.83-1a3.75,3.75,0,0,1,1,.12c.08-1.16.58-6.35,2.45-6.14,2.11.23,0,2.28-.59,3.5a28.44,28.44,0,0,0-1.12,2.8l.53.11c.28-.86,1.32-3.74,2.64-3.57,1.55.19.92,1.35-.18,2-.8.5-1.79,1.22-2.26,1.56a6.25,6.25,0,0,0,1.23.1A2.69,2.69,0,0,1,168.11,96.62Z"/><path class="cls-5" d="M23.81,96.32c-.33-.53-1.34-1.9-2.68-1.71s1.61,1.16,2.55,1.71a1.55,1.55,0,0,1-.52-.06,3.54,3.54,0,0,0-2.05.36h6a.93.93,0,0,0-.43-.55,1.07,1.07,0,0,0-.55,0c.35-.42.6-1.76-.39-1.42-.73.25-.73,1.07-.65,1.56l-.47.07c-.3-1.52-1.36-6-3.5-6.1S23,94.76,24.3,96.27Z"/><rect class="cls-8" y="96.55" width="188.22" height="0.5" rx="0.15"/><g class="cls-9"><rect class="cls-10" x="66.76" y="21.39" width="75.76" height="63.59" rx="4.32"/><path class="cls-10" d="M142.53,25.71v7.68H66.76V25.71a4.32,4.32,0,0,1,4.32-4.32h67.13A4.31,4.31,0,0,1,142.53,25.71Z"/><rect class="cls-10" x="69.77" y="36.79" width="8.63" height="8.63" rx="2.32"/><rect class="cls-10" x="82.07" y="36.79" width="8.63" height="8.63" rx="2.32"/><rect class="cls-10" x="94.37" y="36.79" width="8.63" height="8.63" rx="2.32"/><rect class="cls-10" x="106.67" y="36.79" width="8.63" height="8.63" rx="2.32"/><rect class="cls-11" x="118.97" y="36.79" width="8.63" height="8.63" rx="2.32"/><rect class="cls-10" x="131.28" y="36.79" width="8.63" height="8.63" rx="2.32"/><rect class="cls-10" x="69.77" y="48.38" width="8.63" height="8.63" rx="2.32"/><rect class="cls-10" x="82.07" y="48.38" width="8.63" height="8.63" rx="2.32"/><rect class="cls-11" x="94.37" y="48.38" width="8.63" height="8.63" rx="2.32"/><rect class="cls-10" x="106.67" y="48.38" width="8.63" height="8.63" rx="2.32"/><rect class="cls-10" x="118.97" y="48.38" width="8.63" height="8.63" rx="2.32"/><rect class="cls-10" x="131.28" y="48.38" width="8.63" height="8.63" rx="2.32"/><rect class="cls-10" x="69.77" y="59.96" width="8.63" height="8.63" rx="2.32"/><rect class="cls-10" x="82.07" y="59.96" width="8.63" height="8.63" rx="2.32"/><rect class="cls-10" x="94.37" y="59.96" width="8.63" height="8.63" rx="2.32"/><rect class="cls-10" x="106.67" y="59.96" width="8.63" height="8.63" rx="2.32"/><rect class="cls-10" x="118.97" y="59.96" width="8.63" height="8.63" rx="2.32"/><rect class="cls-10" x="131.28" y="59.96" width="8.63" height="8.63" rx="2.32"/><rect class="cls-11" x="69.77" y="71.55" width="8.63" height="8.63" rx="2.32"/><rect class="cls-10" x="82.07" y="71.55" width="8.63" height="8.63" rx="2.32"/><rect class="cls-10" x="94.37" y="71.55" width="8.63" height="8.63" rx="2.32"/><rect class="cls-10" x="106.67" y="71.55" width="8.63" height="8.63" rx="2.32"/><rect class="cls-10" x="118.97" y="71.55" width="8.63" height="8.63" rx="2.32"/><rect class="cls-10" x="131.28" y="71.55" width="8.63" height="8.63" rx="2.32"/><path class="cls-10" d="M72.9,28.08a1.57,1.57,0,1,1-1.57-1.57A1.57,1.57,0,0,1,72.9,28.08Z"/><circle class="cls-10" cx="84.7" cy="28.08" r="1.57"/><circle class="cls-10" cx="98.07" cy="28.08" r="1.57"/><path class="cls-10" d="M113,28.08a1.57,1.57,0,1,1-1.57-1.57A1.57,1.57,0,0,1,113,28.08Z"/><path class="cls-10" d="M126.38,28.08a1.57,1.57,0,1,1-1.57-1.57A1.57,1.57,0,0,1,126.38,28.08Z"/><path class="cls-10" d="M139.75,28.08a1.57,1.57,0,1,1-1.57-1.57A1.57,1.57,0,0,1,139.75,28.08Z"/><line class="cls-12" x1="71.33" y1="28.08" x2="71.33" y2="20.71"/><line class="cls-12" x1="84.7" y1="28.08" x2="84.7" y2="20.71"/><line class="cls-12" x1="98.07" y1="28.08" x2="98.07" y2="20.71"/><line class="cls-12" x1="124.81" y1="28.08" x2="124.81" y2="20.71"/><line class="cls-12" x1="138.18" y1="28.08" x2="138.18" y2="20.71"/><path class="cls-10" d="M101.16,62a6.61,6.61,0,0,1-.76.22,7.53,7.53,0,0,1,.29,1.94h1.39A3.37,3.37,0,0,0,101.16,62Zm-1.14-.8a6.3,6.3,0,0,1,.28.72,5.25,5.25,0,0,0,.6-.17A3,3,0,0,0,100,61.16ZM99.59,61a3,3,0,0,0-.74-.12v1.17a7.35,7.35,0,0,0,1.14-.12A6.36,6.36,0,0,0,99.59,61Zm.49,1.24a6.33,6.33,0,0,1-1.23.12v1.75h1.52A6.63,6.63,0,0,0,100.08,62.25Zm-1.39-1.36h0Zm-.9.12a6.36,6.36,0,0,0-.4.93,7.23,7.23,0,0,0,1.14.12V60.89A3,3,0,0,0,97.79,61Zm-1.32.7.6.17a7.72,7.72,0,0,1,.29-.72A3.3,3.3,0,0,0,96.47,61.71Zm.82.54A6.88,6.88,0,0,0,97,64.12h1.52V62.37A7.44,7.44,0,0,1,97.29,62.25ZM96.22,62a3.4,3.4,0,0,0-.92,2.17h1.39A7.46,7.46,0,0,1,97,62.18,4.78,4.78,0,0,1,96.22,62Zm2.63,2.49v1.74a7.34,7.34,0,0,1,1.23.13,7,7,0,0,0,.29-1.87Zm1.84,0a7.45,7.45,0,0,1-.29,1.93,7.32,7.32,0,0,1,.76.23,3.37,3.37,0,0,0,.92-2.16Zm-3.61,2.24c-.2,0-.41.1-.61.17a3.48,3.48,0,0,0,.9.56A6.52,6.52,0,0,1,97.08,66.68Zm3.22,0a6.52,6.52,0,0,1-.29.73,3.08,3.08,0,0,0,.89-.57Zm-1.45-.18v1.17a3.58,3.58,0,0,0,.73-.11,7,7,0,0,0,.4-.94A7.1,7.1,0,0,0,98.85,66.5Zm-1.45.12a7,7,0,0,0,.4.94,3.47,3.47,0,0,0,.73.11V66.5A7.1,7.1,0,0,0,97.4,66.62Zm-.71-2.18H95.3a3.35,3.35,0,0,0,.92,2.16c.25-.08.5-.16.77-.22A7.19,7.19,0,0,1,96.69,64.44Zm.32,0a7,7,0,0,0,.29,1.87,7.23,7.23,0,0,1,1.23-.13V64.44Z"/><path class="cls-10" d="M98.53,67.67h.32"/><polyline class="cls-13" points="71.55 41.71 73.64 43.45 76.64 39.28"/><polyline class="cls-13" points="120.99 41.71 123.07 43.45 126.07 39.28"/><polyline class="cls-13" points="83.85 75.95 85.93 77.69 88.93 73.52"/></g><rect class="cls-14" x="61.56" y="16.18" width="75.76" height="63.59" rx="4.32"/><path class="cls-15" d="M137.32,20.5v7.68H61.56V20.5a4.31,4.31,0,0,1,4.31-4.32H133A4.31,4.31,0,0,1,137.32,20.5Z"/><rect class="cls-16" x="64.56" y="31.58" width="8.63" height="8.63" rx="2.32"/><rect class="cls-16" x="76.86" y="31.58" width="8.63" height="8.63" rx="2.32"/><rect class="cls-16" x="89.16" y="31.58" width="8.63" height="8.63" rx="2.32"/><rect class="cls-16" x="101.47" y="31.58" width="8.63" height="8.63" rx="2.32"/><rect class="cls-17" x="113.77" y="31.58" width="8.63" height="8.63" rx="2.32"/><rect class="cls-16" x="126.07" y="31.58" width="8.63" height="8.63" rx="2.32"/><rect class="cls-16" x="64.56" y="43.17" width="8.63" height="8.63" rx="2.32"/><rect class="cls-16" x="76.86" y="43.17" width="8.63" height="8.63" rx="2.32"/><rect class="cls-17" x="89.16" y="43.17" width="8.63" height="8.63" rx="2.32"/><rect class="cls-16" x="101.47" y="43.17" width="8.63" height="8.63" rx="2.32"/><rect class="cls-16" x="113.77" y="43.17" width="8.63" height="8.63" rx="2.32"/><rect class="cls-16" x="126.07" y="43.17" width="8.63" height="8.63" rx="2.32"/><rect class="cls-16" x="64.56" y="54.75" width="8.63" height="8.63" rx="2.32"/><rect class="cls-16" x="76.86" y="54.75" width="8.63" height="8.63" rx="2.32"/><rect class="cls-16" x="89.16" y="54.75" width="8.63" height="8.63" rx="2.32"/><rect class="cls-16" x="101.47" y="54.75" width="8.63" height="8.63" rx="2.32"/><rect class="cls-16" x="113.77" y="54.75" width="8.63" height="8.63" rx="2.32"/><rect class="cls-16" x="126.07" y="54.75" width="8.63" height="8.63" rx="2.32"/><rect class="cls-17" x="64.56" y="66.34" width="8.63" height="8.63" rx="2.32"/><rect class="cls-16" x="76.86" y="66.34" width="8.63" height="8.63" rx="2.32"/><rect class="cls-16" x="89.16" y="66.34" width="8.63" height="8.63" rx="2.32"/><rect class="cls-16" x="101.47" y="66.34" width="8.63" height="8.63" rx="2.32"/><rect class="cls-16" x="113.77" y="66.34" width="8.63" height="8.63" rx="2.32"/><rect class="cls-16" x="126.07" y="66.34" width="8.63" height="8.63" rx="2.32"/><path class="cls-18" d="M67.69,22.88a1.57,1.57,0,1,1-1.57-1.57A1.57,1.57,0,0,1,67.69,22.88Z"/><circle class="cls-18" cx="79.49" cy="22.88" r="1.57"/><circle class="cls-18" cx="92.86" cy="22.88" r="1.57"/><path class="cls-18" d="M107.8,22.88a1.57,1.57,0,1,1-1.57-1.57A1.57,1.57,0,0,1,107.8,22.88Z"/><path class="cls-18" d="M121.17,22.88a1.57,1.57,0,1,1-1.57-1.57A1.57,1.57,0,0,1,121.17,22.88Z"/><path class="cls-18" d="M134.54,22.88A1.57,1.57,0,1,1,133,21.31,1.57,1.57,0,0,1,134.54,22.88Z"/><line class="cls-19" x1="66.12" y1="22.88" x2="66.12" y2="15.5"/><line class="cls-19" x1="79.49" y1="22.88" x2="79.49" y2="15.5"/><line class="cls-19" x1="92.86" y1="22.88" x2="92.86" y2="15.5"/><line class="cls-19" x1="119.6" y1="22.88" x2="119.6" y2="15.5"/><line class="cls-19" x1="132.97" y1="22.88" x2="132.97" y2="15.5"/><path class="cls-14" d="M96,56.75a7.49,7.49,0,0,1-.77.23,7.45,7.45,0,0,1,.29,1.93h1.39A3.42,3.42,0,0,0,96,56.75ZM94.81,56c.11.23.2.48.29.72l.6-.16A3.43,3.43,0,0,0,94.81,56Zm-.43-.15a2.94,2.94,0,0,0-.74-.12v1.17a8.79,8.79,0,0,0,1.14-.11A6,6,0,0,0,94.38,55.8Zm.5,1.24a7.46,7.46,0,0,1-1.24.13v1.74h1.52A7,7,0,0,0,94.88,57Zm-1.4-1.36h0Zm-.9.12a6.36,6.36,0,0,0-.4.93,7.35,7.35,0,0,0,1.14.12V55.68A3,3,0,0,0,92.58,55.8Zm-1.31.7a5.25,5.25,0,0,0,.6.17,7.69,7.69,0,0,1,.28-.72A3.34,3.34,0,0,0,91.27,56.5Zm.82.54a7,7,0,0,0-.29,1.87h1.52V57.17A7.23,7.23,0,0,1,92.09,57ZM91,56.75a3.37,3.37,0,0,0-.92,2.16h1.39A7.53,7.53,0,0,1,91.77,57,6.61,6.61,0,0,1,91,56.75Zm2.63,2.48V61a6.33,6.33,0,0,1,1.23.12,6.63,6.63,0,0,0,.29-1.87Zm1.84,0a7.46,7.46,0,0,1-.29,1.94,6.61,6.61,0,0,1,.76.22,3.37,3.37,0,0,0,.92-2.16Zm-3.61,2.24-.6.17a3.27,3.27,0,0,0,.89.56C92.06,62,92,61.72,91.87,61.47Zm3.22,0a6.52,6.52,0,0,1-.29.73,3.48,3.48,0,0,0,.9-.56C95.5,61.57,95.29,61.52,95.09,61.47Zm-1.45-.18v1.17a3.47,3.47,0,0,0,.73-.11,7,7,0,0,0,.41-.94A7.35,7.35,0,0,0,93.64,61.29Zm-1.45.12a7,7,0,0,0,.4.94,3.47,3.47,0,0,0,.73.11V61.29A7.1,7.1,0,0,0,92.19,61.41Zm-.71-2.18H90.09A3.38,3.38,0,0,0,91,61.4a6.82,6.82,0,0,1,.77-.23A7.07,7.07,0,0,1,91.48,59.23Zm.32,0a7,7,0,0,0,.29,1.87A7.32,7.32,0,0,1,93.32,61V59.23Z"/><path class="cls-14" d="M93.32,62.46h.32"/><polyline class="cls-20" points="66.35 36.5 68.43 38.24 71.43 34.07"/><polyline class="cls-20" points="115.78 36.5 117.86 38.24 120.86 34.07"/><polyline class="cls-20" points="78.64 70.74 80.72 72.48 83.72 68.31"/><path class="cls-21" d="M114.34,16.18H100.52a1.3,1.3,0,0,1,.13-.48,15.43,15.43,0,0,1,1.95-2.48,27.61,27.61,0,0,1,4.33-.89l2.43-.15a17,17,0,0,1,4.13,1.46A3.54,3.54,0,0,1,114.34,16.18Z"/><path class="cls-22" d="M109.76,16.18h-9.24a1.62,1.62,0,0,1,.13-.48,2.06,2.06,0,0,1,1.1,0l.56.15h6C109.5,15.84,109.76,16.18,109.76,16.18Z"/><path class="cls-23" d="M108.73,9.92a3.74,3.74,0,0,0,0-1.07,2.26,2.26,0,0,0-.48-.94,2.23,2.23,0,0,0-.51.13v.72s.17,1,.22,1.1a3.73,3.73,0,0,0,.29.52,1.23,1.23,0,0,0,.23-.08Z"/><path class="cls-23" d="M107.48,13.55a.79.79,0,0,1-.8-.59,2.27,2.27,0,0,0-.19-.49c-.1-.23-.22-.48-.3-.69l.81-.59,1.73-1.27a7.83,7.83,0,0,0,.63,2.26S109.5,13.44,107.48,13.55Z"/><path class="cls-24" d="M107.87,10.89a6.57,6.57,0,0,1-1.38,1.58c-.1-.23-.22-.48-.3-.69l.81-.59Z"/><path class="cls-23" d="M108.42,9.17a5.31,5.31,0,0,1,0,1s0,.06,0,.1,0,.07,0,.1c-.28,1.09-3.63,2.33-3.73,2.27-1.88-1.21-2.53-5.67-2.33-6S105.21,6,105.27,6s2.6.18,2.6.18A26.76,26.76,0,0,1,108.42,9.17Z"/><path class="cls-25" d="M101.12,5.59s.08,2,3.28,1.17a3.47,3.47,0,0,1,2.09-.18c.65,2.06.67,3,.9,3s-.49-1.81.51-1.62c.77.14.83,2,.83,2s.07.15.09-.29c0-.25.2-4.43-.44-5.3A1.15,1.15,0,0,0,106.85,4s.05-2.11-3-.56a2.93,2.93,0,0,1-2.59.35A3.79,3.79,0,0,0,101.12,5.59Z"/><path class="cls-23" d="M105.44,30.18a3.53,3.53,0,0,1-.39.38.94.94,0,0,1-.52.21,1.22,1.22,0,0,0-.55.43c-.08.09,0,.13.16.1s.36-.16.43-.16.06.08,0,.23a1.72,1.72,0,0,1-.36.47c-.11.08-.41.25-.44.35s0,.15.15.1a4.67,4.67,0,0,0,.53-.28,1.37,1.37,0,0,0,.2-.16,1.34,1.34,0,0,0,.44,0,.5.5,0,0,0,.21-.09h.07c.14-.06.21-.55.29-.68a4.94,4.94,0,0,1,.7-.62Z"/><path class="cls-23" d="M101.66,17.13a.7.7,0,0,1-.34-.24l-.17-.2-.17-.12a.46.46,0,0,0-.26-.09h0c-.65,0-1-.3-1.75-.3,0,0,1.88-.9,3-.26a3.54,3.54,0,0,0,.48.05c.33,0,.23.17.13.22a1.49,1.49,0,0,1-.22,0h0l.13.16c.15.18.34.41.38.44s0,.1,0,.1S102.24,17.42,101.66,17.13Z"/><path class="cls-26" d="M102.57,16.19a1.49,1.49,0,0,1-.22,0,3.51,3.51,0,0,0-.39-.32,3.54,3.54,0,0,0,.48.05C102.77,16,102.67,16.14,102.57,16.19Z"/><path class="cls-23" d="M112.11,25.46s-2-.31-2.2-.7a30.53,30.53,0,0,1,0-3.58c0-.31,0-.61,0-.87,0-.57,0-.95,0-.95l3.83.36C113.41,21.37,112.11,25.46,112.11,25.46Z"/><path class="cls-23" d="M109.91,24.76a11.56,11.56,0,0,0-1.56,1.42c-.34.41-1.39,2-2.2,3.12a10.41,10.41,0,0,1-.94,1.12l.51.5s2.1-1.38,3.82-2.69,2.26-1.78,2.57-2.77S110.52,24.26,109.91,24.76Z"/><path class="cls-21" d="M109.76,16.18l.13,3.51a8.05,8.05,0,0,0,3.92.28,8.42,8.42,0,0,0,.25-5.43"/><line class="cls-19" x1="106.23" y1="22.88" x2="106.23" y2="15.5"/><path class="cls-23" d="M59.88,79.08C59.5,81.94,58,93,58,93H56.78s-1-9.06-.65-11.21a16.37,16.37,0,0,0,.46-3.8c0-.1-.51-2.29-.92-4.09-.06-.25-.12-.5-.17-.73-.21-.93-.37-1.62-.37-1.62h4.76S60,78.33,59.88,79.08Z"/><path class="cls-24" d="M59.54,73a18,18,0,0,1-3.87.9c-.06-.25-.12-.5-.17-.73v-.05l1.15-.48S60.92,72.36,59.54,73Z"/><path class="cls-23" d="M58,93a1,1,0,0,0,.09.5,5.21,5.21,0,0,0,1.24,1.8l.1.25-.68.06a9.09,9.09,0,0,1-1.05-.7c-.07-.12-.32-.61-.4-.76s-.39-.43-.39-.56a3.93,3.93,0,0,0-.13-.59,4.24,4.24,0,0,1,.46-.34c.06,0,.35,0,.35,0Z"/><path class="cls-27" d="M56.76,92.69a2.35,2.35,0,0,0-.43,1.39A16.77,16.77,0,0,1,56.55,96h.16l.27-1.4A8.91,8.91,0,0,0,58.4,95.9a10.46,10.46,0,0,0,1.37.07c.06,0,.88-.19-.49-.72,0,0,0,.27-.53,0a4.55,4.55,0,0,1-1.39-1.3A3.1,3.1,0,0,1,56.76,92.69Z"/><path class="cls-23" d="M56,71.13s0,.47,0,1.24c0,.22,0,.46,0,.72a30.24,30.24,0,0,1-1.1,6.17c-.84,2.75-4.54,13.47-4.54,13.47l-1.15-.16s.85-8.9,1.47-11,1.63-2.91,1.66-3.86c0-.55-.22-2.49-.44-4-.07-.53-.14-1-.19-1.39s-.11-.77-.11-.77Z"/><path class="cls-23" d="M50.22,92.73a1,1,0,0,0,0,.51,5.24,5.24,0,0,0,1,2l.06.26-.68,0a9.4,9.4,0,0,1-.94-.84c0-.12-.24-.64-.29-.8s-.33-.48-.31-.61a3.84,3.84,0,0,0-.05-.6,4.37,4.37,0,0,1,.5-.27c.07,0,.36,0,.36,0Z"/><path class="cls-27" d="M49.07,92.3a2.34,2.34,0,0,0-.61,1.32,18.06,18.06,0,0,1,0,1.9l.16,0L49,94.19a9.09,9.09,0,0,0,1.22,1.52,12.41,12.41,0,0,0,1.36.26s.89-.07-.39-.78c0,0,0,.27-.52-.08a4.65,4.65,0,0,1-1.2-1.49A3.25,3.25,0,0,1,49.07,92.3Z"/><path class="cls-24" d="M56.14,72.9a1.73,1.73,0,0,1-.28.19,8.16,8.16,0,0,1-4.1.57c-.07-.53-.14-1-.19-1.39a20.08,20.08,0,0,1,4.34.1C56.31,72.48,56.46,72.64,56.14,72.9Z"/><path class="cls-23" d="M65.26,46.5s0,1.46-.43,1.81-3.45.17-4.9.11l-.75,0L59.35,47l.16-1.33Z"/><path class="cls-23" d="M64.61,46.66a7.87,7.87,0,0,1,2-.73c1-.16,5.15-1.24,5.15-1.24l.33.83a21.63,21.63,0,0,1-7.71,2.89Z"/><path class="cls-23" d="M71.76,44.69a1.49,1.49,0,0,0,.33-.39,1.07,1.07,0,0,1,.56-.59c.28-.1.51-.25.58-.22s.06.22-.1.29-.4.25-.38.31.68-.32.75-.35a8,8,0,0,1,.94-.31c.1,0,0,.25-.36.4s-.46.26-.44.34a.59.59,0,0,1,0,.73,1.09,1.09,0,0,1-.82.63,7.53,7.53,0,0,0-.89,0"/><path class="cls-21" d="M60.91,45.76a13.45,13.45,0,0,1-.26,2.78,12.38,12.38,0,0,1-1.77,0c-.36,0-.76-.07-1.18-.14l-.55-.1V45A19.26,19.26,0,0,1,60.91,45.76Z"/><path class="cls-28" d="M58.88,48.52c-.36,0-.76-.07-1.18-.14l-.09-.14.23-1S58.39,47.93,58.88,48.52Z"/><path class="cls-21" d="M58.9,59s-2.58,1.7-7.71.14a14.94,14.94,0,0,0,.55-4.87A10.41,10.41,0,0,0,51,52c-.24-.55-.5-1.13-.78-1.7-.47-1-1-1.93-1.31-2.61a1.1,1.1,0,0,1,.57-1.54A17.69,17.69,0,0,1,57.15,45c.22.51.62,2.22.84,2.55,1.1,1.61,1,1.78.73,3C58.39,52.25,58.06,56.39,58.9,59Z"/><path class="cls-28" d="M51.36,49.18S51.22,50.79,51,52c-.24-.55-.5-1.13-.78-1.7Z"/><path class="cls-29" d="M51.51,58.69s-.91.77-1.23,3.41,1.23,10.79,1.23,10.79,2.35,1.13,8.5,0c0,0,.12-10-1.26-14.48Z"/><path class="cls-23" d="M52.28,44.41s-.57,1-1,1.11a8.45,8.45,0,0,0,2.94.61A2.38,2.38,0,0,0,56,45a1.27,1.27,0,0,1-1.07-1.17"/><path class="cls-23" d="M55.06,42.28s0,.26-.05.52,0,.44,0,.48c0,.54,0,1-.11,1.7l-2.58-.57s.46-.49.15-3l2.58.82Z"/><path class="cls-24" d="M55.06,42.28s0,.26-.05.52a7,7,0,0,1-1.2-.11l1.2-.42Z"/><path class="cls-30" d="M52.94,35.76a1.29,1.29,0,0,1,1.43-.08,1.9,1.9,0,0,1,.41,2.22c-.31.7-1.93-1.45-1.93-1.45"/><path class="cls-23" d="M56.4,41.73a.49.49,0,0,1-.32.49,7,7,0,0,1-3.28.42c-1.7-.25-3.35-4.92.08-6.5C53.55,35.83,56.17,37.91,56.4,41.73Z"/><path class="cls-30" d="M49,39.13s-.6.14-.75.49c0,0,.72-.32,1-.06"/><path class="cls-30" d="M49.49,39.27a2.24,2.24,0,0,1-2.07-.56c-1.09-1.22,1-3.76,2.68-1.4"/><path class="cls-31" d="M49.13,39.7a.51.51,0,0,1-.29-.34,2.78,2.78,0,0,1,.85-2.53s.27-.23.45-.09"/><path class="cls-30" d="M52.52,43A5.31,5.31,0,0,1,49,39.51c-.67-2.71,3.42-5.38,5.14-2.8a2.31,2.31,0,0,0-1.56,1.16c-.33.91-.12,2.22-.47,2a.54.54,0,0,0-.81.58c.06.43.71.93,1.05,1.5A1.36,1.36,0,0,1,52.52,43Z"/><path class="cls-30" d="M54.17,36.23s1.32,1.34-1.45,2.67c.14-.53-.61-1.81-.61-1.81"/><rect class="cls-27" x="42.73" y="55.98" width="12.23" height="8.45" rx="0.72" transform="translate(110.36 107.38) rotate(166.53)"/><rect class="cls-14" x="43.36" y="56.42" width="10.97" height="7.58" transform="translate(110.36 107.38) rotate(166.53)"/><rect class="cls-32" x="53.95" y="57.73" width="0.56" height="2.91" transform="translate(-12.39 14.4) rotate(-13.59)"/><path class="cls-23" d="M48.9,56.2s-1.45-.23-1.71-.75.44-3.42.76-4.84c.1-.44.17-.73.17-.73l1.38.42,1.28.4Z"/><path class="cls-23" d="M48.85,55.53a7.78,7.78,0,0,1,.37,2.1c0,1,.3,5.29.3,5.29l-.87.17A21.63,21.63,0,0,1,47.17,55Z"/><path class="cls-23" d="M48.65,63.09a5.44,5.44,0,0,0,.23,1.26c.39.85,1.48,0,1.6-.19,0,0-.32,0-.54-.58a1.34,1.34,0,0,0-.34-.4.73.73,0,0,1-.08-.26"/><path class="cls-21" d="M48.84,46.76a37.29,37.29,0,0,0-1,4.25,7.88,7.88,0,0,0,2.75.59,16.11,16.11,0,0,0,.82-2.79"/><path class="cls-33" d="M151,59.36h-6.45V51.63a12.34,12.34,0,0,0-24.68,0v7.73h-6.46V51.63a18.8,18.8,0,0,1,37.59,0Z"/><path class="cls-34" d="M148.37,59.06h-6.45V51.34a12.35,12.35,0,0,0-24.69,0v7.72h-6.45V51.34a18.8,18.8,0,0,1,37.59,0Z"/><path class="cls-35" d="M114.33,59h39.88a1.33,1.33,0,0,1,1.33,1.33v22.2a12.83,12.83,0,0,1-12.83,12.83H125.83A12.83,12.83,0,0,1,113,82.49V60.29A1.33,1.33,0,0,1,114.33,59Z"/><path class="cls-36" d="M108.46,59h39.88a1.33,1.33,0,0,1,1.33,1.33v22.2a12.83,12.83,0,0,1-12.83,12.83H120a12.83,12.83,0,0,1-12.83-12.83V60.29A1.33,1.33,0,0,1,108.46,59Z"/><g class="cls-37"><path class="cls-38" d="M135,72.27a4.59,4.59,0,1,0-6.79,4v5.36a2.21,2.21,0,1,0,4.41,0V76.27A4.55,4.55,0,0,0,135,72.27Z"/></g><path class="cls-39" d="M133,72.27a4.59,4.59,0,1,0-6.79,4v5.36a2.21,2.21,0,1,0,4.41,0V76.27A4.57,4.57,0,0,0,133,72.27Z"/><g class="cls-40"><rect class="cls-41" x="128.4" y="58.96" width="21.27" height="36.36"/></g></g></g></g></svg>